%TF.GenerationSoftware,KiCad,Pcbnew,no-vcs-found-9447181~59~ubuntu16.04.1*%
%TF.CreationDate,2017-08-15T14:11:42-06:00*%
%TF.ProjectId,Christmas_Tree_Disco,4368726973746D61735F547265655F44,V1.0*%
%TF.SameCoordinates,Original*%
%TF.FileFunction,Soldermask,Bot*%
%TF.FilePolarity,Negative*%
%FSLAX46Y46*%
G04 Gerber Fmt 4.6, Leading zero omitted, Abs format (unit mm)*
G04 Created by KiCad (PCBNEW no-vcs-found-9447181~59~ubuntu16.04.1) date Tue Aug 15 14:11:42 2017*
%MOMM*%
%LPD*%
G01*
G04 APERTURE LIST*
%ADD10C,0.100000*%
G04 APERTURE END LIST*
D10*
G36*
X108629335Y-195946835D02*
X108681584Y-195962685D01*
X108729735Y-195988422D01*
X108771941Y-196023059D01*
X108806578Y-196065265D01*
X108832315Y-196113416D01*
X108848165Y-196165665D01*
X108854484Y-196229825D01*
X108854484Y-196760175D01*
X108848165Y-196824335D01*
X108832315Y-196876584D01*
X108806578Y-196924735D01*
X108771941Y-196966941D01*
X108729735Y-197001578D01*
X108700329Y-197017295D01*
X108667731Y-197039076D01*
X108640008Y-197066799D01*
X108618225Y-197099399D01*
X108603221Y-197135621D01*
X108595572Y-197174074D01*
X108595572Y-197213281D01*
X108603221Y-197251735D01*
X108618224Y-197287957D01*
X108652694Y-197334605D01*
X108731013Y-197413473D01*
X108791085Y-197503888D01*
X108832449Y-197604244D01*
X108853258Y-197709338D01*
X108853257Y-197709381D01*
X108853524Y-197710727D01*
X108851792Y-197834708D01*
X108851489Y-197836043D01*
X108851488Y-197836086D01*
X108827752Y-197940561D01*
X108783602Y-198039724D01*
X108721033Y-198128421D01*
X108642420Y-198203283D01*
X108598744Y-198231001D01*
X108567860Y-198255152D01*
X108542280Y-198284865D01*
X108522988Y-198318997D01*
X108510727Y-198356238D01*
X108505966Y-198395154D01*
X108508888Y-198434252D01*
X108519382Y-198472028D01*
X108537045Y-198507032D01*
X108561196Y-198537916D01*
X108594072Y-198565674D01*
X108654527Y-198606451D01*
X108731013Y-198683473D01*
X108791085Y-198773888D01*
X108832449Y-198874244D01*
X108853258Y-198979338D01*
X108853257Y-198979381D01*
X108853524Y-198980727D01*
X108851792Y-199104708D01*
X108851489Y-199106043D01*
X108851488Y-199106086D01*
X108827752Y-199210561D01*
X108783602Y-199309724D01*
X108721033Y-199398421D01*
X108642420Y-199473283D01*
X108598744Y-199501001D01*
X108567860Y-199525152D01*
X108542280Y-199554865D01*
X108522988Y-199588997D01*
X108510727Y-199626238D01*
X108505966Y-199665154D01*
X108508888Y-199704252D01*
X108519382Y-199742028D01*
X108537045Y-199777032D01*
X108561196Y-199807916D01*
X108594072Y-199835674D01*
X108654527Y-199876451D01*
X108731013Y-199953473D01*
X108791085Y-200043888D01*
X108832449Y-200144244D01*
X108853258Y-200249338D01*
X108853257Y-200249381D01*
X108853524Y-200250727D01*
X108851792Y-200374708D01*
X108851489Y-200376043D01*
X108851488Y-200376086D01*
X108827752Y-200480561D01*
X108783602Y-200579724D01*
X108721033Y-200668421D01*
X108642422Y-200743282D01*
X108550772Y-200801444D01*
X108449571Y-200840698D01*
X108342667Y-200859548D01*
X108234149Y-200857275D01*
X108128127Y-200833964D01*
X108028658Y-200790507D01*
X107939526Y-200728559D01*
X107864119Y-200650473D01*
X107805318Y-200559231D01*
X107765359Y-200458307D01*
X107745763Y-200351538D01*
X107747279Y-200243006D01*
X107769848Y-200136826D01*
X107812611Y-200037053D01*
X107873934Y-199947493D01*
X107951493Y-199871541D01*
X108003266Y-199837662D01*
X108033811Y-199813081D01*
X108058974Y-199783014D01*
X108077787Y-199748616D01*
X108089528Y-199711209D01*
X108093746Y-199672229D01*
X108090278Y-199633176D01*
X108079258Y-199595550D01*
X108061109Y-199560797D01*
X108036528Y-199530252D01*
X108007897Y-199506078D01*
X107939526Y-199458559D01*
X107864119Y-199380473D01*
X107805318Y-199289231D01*
X107765359Y-199188307D01*
X107745763Y-199081538D01*
X107747279Y-198973006D01*
X107769848Y-198866826D01*
X107812611Y-198767053D01*
X107873934Y-198677493D01*
X107951493Y-198601541D01*
X108003266Y-198567662D01*
X108033811Y-198543081D01*
X108058974Y-198513014D01*
X108077787Y-198478616D01*
X108089528Y-198441209D01*
X108093746Y-198402229D01*
X108090278Y-198363176D01*
X108079258Y-198325550D01*
X108061109Y-198290797D01*
X108036528Y-198260252D01*
X108007897Y-198236078D01*
X107939526Y-198188559D01*
X107864119Y-198110473D01*
X107805318Y-198019231D01*
X107765359Y-197918307D01*
X107745763Y-197811538D01*
X107747279Y-197703006D01*
X107769848Y-197596826D01*
X107812611Y-197497053D01*
X107873936Y-197407490D01*
X107945990Y-197336929D01*
X107971179Y-197306883D01*
X107990022Y-197272501D01*
X108001795Y-197235104D01*
X108006046Y-197196128D01*
X108002612Y-197157072D01*
X107991624Y-197119436D01*
X107973505Y-197084668D01*
X107948951Y-197054102D01*
X107918905Y-197028913D01*
X107900335Y-197017650D01*
X107870265Y-197001578D01*
X107828059Y-196966941D01*
X107793422Y-196924735D01*
X107767685Y-196876584D01*
X107751835Y-196824335D01*
X107745516Y-196760175D01*
X107745516Y-196229825D01*
X107751835Y-196165665D01*
X107767685Y-196113416D01*
X107793422Y-196065265D01*
X107828059Y-196023059D01*
X107870265Y-195988422D01*
X107918416Y-195962685D01*
X107970665Y-195946835D01*
X108034825Y-195940516D01*
X108565175Y-195940516D01*
X108629335Y-195946835D01*
X108629335Y-195946835D01*
G37*
G36*
X76629335Y-192846835D02*
X76681584Y-192862685D01*
X76729735Y-192888422D01*
X76771941Y-192923059D01*
X76806578Y-192965265D01*
X76832315Y-193013416D01*
X76848165Y-193065665D01*
X76854484Y-193129825D01*
X76854484Y-193660175D01*
X76848165Y-193724335D01*
X76832315Y-193776584D01*
X76806578Y-193824735D01*
X76771941Y-193866941D01*
X76729735Y-193901578D01*
X76700329Y-193917295D01*
X76667731Y-193939076D01*
X76640008Y-193966799D01*
X76618225Y-193999399D01*
X76603221Y-194035621D01*
X76595572Y-194074074D01*
X76595572Y-194113281D01*
X76603221Y-194151735D01*
X76618224Y-194187957D01*
X76652694Y-194234605D01*
X76731013Y-194313473D01*
X76791085Y-194403888D01*
X76832449Y-194504244D01*
X76853258Y-194609338D01*
X76853257Y-194609381D01*
X76853524Y-194610727D01*
X76851792Y-194734708D01*
X76851489Y-194736043D01*
X76851488Y-194736086D01*
X76827752Y-194840561D01*
X76783602Y-194939724D01*
X76721033Y-195028421D01*
X76642420Y-195103283D01*
X76598744Y-195131001D01*
X76567860Y-195155152D01*
X76542280Y-195184865D01*
X76522988Y-195218997D01*
X76510727Y-195256238D01*
X76505966Y-195295154D01*
X76508888Y-195334252D01*
X76519382Y-195372028D01*
X76537045Y-195407032D01*
X76561196Y-195437916D01*
X76594072Y-195465674D01*
X76654527Y-195506451D01*
X76731013Y-195583473D01*
X76791085Y-195673888D01*
X76832449Y-195774244D01*
X76853258Y-195879338D01*
X76853257Y-195879381D01*
X76853524Y-195880727D01*
X76851792Y-196004708D01*
X76851489Y-196006043D01*
X76851488Y-196006086D01*
X76827752Y-196110561D01*
X76783602Y-196209724D01*
X76721033Y-196298421D01*
X76642420Y-196373283D01*
X76598744Y-196401001D01*
X76567860Y-196425152D01*
X76542280Y-196454865D01*
X76522988Y-196488997D01*
X76510727Y-196526238D01*
X76505966Y-196565154D01*
X76508888Y-196604252D01*
X76519382Y-196642028D01*
X76537045Y-196677032D01*
X76561196Y-196707916D01*
X76594072Y-196735674D01*
X76654527Y-196776451D01*
X76731013Y-196853473D01*
X76791085Y-196943888D01*
X76832449Y-197044244D01*
X76853258Y-197149338D01*
X76853257Y-197149381D01*
X76853524Y-197150727D01*
X76851792Y-197274708D01*
X76851489Y-197276043D01*
X76851488Y-197276086D01*
X76827752Y-197380561D01*
X76783602Y-197479724D01*
X76721033Y-197568421D01*
X76642422Y-197643282D01*
X76550772Y-197701444D01*
X76449571Y-197740698D01*
X76342667Y-197759548D01*
X76234149Y-197757275D01*
X76128127Y-197733964D01*
X76028658Y-197690507D01*
X75939526Y-197628559D01*
X75864119Y-197550473D01*
X75805318Y-197459231D01*
X75765359Y-197358307D01*
X75745763Y-197251538D01*
X75747279Y-197143006D01*
X75769848Y-197036826D01*
X75812611Y-196937053D01*
X75873934Y-196847493D01*
X75951493Y-196771541D01*
X76003266Y-196737662D01*
X76033811Y-196713081D01*
X76058974Y-196683014D01*
X76077787Y-196648616D01*
X76089528Y-196611209D01*
X76093746Y-196572229D01*
X76090278Y-196533176D01*
X76079258Y-196495550D01*
X76061109Y-196460797D01*
X76036528Y-196430252D01*
X76007897Y-196406078D01*
X75939526Y-196358559D01*
X75864119Y-196280473D01*
X75805318Y-196189231D01*
X75765359Y-196088307D01*
X75745763Y-195981538D01*
X75747279Y-195873006D01*
X75769848Y-195766826D01*
X75812611Y-195667053D01*
X75873934Y-195577493D01*
X75951493Y-195501541D01*
X76003266Y-195467662D01*
X76033811Y-195443081D01*
X76058974Y-195413014D01*
X76077787Y-195378616D01*
X76089528Y-195341209D01*
X76093746Y-195302229D01*
X76090278Y-195263176D01*
X76079258Y-195225550D01*
X76061109Y-195190797D01*
X76036528Y-195160252D01*
X76007897Y-195136078D01*
X75939526Y-195088559D01*
X75864119Y-195010473D01*
X75805318Y-194919231D01*
X75765359Y-194818307D01*
X75745763Y-194711538D01*
X75747279Y-194603006D01*
X75769848Y-194496826D01*
X75812611Y-194397053D01*
X75873936Y-194307490D01*
X75945990Y-194236929D01*
X75971179Y-194206883D01*
X75990022Y-194172501D01*
X76001795Y-194135104D01*
X76006046Y-194096128D01*
X76002612Y-194057072D01*
X75991624Y-194019436D01*
X75973505Y-193984668D01*
X75948951Y-193954102D01*
X75918905Y-193928913D01*
X75900335Y-193917650D01*
X75870265Y-193901578D01*
X75828059Y-193866941D01*
X75793422Y-193824735D01*
X75767685Y-193776584D01*
X75751835Y-193724335D01*
X75745516Y-193660175D01*
X75745516Y-193129825D01*
X75751835Y-193065665D01*
X75767685Y-193013416D01*
X75793422Y-192965265D01*
X75828059Y-192923059D01*
X75870265Y-192888422D01*
X75918416Y-192862685D01*
X75970665Y-192846835D01*
X76034825Y-192840516D01*
X76565175Y-192840516D01*
X76629335Y-192846835D01*
X76629335Y-192846835D01*
G37*
G36*
X140629335Y-192846835D02*
X140681584Y-192862685D01*
X140729735Y-192888422D01*
X140771941Y-192923059D01*
X140806578Y-192965265D01*
X140832315Y-193013416D01*
X140848165Y-193065665D01*
X140854484Y-193129825D01*
X140854484Y-193660175D01*
X140848165Y-193724335D01*
X140832315Y-193776584D01*
X140806578Y-193824735D01*
X140771941Y-193866941D01*
X140729735Y-193901578D01*
X140700329Y-193917295D01*
X140667731Y-193939076D01*
X140640008Y-193966799D01*
X140618225Y-193999399D01*
X140603221Y-194035621D01*
X140595572Y-194074074D01*
X140595572Y-194113281D01*
X140603221Y-194151735D01*
X140618224Y-194187957D01*
X140652694Y-194234605D01*
X140731013Y-194313473D01*
X140791085Y-194403888D01*
X140832449Y-194504244D01*
X140853258Y-194609338D01*
X140853257Y-194609381D01*
X140853524Y-194610727D01*
X140851792Y-194734708D01*
X140851489Y-194736043D01*
X140851488Y-194736086D01*
X140827752Y-194840561D01*
X140783602Y-194939724D01*
X140721033Y-195028421D01*
X140642420Y-195103283D01*
X140598744Y-195131001D01*
X140567860Y-195155152D01*
X140542280Y-195184865D01*
X140522988Y-195218997D01*
X140510727Y-195256238D01*
X140505966Y-195295154D01*
X140508888Y-195334252D01*
X140519382Y-195372028D01*
X140537045Y-195407032D01*
X140561196Y-195437916D01*
X140594072Y-195465674D01*
X140654527Y-195506451D01*
X140731013Y-195583473D01*
X140791085Y-195673888D01*
X140832449Y-195774244D01*
X140853258Y-195879338D01*
X140853257Y-195879381D01*
X140853524Y-195880727D01*
X140851792Y-196004708D01*
X140851489Y-196006043D01*
X140851488Y-196006086D01*
X140827752Y-196110561D01*
X140783602Y-196209724D01*
X140721033Y-196298421D01*
X140642420Y-196373283D01*
X140598744Y-196401001D01*
X140567860Y-196425152D01*
X140542280Y-196454865D01*
X140522988Y-196488997D01*
X140510727Y-196526238D01*
X140505966Y-196565154D01*
X140508888Y-196604252D01*
X140519382Y-196642028D01*
X140537045Y-196677032D01*
X140561196Y-196707916D01*
X140594072Y-196735674D01*
X140654527Y-196776451D01*
X140731013Y-196853473D01*
X140791085Y-196943888D01*
X140832449Y-197044244D01*
X140853258Y-197149338D01*
X140853257Y-197149381D01*
X140853524Y-197150727D01*
X140851792Y-197274708D01*
X140851489Y-197276043D01*
X140851488Y-197276086D01*
X140827752Y-197380561D01*
X140783602Y-197479724D01*
X140721033Y-197568421D01*
X140642422Y-197643282D01*
X140550772Y-197701444D01*
X140449571Y-197740698D01*
X140342667Y-197759548D01*
X140234149Y-197757275D01*
X140128127Y-197733964D01*
X140028658Y-197690507D01*
X139939526Y-197628559D01*
X139864119Y-197550473D01*
X139805318Y-197459231D01*
X139765359Y-197358307D01*
X139745763Y-197251538D01*
X139747279Y-197143006D01*
X139769848Y-197036826D01*
X139812611Y-196937053D01*
X139873934Y-196847493D01*
X139951493Y-196771541D01*
X140003266Y-196737662D01*
X140033811Y-196713081D01*
X140058974Y-196683014D01*
X140077787Y-196648616D01*
X140089528Y-196611209D01*
X140093746Y-196572229D01*
X140090278Y-196533176D01*
X140079258Y-196495550D01*
X140061109Y-196460797D01*
X140036528Y-196430252D01*
X140007897Y-196406078D01*
X139939526Y-196358559D01*
X139864119Y-196280473D01*
X139805318Y-196189231D01*
X139765359Y-196088307D01*
X139745763Y-195981538D01*
X139747279Y-195873006D01*
X139769848Y-195766826D01*
X139812611Y-195667053D01*
X139873934Y-195577493D01*
X139951493Y-195501541D01*
X140003266Y-195467662D01*
X140033811Y-195443081D01*
X140058974Y-195413014D01*
X140077787Y-195378616D01*
X140089528Y-195341209D01*
X140093746Y-195302229D01*
X140090278Y-195263176D01*
X140079258Y-195225550D01*
X140061109Y-195190797D01*
X140036528Y-195160252D01*
X140007897Y-195136078D01*
X139939526Y-195088559D01*
X139864119Y-195010473D01*
X139805318Y-194919231D01*
X139765359Y-194818307D01*
X139745763Y-194711538D01*
X139747279Y-194603006D01*
X139769848Y-194496826D01*
X139812611Y-194397053D01*
X139873936Y-194307490D01*
X139945990Y-194236929D01*
X139971179Y-194206883D01*
X139990022Y-194172501D01*
X140001795Y-194135104D01*
X140006046Y-194096128D01*
X140002612Y-194057072D01*
X139991624Y-194019436D01*
X139973505Y-193984668D01*
X139948951Y-193954102D01*
X139918905Y-193928913D01*
X139900335Y-193917650D01*
X139870265Y-193901578D01*
X139828059Y-193866941D01*
X139793422Y-193824735D01*
X139767685Y-193776584D01*
X139751835Y-193724335D01*
X139745516Y-193660175D01*
X139745516Y-193129825D01*
X139751835Y-193065665D01*
X139767685Y-193013416D01*
X139793422Y-192965265D01*
X139828059Y-192923059D01*
X139870265Y-192888422D01*
X139918416Y-192862685D01*
X139970665Y-192846835D01*
X140034825Y-192840516D01*
X140565175Y-192840516D01*
X140629335Y-192846835D01*
X140629335Y-192846835D01*
G37*
G36*
X45830430Y-183651335D02*
X45882679Y-183667185D01*
X45921732Y-183688059D01*
X45930830Y-183692922D01*
X45973036Y-183727559D01*
X46007673Y-183769765D01*
X46033410Y-183817916D01*
X46049260Y-183870165D01*
X46055579Y-183934325D01*
X46055579Y-184464675D01*
X46049260Y-184528835D01*
X46033410Y-184581084D01*
X46028786Y-184589735D01*
X46007673Y-184629235D01*
X45973036Y-184671441D01*
X45930830Y-184706078D01*
X45901424Y-184721795D01*
X45868826Y-184743576D01*
X45841103Y-184771299D01*
X45819320Y-184803899D01*
X45804316Y-184840121D01*
X45796667Y-184878574D01*
X45796667Y-184917781D01*
X45804316Y-184956235D01*
X45819319Y-184992457D01*
X45853789Y-185039105D01*
X45932108Y-185117973D01*
X45992180Y-185208388D01*
X46033544Y-185308744D01*
X46054353Y-185413838D01*
X46054352Y-185413881D01*
X46054619Y-185415227D01*
X46052887Y-185539208D01*
X46052584Y-185540543D01*
X46052583Y-185540586D01*
X46028847Y-185645061D01*
X45984697Y-185744224D01*
X45922128Y-185832921D01*
X45843515Y-185907783D01*
X45799839Y-185935501D01*
X45768955Y-185959652D01*
X45743375Y-185989365D01*
X45724083Y-186023497D01*
X45711822Y-186060738D01*
X45707061Y-186099654D01*
X45709983Y-186138752D01*
X45720477Y-186176528D01*
X45738140Y-186211532D01*
X45762291Y-186242416D01*
X45795167Y-186270174D01*
X45855622Y-186310951D01*
X45932108Y-186387973D01*
X45992180Y-186478388D01*
X46033544Y-186578744D01*
X46054353Y-186683838D01*
X46054352Y-186683881D01*
X46054619Y-186685227D01*
X46052887Y-186809208D01*
X46052584Y-186810543D01*
X46052583Y-186810586D01*
X46028847Y-186915061D01*
X45984697Y-187014224D01*
X45922128Y-187102921D01*
X45843515Y-187177783D01*
X45799839Y-187205501D01*
X45768955Y-187229652D01*
X45743375Y-187259365D01*
X45724083Y-187293497D01*
X45711822Y-187330738D01*
X45707061Y-187369654D01*
X45709983Y-187408752D01*
X45720477Y-187446528D01*
X45738140Y-187481532D01*
X45762291Y-187512416D01*
X45795167Y-187540174D01*
X45855622Y-187580951D01*
X45932108Y-187657973D01*
X45992180Y-187748388D01*
X46033544Y-187848744D01*
X46054353Y-187953838D01*
X46054352Y-187953881D01*
X46054619Y-187955227D01*
X46052887Y-188079208D01*
X46052584Y-188080543D01*
X46052583Y-188080586D01*
X46028847Y-188185061D01*
X45984697Y-188284224D01*
X45922128Y-188372921D01*
X45843517Y-188447782D01*
X45751867Y-188505944D01*
X45650666Y-188545198D01*
X45543762Y-188564048D01*
X45435244Y-188561775D01*
X45329222Y-188538464D01*
X45229753Y-188495007D01*
X45140621Y-188433059D01*
X45065214Y-188354973D01*
X45006413Y-188263731D01*
X44966454Y-188162807D01*
X44946858Y-188056038D01*
X44948374Y-187947506D01*
X44970943Y-187841326D01*
X45013706Y-187741553D01*
X45075029Y-187651993D01*
X45152588Y-187576041D01*
X45204361Y-187542162D01*
X45234906Y-187517581D01*
X45260069Y-187487514D01*
X45278882Y-187453116D01*
X45290623Y-187415709D01*
X45294841Y-187376729D01*
X45291373Y-187337676D01*
X45280353Y-187300050D01*
X45262204Y-187265297D01*
X45237623Y-187234752D01*
X45208992Y-187210578D01*
X45140621Y-187163059D01*
X45065214Y-187084973D01*
X45006413Y-186993731D01*
X44966454Y-186892807D01*
X44946858Y-186786038D01*
X44948374Y-186677506D01*
X44970943Y-186571326D01*
X45013706Y-186471553D01*
X45075029Y-186381993D01*
X45152588Y-186306041D01*
X45204361Y-186272162D01*
X45234906Y-186247581D01*
X45260069Y-186217514D01*
X45278882Y-186183116D01*
X45290623Y-186145709D01*
X45294841Y-186106729D01*
X45291373Y-186067676D01*
X45280353Y-186030050D01*
X45262204Y-185995297D01*
X45237623Y-185964752D01*
X45208992Y-185940578D01*
X45140621Y-185893059D01*
X45065214Y-185814973D01*
X45006413Y-185723731D01*
X44966454Y-185622807D01*
X44946858Y-185516038D01*
X44948374Y-185407506D01*
X44970943Y-185301326D01*
X45013706Y-185201553D01*
X45075031Y-185111990D01*
X45147085Y-185041429D01*
X45172274Y-185011383D01*
X45191117Y-184977001D01*
X45202890Y-184939604D01*
X45207141Y-184900628D01*
X45203707Y-184861572D01*
X45192719Y-184823936D01*
X45174600Y-184789168D01*
X45150046Y-184758602D01*
X45120000Y-184733413D01*
X45101430Y-184722150D01*
X45071360Y-184706078D01*
X45029154Y-184671441D01*
X44994517Y-184629235D01*
X44973404Y-184589735D01*
X44968780Y-184581084D01*
X44952930Y-184528835D01*
X44946611Y-184464675D01*
X44946611Y-183934325D01*
X44952930Y-183870165D01*
X44968780Y-183817916D01*
X44994517Y-183769765D01*
X45029154Y-183727559D01*
X45071360Y-183692922D01*
X45080458Y-183688059D01*
X45119511Y-183667185D01*
X45171760Y-183651335D01*
X45235920Y-183645016D01*
X45766270Y-183645016D01*
X45830430Y-183651335D01*
X45830430Y-183651335D01*
G37*
G36*
X171429335Y-183611835D02*
X171481584Y-183627685D01*
X171514008Y-183645016D01*
X171529735Y-183653422D01*
X171571941Y-183688059D01*
X171604357Y-183727559D01*
X171606578Y-183730265D01*
X171632315Y-183778416D01*
X171648165Y-183830665D01*
X171654484Y-183894825D01*
X171654484Y-184425175D01*
X171648165Y-184489335D01*
X171632315Y-184541584D01*
X171611202Y-184581084D01*
X171606578Y-184589735D01*
X171571941Y-184631941D01*
X171529735Y-184666578D01*
X171500329Y-184682295D01*
X171467731Y-184704076D01*
X171440008Y-184731799D01*
X171418225Y-184764399D01*
X171403221Y-184800621D01*
X171395572Y-184839074D01*
X171395572Y-184878281D01*
X171403221Y-184916735D01*
X171418224Y-184952957D01*
X171452694Y-184999605D01*
X171531013Y-185078473D01*
X171591085Y-185168888D01*
X171632449Y-185269244D01*
X171653258Y-185374338D01*
X171653257Y-185374381D01*
X171653524Y-185375727D01*
X171651792Y-185499708D01*
X171651489Y-185501043D01*
X171651488Y-185501086D01*
X171627752Y-185605561D01*
X171583602Y-185704724D01*
X171521033Y-185793421D01*
X171442420Y-185868283D01*
X171398744Y-185896001D01*
X171367860Y-185920152D01*
X171342280Y-185949865D01*
X171322988Y-185983997D01*
X171310727Y-186021238D01*
X171305966Y-186060154D01*
X171308888Y-186099252D01*
X171319382Y-186137028D01*
X171337045Y-186172032D01*
X171361196Y-186202916D01*
X171394072Y-186230674D01*
X171454527Y-186271451D01*
X171531013Y-186348473D01*
X171591085Y-186438888D01*
X171632449Y-186539244D01*
X171653258Y-186644338D01*
X171653257Y-186644381D01*
X171653524Y-186645727D01*
X171651792Y-186769708D01*
X171651489Y-186771043D01*
X171651488Y-186771086D01*
X171627752Y-186875561D01*
X171583602Y-186974724D01*
X171521033Y-187063421D01*
X171442420Y-187138283D01*
X171398744Y-187166001D01*
X171367860Y-187190152D01*
X171342280Y-187219865D01*
X171322988Y-187253997D01*
X171310727Y-187291238D01*
X171305966Y-187330154D01*
X171308888Y-187369252D01*
X171319382Y-187407028D01*
X171337045Y-187442032D01*
X171361196Y-187472916D01*
X171394072Y-187500674D01*
X171454527Y-187541451D01*
X171531013Y-187618473D01*
X171591085Y-187708888D01*
X171632449Y-187809244D01*
X171653258Y-187914338D01*
X171653257Y-187914381D01*
X171653524Y-187915727D01*
X171651792Y-188039708D01*
X171651489Y-188041043D01*
X171651488Y-188041086D01*
X171627752Y-188145561D01*
X171583602Y-188244724D01*
X171521033Y-188333421D01*
X171442422Y-188408282D01*
X171350772Y-188466444D01*
X171249571Y-188505698D01*
X171142667Y-188524548D01*
X171034149Y-188522275D01*
X170928127Y-188498964D01*
X170828658Y-188455507D01*
X170739526Y-188393559D01*
X170664119Y-188315473D01*
X170605318Y-188224231D01*
X170565359Y-188123307D01*
X170545763Y-188016538D01*
X170547279Y-187908006D01*
X170569848Y-187801826D01*
X170612611Y-187702053D01*
X170673934Y-187612493D01*
X170751493Y-187536541D01*
X170803266Y-187502662D01*
X170833811Y-187478081D01*
X170858974Y-187448014D01*
X170877787Y-187413616D01*
X170889528Y-187376209D01*
X170893746Y-187337229D01*
X170890278Y-187298176D01*
X170879258Y-187260550D01*
X170861109Y-187225797D01*
X170836528Y-187195252D01*
X170807897Y-187171078D01*
X170739526Y-187123559D01*
X170664119Y-187045473D01*
X170605318Y-186954231D01*
X170565359Y-186853307D01*
X170545763Y-186746538D01*
X170547279Y-186638006D01*
X170569848Y-186531826D01*
X170612611Y-186432053D01*
X170673934Y-186342493D01*
X170751493Y-186266541D01*
X170803266Y-186232662D01*
X170833811Y-186208081D01*
X170858974Y-186178014D01*
X170877787Y-186143616D01*
X170889528Y-186106209D01*
X170893746Y-186067229D01*
X170890278Y-186028176D01*
X170879258Y-185990550D01*
X170861109Y-185955797D01*
X170836528Y-185925252D01*
X170807897Y-185901078D01*
X170739526Y-185853559D01*
X170664119Y-185775473D01*
X170605318Y-185684231D01*
X170565359Y-185583307D01*
X170545763Y-185476538D01*
X170547279Y-185368006D01*
X170569848Y-185261826D01*
X170612611Y-185162053D01*
X170673936Y-185072490D01*
X170745990Y-185001929D01*
X170771179Y-184971883D01*
X170790022Y-184937501D01*
X170801795Y-184900104D01*
X170806046Y-184861128D01*
X170802612Y-184822072D01*
X170791624Y-184784436D01*
X170773505Y-184749668D01*
X170748951Y-184719102D01*
X170718905Y-184693913D01*
X170700335Y-184682650D01*
X170670265Y-184666578D01*
X170628059Y-184631941D01*
X170593422Y-184589735D01*
X170588798Y-184581084D01*
X170567685Y-184541584D01*
X170551835Y-184489335D01*
X170545516Y-184425175D01*
X170545516Y-183894825D01*
X170551835Y-183830665D01*
X170567685Y-183778416D01*
X170593422Y-183730265D01*
X170595643Y-183727559D01*
X170628059Y-183688059D01*
X170670265Y-183653422D01*
X170685992Y-183645016D01*
X170718416Y-183627685D01*
X170770665Y-183611835D01*
X170834825Y-183605516D01*
X171365175Y-183605516D01*
X171429335Y-183611835D01*
X171429335Y-183611835D01*
G37*
G36*
X93071335Y-149286835D02*
X93123584Y-149302685D01*
X93161701Y-149323059D01*
X93171735Y-149328422D01*
X93213941Y-149363059D01*
X93248578Y-149405265D01*
X93274315Y-149453416D01*
X93290165Y-149505665D01*
X93296484Y-149569825D01*
X93296484Y-150100175D01*
X93290165Y-150164335D01*
X93274315Y-150216584D01*
X93269958Y-150224735D01*
X93248578Y-150264735D01*
X93213941Y-150306941D01*
X93171735Y-150341578D01*
X93142329Y-150357295D01*
X93109731Y-150379076D01*
X93082008Y-150406799D01*
X93060225Y-150439399D01*
X93045221Y-150475621D01*
X93037572Y-150514074D01*
X93037572Y-150553281D01*
X93045221Y-150591735D01*
X93060224Y-150627957D01*
X93094694Y-150674605D01*
X93173013Y-150753473D01*
X93233085Y-150843888D01*
X93274449Y-150944244D01*
X93295258Y-151049338D01*
X93295257Y-151049381D01*
X93295524Y-151050727D01*
X93293792Y-151174708D01*
X93293489Y-151176043D01*
X93293488Y-151176086D01*
X93269752Y-151280561D01*
X93225602Y-151379724D01*
X93163033Y-151468421D01*
X93084420Y-151543283D01*
X93040744Y-151571001D01*
X93009860Y-151595152D01*
X92984280Y-151624865D01*
X92964988Y-151658997D01*
X92952727Y-151696238D01*
X92947966Y-151735154D01*
X92950888Y-151774252D01*
X92961382Y-151812028D01*
X92979045Y-151847032D01*
X93003196Y-151877916D01*
X93036072Y-151905674D01*
X93096527Y-151946451D01*
X93173013Y-152023473D01*
X93233085Y-152113888D01*
X93274449Y-152214244D01*
X93295258Y-152319338D01*
X93295257Y-152319381D01*
X93295524Y-152320727D01*
X93293792Y-152444708D01*
X93293489Y-152446043D01*
X93293488Y-152446086D01*
X93269752Y-152550561D01*
X93225602Y-152649724D01*
X93163033Y-152738421D01*
X93084420Y-152813283D01*
X93040744Y-152841001D01*
X93009860Y-152865152D01*
X92984280Y-152894865D01*
X92964988Y-152928997D01*
X92952727Y-152966238D01*
X92947966Y-153005154D01*
X92950888Y-153044252D01*
X92961382Y-153082028D01*
X92979045Y-153117032D01*
X93003196Y-153147916D01*
X93036072Y-153175674D01*
X93096527Y-153216451D01*
X93173013Y-153293473D01*
X93233085Y-153383888D01*
X93274449Y-153484244D01*
X93295258Y-153589338D01*
X93295257Y-153589381D01*
X93295524Y-153590727D01*
X93293792Y-153714708D01*
X93293489Y-153716043D01*
X93293488Y-153716086D01*
X93269752Y-153820561D01*
X93225602Y-153919724D01*
X93163033Y-154008421D01*
X93084422Y-154083282D01*
X92992772Y-154141444D01*
X92891571Y-154180698D01*
X92784667Y-154199548D01*
X92676149Y-154197275D01*
X92570127Y-154173964D01*
X92470658Y-154130507D01*
X92381526Y-154068559D01*
X92306119Y-153990473D01*
X92247318Y-153899231D01*
X92207359Y-153798307D01*
X92187763Y-153691538D01*
X92189279Y-153583006D01*
X92211848Y-153476826D01*
X92254611Y-153377053D01*
X92315934Y-153287493D01*
X92393493Y-153211541D01*
X92445266Y-153177662D01*
X92475811Y-153153081D01*
X92500974Y-153123014D01*
X92519787Y-153088616D01*
X92531528Y-153051209D01*
X92535746Y-153012229D01*
X92532278Y-152973176D01*
X92521258Y-152935550D01*
X92503109Y-152900797D01*
X92478528Y-152870252D01*
X92449897Y-152846078D01*
X92381526Y-152798559D01*
X92306119Y-152720473D01*
X92247318Y-152629231D01*
X92207359Y-152528307D01*
X92187763Y-152421538D01*
X92189279Y-152313006D01*
X92211848Y-152206826D01*
X92254611Y-152107053D01*
X92315934Y-152017493D01*
X92393493Y-151941541D01*
X92445266Y-151907662D01*
X92475811Y-151883081D01*
X92500974Y-151853014D01*
X92519787Y-151818616D01*
X92531528Y-151781209D01*
X92535746Y-151742229D01*
X92532278Y-151703176D01*
X92521258Y-151665550D01*
X92503109Y-151630797D01*
X92478528Y-151600252D01*
X92449897Y-151576078D01*
X92381526Y-151528559D01*
X92306119Y-151450473D01*
X92247318Y-151359231D01*
X92207359Y-151258307D01*
X92187763Y-151151538D01*
X92189279Y-151043006D01*
X92211848Y-150936826D01*
X92254611Y-150837053D01*
X92315936Y-150747490D01*
X92387990Y-150676929D01*
X92413179Y-150646883D01*
X92432022Y-150612501D01*
X92443795Y-150575104D01*
X92448046Y-150536128D01*
X92444612Y-150497072D01*
X92433624Y-150459436D01*
X92415505Y-150424668D01*
X92390951Y-150394102D01*
X92360905Y-150368913D01*
X92342335Y-150357650D01*
X92312265Y-150341578D01*
X92270059Y-150306941D01*
X92235422Y-150264735D01*
X92214042Y-150224735D01*
X92209685Y-150216584D01*
X92193835Y-150164335D01*
X92187516Y-150100175D01*
X92187516Y-149569825D01*
X92193835Y-149505665D01*
X92209685Y-149453416D01*
X92235422Y-149405265D01*
X92270059Y-149363059D01*
X92312265Y-149328422D01*
X92322299Y-149323059D01*
X92360416Y-149302685D01*
X92412665Y-149286835D01*
X92476825Y-149280516D01*
X93007175Y-149280516D01*
X93071335Y-149286835D01*
X93071335Y-149286835D01*
G37*
G36*
X124129335Y-149246835D02*
X124181584Y-149262685D01*
X124216755Y-149281484D01*
X124229735Y-149288422D01*
X124271941Y-149323059D01*
X124304768Y-149363059D01*
X124306578Y-149365265D01*
X124332315Y-149413416D01*
X124348165Y-149465665D01*
X124354484Y-149529825D01*
X124354484Y-150060175D01*
X124348165Y-150124335D01*
X124332315Y-150176584D01*
X124310935Y-150216583D01*
X124306578Y-150224735D01*
X124271941Y-150266941D01*
X124229735Y-150301578D01*
X124200329Y-150317295D01*
X124167731Y-150339076D01*
X124140008Y-150366799D01*
X124118225Y-150399399D01*
X124103221Y-150435621D01*
X124095572Y-150474074D01*
X124095572Y-150513281D01*
X124103221Y-150551735D01*
X124118224Y-150587957D01*
X124152694Y-150634605D01*
X124231013Y-150713473D01*
X124291085Y-150803888D01*
X124332449Y-150904244D01*
X124353258Y-151009338D01*
X124353257Y-151009381D01*
X124353524Y-151010727D01*
X124351792Y-151134708D01*
X124351489Y-151136043D01*
X124351488Y-151136086D01*
X124327752Y-151240561D01*
X124283602Y-151339724D01*
X124221033Y-151428421D01*
X124142420Y-151503283D01*
X124098744Y-151531001D01*
X124067860Y-151555152D01*
X124042280Y-151584865D01*
X124022988Y-151618997D01*
X124010727Y-151656238D01*
X124005966Y-151695154D01*
X124008888Y-151734252D01*
X124019382Y-151772028D01*
X124037045Y-151807032D01*
X124061196Y-151837916D01*
X124094072Y-151865674D01*
X124154527Y-151906451D01*
X124231013Y-151983473D01*
X124291085Y-152073888D01*
X124332449Y-152174244D01*
X124353258Y-152279338D01*
X124353257Y-152279381D01*
X124353524Y-152280727D01*
X124351792Y-152404708D01*
X124351489Y-152406043D01*
X124351488Y-152406086D01*
X124327752Y-152510561D01*
X124283602Y-152609724D01*
X124221033Y-152698421D01*
X124142420Y-152773283D01*
X124098744Y-152801001D01*
X124067860Y-152825152D01*
X124042280Y-152854865D01*
X124022988Y-152888997D01*
X124010727Y-152926238D01*
X124005966Y-152965154D01*
X124008888Y-153004252D01*
X124019382Y-153042028D01*
X124037045Y-153077032D01*
X124061196Y-153107916D01*
X124094072Y-153135674D01*
X124154527Y-153176451D01*
X124231013Y-153253473D01*
X124291085Y-153343888D01*
X124332449Y-153444244D01*
X124353258Y-153549338D01*
X124353257Y-153549381D01*
X124353524Y-153550727D01*
X124351792Y-153674708D01*
X124351489Y-153676043D01*
X124351488Y-153676086D01*
X124327752Y-153780561D01*
X124283602Y-153879724D01*
X124221033Y-153968421D01*
X124142422Y-154043282D01*
X124050772Y-154101444D01*
X123949571Y-154140698D01*
X123842667Y-154159548D01*
X123734149Y-154157275D01*
X123628127Y-154133964D01*
X123528658Y-154090507D01*
X123439526Y-154028559D01*
X123364119Y-153950473D01*
X123305318Y-153859231D01*
X123265359Y-153758307D01*
X123245763Y-153651538D01*
X123247279Y-153543006D01*
X123269848Y-153436826D01*
X123312611Y-153337053D01*
X123373934Y-153247493D01*
X123451493Y-153171541D01*
X123503266Y-153137662D01*
X123533811Y-153113081D01*
X123558974Y-153083014D01*
X123577787Y-153048616D01*
X123589528Y-153011209D01*
X123593746Y-152972229D01*
X123590278Y-152933176D01*
X123579258Y-152895550D01*
X123561109Y-152860797D01*
X123536528Y-152830252D01*
X123507897Y-152806078D01*
X123439526Y-152758559D01*
X123364119Y-152680473D01*
X123305318Y-152589231D01*
X123265359Y-152488307D01*
X123245763Y-152381538D01*
X123247279Y-152273006D01*
X123269848Y-152166826D01*
X123312611Y-152067053D01*
X123373934Y-151977493D01*
X123451493Y-151901541D01*
X123503266Y-151867662D01*
X123533811Y-151843081D01*
X123558974Y-151813014D01*
X123577787Y-151778616D01*
X123589528Y-151741209D01*
X123593746Y-151702229D01*
X123590278Y-151663176D01*
X123579258Y-151625550D01*
X123561109Y-151590797D01*
X123536528Y-151560252D01*
X123507897Y-151536078D01*
X123439526Y-151488559D01*
X123364119Y-151410473D01*
X123305318Y-151319231D01*
X123265359Y-151218307D01*
X123245763Y-151111538D01*
X123247279Y-151003006D01*
X123269848Y-150896826D01*
X123312611Y-150797053D01*
X123373936Y-150707490D01*
X123445990Y-150636929D01*
X123471179Y-150606883D01*
X123490022Y-150572501D01*
X123501795Y-150535104D01*
X123506046Y-150496128D01*
X123502612Y-150457072D01*
X123491624Y-150419436D01*
X123473505Y-150384668D01*
X123448951Y-150354102D01*
X123418905Y-150328913D01*
X123400335Y-150317650D01*
X123370265Y-150301578D01*
X123328059Y-150266941D01*
X123293422Y-150224735D01*
X123289065Y-150216583D01*
X123267685Y-150176584D01*
X123251835Y-150124335D01*
X123245516Y-150060175D01*
X123245516Y-149529825D01*
X123251835Y-149465665D01*
X123267685Y-149413416D01*
X123293422Y-149365265D01*
X123295232Y-149363059D01*
X123328059Y-149323059D01*
X123370265Y-149288422D01*
X123383245Y-149281484D01*
X123418416Y-149262685D01*
X123470665Y-149246835D01*
X123534825Y-149240516D01*
X124065175Y-149240516D01*
X124129335Y-149246835D01*
X124129335Y-149246835D01*
G37*
G36*
X154142430Y-141336335D02*
X154194679Y-141352185D01*
X154242830Y-141377922D01*
X154285036Y-141412559D01*
X154319673Y-141454765D01*
X154345410Y-141502916D01*
X154361260Y-141555165D01*
X154367579Y-141619325D01*
X154367579Y-142149675D01*
X154361260Y-142213835D01*
X154345410Y-142266084D01*
X154333303Y-142288735D01*
X154319673Y-142314235D01*
X154285036Y-142356441D01*
X154242830Y-142391078D01*
X154213424Y-142406795D01*
X154180826Y-142428576D01*
X154153103Y-142456299D01*
X154131320Y-142488899D01*
X154116316Y-142525121D01*
X154108667Y-142563574D01*
X154108667Y-142602781D01*
X154116316Y-142641235D01*
X154131319Y-142677457D01*
X154165789Y-142724105D01*
X154244108Y-142802973D01*
X154304180Y-142893388D01*
X154345544Y-142993744D01*
X154366353Y-143098838D01*
X154366352Y-143098881D01*
X154366619Y-143100227D01*
X154364887Y-143224208D01*
X154364584Y-143225543D01*
X154364583Y-143225586D01*
X154340847Y-143330061D01*
X154296697Y-143429224D01*
X154234128Y-143517921D01*
X154155515Y-143592783D01*
X154111839Y-143620501D01*
X154080955Y-143644652D01*
X154055375Y-143674365D01*
X154036083Y-143708497D01*
X154023822Y-143745738D01*
X154019061Y-143784654D01*
X154021983Y-143823752D01*
X154032477Y-143861528D01*
X154050140Y-143896532D01*
X154074291Y-143927416D01*
X154107167Y-143955174D01*
X154167622Y-143995951D01*
X154244108Y-144072973D01*
X154304180Y-144163388D01*
X154345544Y-144263744D01*
X154366353Y-144368838D01*
X154366352Y-144368881D01*
X154366619Y-144370227D01*
X154364887Y-144494208D01*
X154364584Y-144495543D01*
X154364583Y-144495586D01*
X154340847Y-144600061D01*
X154296697Y-144699224D01*
X154234128Y-144787921D01*
X154155515Y-144862783D01*
X154111839Y-144890501D01*
X154080955Y-144914652D01*
X154055375Y-144944365D01*
X154036083Y-144978497D01*
X154023822Y-145015738D01*
X154019061Y-145054654D01*
X154021983Y-145093752D01*
X154032477Y-145131528D01*
X154050140Y-145166532D01*
X154074291Y-145197416D01*
X154107167Y-145225174D01*
X154167622Y-145265951D01*
X154244108Y-145342973D01*
X154304180Y-145433388D01*
X154345544Y-145533744D01*
X154366353Y-145638838D01*
X154366352Y-145638881D01*
X154366619Y-145640227D01*
X154364887Y-145764208D01*
X154364584Y-145765543D01*
X154364583Y-145765586D01*
X154340847Y-145870061D01*
X154296697Y-145969224D01*
X154234128Y-146057921D01*
X154155517Y-146132782D01*
X154063867Y-146190944D01*
X153962666Y-146230198D01*
X153855762Y-146249048D01*
X153747244Y-146246775D01*
X153641222Y-146223464D01*
X153541753Y-146180007D01*
X153452621Y-146118059D01*
X153377214Y-146039973D01*
X153318413Y-145948731D01*
X153278454Y-145847807D01*
X153258858Y-145741038D01*
X153260374Y-145632506D01*
X153282943Y-145526326D01*
X153325706Y-145426553D01*
X153387029Y-145336993D01*
X153464588Y-145261041D01*
X153516361Y-145227162D01*
X153546906Y-145202581D01*
X153572069Y-145172514D01*
X153590882Y-145138116D01*
X153602623Y-145100709D01*
X153606841Y-145061729D01*
X153603373Y-145022676D01*
X153592353Y-144985050D01*
X153574204Y-144950297D01*
X153549623Y-144919752D01*
X153520992Y-144895578D01*
X153452621Y-144848059D01*
X153377214Y-144769973D01*
X153318413Y-144678731D01*
X153278454Y-144577807D01*
X153258858Y-144471038D01*
X153260374Y-144362506D01*
X153282943Y-144256326D01*
X153325706Y-144156553D01*
X153387029Y-144066993D01*
X153464588Y-143991041D01*
X153516361Y-143957162D01*
X153546906Y-143932581D01*
X153572069Y-143902514D01*
X153590882Y-143868116D01*
X153602623Y-143830709D01*
X153606841Y-143791729D01*
X153603373Y-143752676D01*
X153592353Y-143715050D01*
X153574204Y-143680297D01*
X153549623Y-143649752D01*
X153520992Y-143625578D01*
X153452621Y-143578059D01*
X153377214Y-143499973D01*
X153318413Y-143408731D01*
X153278454Y-143307807D01*
X153258858Y-143201038D01*
X153260374Y-143092506D01*
X153282943Y-142986326D01*
X153325706Y-142886553D01*
X153387031Y-142796990D01*
X153459085Y-142726429D01*
X153484274Y-142696383D01*
X153503117Y-142662001D01*
X153514890Y-142624604D01*
X153519141Y-142585628D01*
X153515707Y-142546572D01*
X153504719Y-142508936D01*
X153486600Y-142474168D01*
X153462046Y-142443602D01*
X153432000Y-142418413D01*
X153413430Y-142407150D01*
X153383360Y-142391078D01*
X153341154Y-142356441D01*
X153306517Y-142314235D01*
X153292887Y-142288735D01*
X153280780Y-142266084D01*
X153264930Y-142213835D01*
X153258611Y-142149675D01*
X153258611Y-141619325D01*
X153264930Y-141555165D01*
X153280780Y-141502916D01*
X153306517Y-141454765D01*
X153341154Y-141412559D01*
X153383360Y-141377922D01*
X153431511Y-141352185D01*
X153483760Y-141336335D01*
X153547920Y-141330016D01*
X154078270Y-141330016D01*
X154142430Y-141336335D01*
X154142430Y-141336335D01*
G37*
G36*
X63010430Y-141310835D02*
X63062679Y-141326685D01*
X63110387Y-141352185D01*
X63110830Y-141352422D01*
X63153036Y-141387059D01*
X63187673Y-141429265D01*
X63213410Y-141477416D01*
X63229260Y-141529665D01*
X63235579Y-141593825D01*
X63235579Y-142124175D01*
X63229260Y-142188335D01*
X63213410Y-142240584D01*
X63199780Y-142266084D01*
X63187673Y-142288735D01*
X63153036Y-142330941D01*
X63110830Y-142365578D01*
X63081424Y-142381295D01*
X63048826Y-142403076D01*
X63021103Y-142430799D01*
X62999320Y-142463399D01*
X62984316Y-142499621D01*
X62976667Y-142538074D01*
X62976667Y-142577281D01*
X62984316Y-142615735D01*
X62999319Y-142651957D01*
X63033789Y-142698605D01*
X63112108Y-142777473D01*
X63172180Y-142867888D01*
X63213544Y-142968244D01*
X63234353Y-143073338D01*
X63234352Y-143073381D01*
X63234619Y-143074727D01*
X63232887Y-143198708D01*
X63232584Y-143200043D01*
X63232583Y-143200086D01*
X63208847Y-143304561D01*
X63164697Y-143403724D01*
X63102128Y-143492421D01*
X63023515Y-143567283D01*
X62979839Y-143595001D01*
X62948955Y-143619152D01*
X62923375Y-143648865D01*
X62904083Y-143682997D01*
X62891822Y-143720238D01*
X62887061Y-143759154D01*
X62889983Y-143798252D01*
X62900477Y-143836028D01*
X62918140Y-143871032D01*
X62942291Y-143901916D01*
X62975167Y-143929674D01*
X63035622Y-143970451D01*
X63112108Y-144047473D01*
X63172180Y-144137888D01*
X63213544Y-144238244D01*
X63234353Y-144343338D01*
X63234352Y-144343381D01*
X63234619Y-144344727D01*
X63232887Y-144468708D01*
X63232584Y-144470043D01*
X63232583Y-144470086D01*
X63208847Y-144574561D01*
X63164697Y-144673724D01*
X63102128Y-144762421D01*
X63023515Y-144837283D01*
X62979839Y-144865001D01*
X62948955Y-144889152D01*
X62923375Y-144918865D01*
X62904083Y-144952997D01*
X62891822Y-144990238D01*
X62887061Y-145029154D01*
X62889983Y-145068252D01*
X62900477Y-145106028D01*
X62918140Y-145141032D01*
X62942291Y-145171916D01*
X62975167Y-145199674D01*
X63035622Y-145240451D01*
X63112108Y-145317473D01*
X63172180Y-145407888D01*
X63213544Y-145508244D01*
X63234353Y-145613338D01*
X63234352Y-145613381D01*
X63234619Y-145614727D01*
X63232887Y-145738708D01*
X63232584Y-145740043D01*
X63232583Y-145740086D01*
X63208847Y-145844561D01*
X63164697Y-145943724D01*
X63102128Y-146032421D01*
X63023517Y-146107282D01*
X62931867Y-146165444D01*
X62830666Y-146204698D01*
X62723762Y-146223548D01*
X62615244Y-146221275D01*
X62509222Y-146197964D01*
X62409753Y-146154507D01*
X62320621Y-146092559D01*
X62245214Y-146014473D01*
X62186413Y-145923231D01*
X62146454Y-145822307D01*
X62126858Y-145715538D01*
X62128374Y-145607006D01*
X62150943Y-145500826D01*
X62193706Y-145401053D01*
X62255029Y-145311493D01*
X62332588Y-145235541D01*
X62384361Y-145201662D01*
X62414906Y-145177081D01*
X62440069Y-145147014D01*
X62458882Y-145112616D01*
X62470623Y-145075209D01*
X62474841Y-145036229D01*
X62471373Y-144997176D01*
X62460353Y-144959550D01*
X62442204Y-144924797D01*
X62417623Y-144894252D01*
X62388992Y-144870078D01*
X62320621Y-144822559D01*
X62245214Y-144744473D01*
X62186413Y-144653231D01*
X62146454Y-144552307D01*
X62126858Y-144445538D01*
X62128374Y-144337006D01*
X62150943Y-144230826D01*
X62193706Y-144131053D01*
X62255029Y-144041493D01*
X62332588Y-143965541D01*
X62384361Y-143931662D01*
X62414906Y-143907081D01*
X62440069Y-143877014D01*
X62458882Y-143842616D01*
X62470623Y-143805209D01*
X62474841Y-143766229D01*
X62471373Y-143727176D01*
X62460353Y-143689550D01*
X62442204Y-143654797D01*
X62417623Y-143624252D01*
X62388992Y-143600078D01*
X62320621Y-143552559D01*
X62245214Y-143474473D01*
X62186413Y-143383231D01*
X62146454Y-143282307D01*
X62126858Y-143175538D01*
X62128374Y-143067006D01*
X62150943Y-142960826D01*
X62193706Y-142861053D01*
X62255031Y-142771490D01*
X62327085Y-142700929D01*
X62352274Y-142670883D01*
X62371117Y-142636501D01*
X62382890Y-142599104D01*
X62387141Y-142560128D01*
X62383707Y-142521072D01*
X62372719Y-142483436D01*
X62354600Y-142448668D01*
X62330046Y-142418102D01*
X62300000Y-142392913D01*
X62281430Y-142381650D01*
X62251360Y-142365578D01*
X62209154Y-142330941D01*
X62174517Y-142288735D01*
X62162410Y-142266084D01*
X62148780Y-142240584D01*
X62132930Y-142188335D01*
X62126611Y-142124175D01*
X62126611Y-141593825D01*
X62132930Y-141529665D01*
X62148780Y-141477416D01*
X62174517Y-141429265D01*
X62209154Y-141387059D01*
X62251360Y-141352422D01*
X62251803Y-141352185D01*
X62299511Y-141326685D01*
X62351760Y-141310835D01*
X62415920Y-141304516D01*
X62946270Y-141304516D01*
X63010430Y-141310835D01*
X63010430Y-141310835D01*
G37*
G36*
X108629335Y-109146835D02*
X108681584Y-109162685D01*
X108729735Y-109188422D01*
X108771941Y-109223059D01*
X108806578Y-109265265D01*
X108832315Y-109313416D01*
X108848165Y-109365665D01*
X108854484Y-109429825D01*
X108854484Y-109960175D01*
X108848165Y-110024335D01*
X108832315Y-110076584D01*
X108806578Y-110124735D01*
X108771941Y-110166941D01*
X108729735Y-110201578D01*
X108700329Y-110217295D01*
X108667731Y-110239076D01*
X108640008Y-110266799D01*
X108618225Y-110299399D01*
X108603221Y-110335621D01*
X108595572Y-110374074D01*
X108595572Y-110413281D01*
X108603221Y-110451735D01*
X108618224Y-110487957D01*
X108652694Y-110534605D01*
X108731013Y-110613473D01*
X108791085Y-110703888D01*
X108832449Y-110804244D01*
X108853258Y-110909338D01*
X108853257Y-110909381D01*
X108853524Y-110910727D01*
X108851792Y-111034708D01*
X108851489Y-111036043D01*
X108851488Y-111036086D01*
X108827752Y-111140561D01*
X108783602Y-111239724D01*
X108721033Y-111328421D01*
X108642420Y-111403283D01*
X108598744Y-111431001D01*
X108567860Y-111455152D01*
X108542280Y-111484865D01*
X108522988Y-111518997D01*
X108510727Y-111556238D01*
X108505966Y-111595154D01*
X108508888Y-111634252D01*
X108519382Y-111672028D01*
X108537045Y-111707032D01*
X108561196Y-111737916D01*
X108594072Y-111765674D01*
X108654527Y-111806451D01*
X108731013Y-111883473D01*
X108791085Y-111973888D01*
X108832449Y-112074244D01*
X108853258Y-112179338D01*
X108853257Y-112179381D01*
X108853524Y-112180727D01*
X108851792Y-112304708D01*
X108851489Y-112306043D01*
X108851488Y-112306086D01*
X108827752Y-112410561D01*
X108783602Y-112509724D01*
X108721033Y-112598421D01*
X108642420Y-112673283D01*
X108598744Y-112701001D01*
X108567860Y-112725152D01*
X108542280Y-112754865D01*
X108522988Y-112788997D01*
X108510727Y-112826238D01*
X108505966Y-112865154D01*
X108508888Y-112904252D01*
X108519382Y-112942028D01*
X108537045Y-112977032D01*
X108561196Y-113007916D01*
X108594072Y-113035674D01*
X108654527Y-113076451D01*
X108731013Y-113153473D01*
X108791085Y-113243888D01*
X108832449Y-113344244D01*
X108853258Y-113449338D01*
X108853257Y-113449381D01*
X108853524Y-113450727D01*
X108851792Y-113574708D01*
X108851489Y-113576043D01*
X108851488Y-113576086D01*
X108827752Y-113680561D01*
X108783602Y-113779724D01*
X108721033Y-113868421D01*
X108642422Y-113943282D01*
X108550772Y-114001444D01*
X108449571Y-114040698D01*
X108342667Y-114059548D01*
X108234149Y-114057275D01*
X108128127Y-114033964D01*
X108028658Y-113990507D01*
X107939526Y-113928559D01*
X107864119Y-113850473D01*
X107805318Y-113759231D01*
X107765359Y-113658307D01*
X107745763Y-113551538D01*
X107747279Y-113443006D01*
X107769848Y-113336826D01*
X107812611Y-113237053D01*
X107873934Y-113147493D01*
X107951493Y-113071541D01*
X108003266Y-113037662D01*
X108033811Y-113013081D01*
X108058974Y-112983014D01*
X108077787Y-112948616D01*
X108089528Y-112911209D01*
X108093746Y-112872229D01*
X108090278Y-112833176D01*
X108079258Y-112795550D01*
X108061109Y-112760797D01*
X108036528Y-112730252D01*
X108007897Y-112706078D01*
X107939526Y-112658559D01*
X107864119Y-112580473D01*
X107805318Y-112489231D01*
X107765359Y-112388307D01*
X107745763Y-112281538D01*
X107747279Y-112173006D01*
X107769848Y-112066826D01*
X107812611Y-111967053D01*
X107873934Y-111877493D01*
X107951493Y-111801541D01*
X108003266Y-111767662D01*
X108033811Y-111743081D01*
X108058974Y-111713014D01*
X108077787Y-111678616D01*
X108089528Y-111641209D01*
X108093746Y-111602229D01*
X108090278Y-111563176D01*
X108079258Y-111525550D01*
X108061109Y-111490797D01*
X108036528Y-111460252D01*
X108007897Y-111436078D01*
X107939526Y-111388559D01*
X107864119Y-111310473D01*
X107805318Y-111219231D01*
X107765359Y-111118307D01*
X107745763Y-111011538D01*
X107747279Y-110903006D01*
X107769848Y-110796826D01*
X107812611Y-110697053D01*
X107873936Y-110607490D01*
X107945990Y-110536929D01*
X107971179Y-110506883D01*
X107990022Y-110472501D01*
X108001795Y-110435104D01*
X108006046Y-110396128D01*
X108002612Y-110357072D01*
X107991624Y-110319436D01*
X107973505Y-110284668D01*
X107948951Y-110254102D01*
X107918905Y-110228913D01*
X107900335Y-110217650D01*
X107870265Y-110201578D01*
X107828059Y-110166941D01*
X107793422Y-110124735D01*
X107767685Y-110076584D01*
X107751835Y-110024335D01*
X107745516Y-109960175D01*
X107745516Y-109429825D01*
X107751835Y-109365665D01*
X107767685Y-109313416D01*
X107793422Y-109265265D01*
X107828059Y-109223059D01*
X107870265Y-109188422D01*
X107918416Y-109162685D01*
X107970665Y-109146835D01*
X108034825Y-109140516D01*
X108565175Y-109140516D01*
X108629335Y-109146835D01*
X108629335Y-109146835D01*
G37*
G36*
X138629335Y-103246835D02*
X138681584Y-103262685D01*
X138727185Y-103287059D01*
X138729735Y-103288422D01*
X138771941Y-103323059D01*
X138806578Y-103365265D01*
X138832315Y-103413416D01*
X138848165Y-103465665D01*
X138854484Y-103529825D01*
X138854484Y-104060175D01*
X138848165Y-104124335D01*
X138832315Y-104176584D01*
X138825820Y-104188735D01*
X138806578Y-104224735D01*
X138771941Y-104266941D01*
X138729735Y-104301578D01*
X138700329Y-104317295D01*
X138667731Y-104339076D01*
X138640008Y-104366799D01*
X138618225Y-104399399D01*
X138603221Y-104435621D01*
X138595572Y-104474074D01*
X138595572Y-104513281D01*
X138603221Y-104551735D01*
X138618224Y-104587957D01*
X138652694Y-104634605D01*
X138731013Y-104713473D01*
X138791085Y-104803888D01*
X138832449Y-104904244D01*
X138853258Y-105009338D01*
X138853257Y-105009381D01*
X138853524Y-105010727D01*
X138851792Y-105134708D01*
X138851489Y-105136043D01*
X138851488Y-105136086D01*
X138827752Y-105240561D01*
X138783602Y-105339724D01*
X138721033Y-105428421D01*
X138642420Y-105503283D01*
X138598744Y-105531001D01*
X138567860Y-105555152D01*
X138542280Y-105584865D01*
X138522988Y-105618997D01*
X138510727Y-105656238D01*
X138505966Y-105695154D01*
X138508888Y-105734252D01*
X138519382Y-105772028D01*
X138537045Y-105807032D01*
X138561196Y-105837916D01*
X138594072Y-105865674D01*
X138654527Y-105906451D01*
X138731013Y-105983473D01*
X138791085Y-106073888D01*
X138832449Y-106174244D01*
X138853258Y-106279338D01*
X138853257Y-106279381D01*
X138853524Y-106280727D01*
X138851792Y-106404708D01*
X138851489Y-106406043D01*
X138851488Y-106406086D01*
X138827752Y-106510561D01*
X138783602Y-106609724D01*
X138721033Y-106698421D01*
X138642420Y-106773283D01*
X138598744Y-106801001D01*
X138567860Y-106825152D01*
X138542280Y-106854865D01*
X138522988Y-106888997D01*
X138510727Y-106926238D01*
X138505966Y-106965154D01*
X138508888Y-107004252D01*
X138519382Y-107042028D01*
X138537045Y-107077032D01*
X138561196Y-107107916D01*
X138594072Y-107135674D01*
X138654527Y-107176451D01*
X138731013Y-107253473D01*
X138791085Y-107343888D01*
X138832449Y-107444244D01*
X138853258Y-107549338D01*
X138853257Y-107549381D01*
X138853524Y-107550727D01*
X138851792Y-107674708D01*
X138851489Y-107676043D01*
X138851488Y-107676086D01*
X138827752Y-107780561D01*
X138783602Y-107879724D01*
X138721033Y-107968421D01*
X138642422Y-108043282D01*
X138550772Y-108101444D01*
X138449571Y-108140698D01*
X138342667Y-108159548D01*
X138234149Y-108157275D01*
X138128127Y-108133964D01*
X138028658Y-108090507D01*
X137939526Y-108028559D01*
X137864119Y-107950473D01*
X137805318Y-107859231D01*
X137765359Y-107758307D01*
X137745763Y-107651538D01*
X137747279Y-107543006D01*
X137769848Y-107436826D01*
X137812611Y-107337053D01*
X137873934Y-107247493D01*
X137951493Y-107171541D01*
X138003266Y-107137662D01*
X138033811Y-107113081D01*
X138058974Y-107083014D01*
X138077787Y-107048616D01*
X138089528Y-107011209D01*
X138093746Y-106972229D01*
X138090278Y-106933176D01*
X138079258Y-106895550D01*
X138061109Y-106860797D01*
X138036528Y-106830252D01*
X138007897Y-106806078D01*
X137939526Y-106758559D01*
X137864119Y-106680473D01*
X137805318Y-106589231D01*
X137765359Y-106488307D01*
X137745763Y-106381538D01*
X137747279Y-106273006D01*
X137769848Y-106166826D01*
X137812611Y-106067053D01*
X137873934Y-105977493D01*
X137951493Y-105901541D01*
X138003266Y-105867662D01*
X138033811Y-105843081D01*
X138058974Y-105813014D01*
X138077787Y-105778616D01*
X138089528Y-105741209D01*
X138093746Y-105702229D01*
X138090278Y-105663176D01*
X138079258Y-105625550D01*
X138061109Y-105590797D01*
X138036528Y-105560252D01*
X138007897Y-105536078D01*
X137939526Y-105488559D01*
X137864119Y-105410473D01*
X137805318Y-105319231D01*
X137765359Y-105218307D01*
X137745763Y-105111538D01*
X137747279Y-105003006D01*
X137769848Y-104896826D01*
X137812611Y-104797053D01*
X137873936Y-104707490D01*
X137945990Y-104636929D01*
X137971179Y-104606883D01*
X137990022Y-104572501D01*
X138001795Y-104535104D01*
X138006046Y-104496128D01*
X138002612Y-104457072D01*
X137991624Y-104419436D01*
X137973505Y-104384668D01*
X137948951Y-104354102D01*
X137918905Y-104328913D01*
X137900335Y-104317650D01*
X137870265Y-104301578D01*
X137828059Y-104266941D01*
X137793422Y-104224735D01*
X137774180Y-104188735D01*
X137767685Y-104176584D01*
X137751835Y-104124335D01*
X137745516Y-104060175D01*
X137745516Y-103529825D01*
X137751835Y-103465665D01*
X137767685Y-103413416D01*
X137793422Y-103365265D01*
X137828059Y-103323059D01*
X137870265Y-103288422D01*
X137872815Y-103287059D01*
X137918416Y-103262685D01*
X137970665Y-103246835D01*
X138034825Y-103240516D01*
X138565175Y-103240516D01*
X138629335Y-103246835D01*
X138629335Y-103246835D01*
G37*
G36*
X78529335Y-103210835D02*
X78581584Y-103226685D01*
X78607460Y-103240516D01*
X78629735Y-103252422D01*
X78671941Y-103287059D01*
X78701485Y-103323059D01*
X78706578Y-103329265D01*
X78732315Y-103377416D01*
X78748165Y-103429665D01*
X78754484Y-103493825D01*
X78754484Y-104024175D01*
X78748165Y-104088335D01*
X78732315Y-104140584D01*
X78713073Y-104176583D01*
X78706578Y-104188735D01*
X78671941Y-104230941D01*
X78629735Y-104265578D01*
X78600329Y-104281295D01*
X78567731Y-104303076D01*
X78540008Y-104330799D01*
X78518225Y-104363399D01*
X78503221Y-104399621D01*
X78495572Y-104438074D01*
X78495572Y-104477281D01*
X78503221Y-104515735D01*
X78518224Y-104551957D01*
X78552694Y-104598605D01*
X78631013Y-104677473D01*
X78691085Y-104767888D01*
X78732449Y-104868244D01*
X78753258Y-104973338D01*
X78753257Y-104973381D01*
X78753524Y-104974727D01*
X78751792Y-105098708D01*
X78751489Y-105100043D01*
X78751488Y-105100086D01*
X78727752Y-105204561D01*
X78683602Y-105303724D01*
X78621033Y-105392421D01*
X78542420Y-105467283D01*
X78498744Y-105495001D01*
X78467860Y-105519152D01*
X78442280Y-105548865D01*
X78422988Y-105582997D01*
X78410727Y-105620238D01*
X78405966Y-105659154D01*
X78408888Y-105698252D01*
X78419382Y-105736028D01*
X78437045Y-105771032D01*
X78461196Y-105801916D01*
X78494072Y-105829674D01*
X78554527Y-105870451D01*
X78631013Y-105947473D01*
X78691085Y-106037888D01*
X78732449Y-106138244D01*
X78753258Y-106243338D01*
X78753257Y-106243381D01*
X78753524Y-106244727D01*
X78751792Y-106368708D01*
X78751489Y-106370043D01*
X78751488Y-106370086D01*
X78727752Y-106474561D01*
X78683602Y-106573724D01*
X78621033Y-106662421D01*
X78542420Y-106737283D01*
X78498744Y-106765001D01*
X78467860Y-106789152D01*
X78442280Y-106818865D01*
X78422988Y-106852997D01*
X78410727Y-106890238D01*
X78405966Y-106929154D01*
X78408888Y-106968252D01*
X78419382Y-107006028D01*
X78437045Y-107041032D01*
X78461196Y-107071916D01*
X78494072Y-107099674D01*
X78554527Y-107140451D01*
X78631013Y-107217473D01*
X78691085Y-107307888D01*
X78732449Y-107408244D01*
X78753258Y-107513338D01*
X78753257Y-107513381D01*
X78753524Y-107514727D01*
X78751792Y-107638708D01*
X78751489Y-107640043D01*
X78751488Y-107640086D01*
X78727752Y-107744561D01*
X78683602Y-107843724D01*
X78621033Y-107932421D01*
X78542422Y-108007282D01*
X78450772Y-108065444D01*
X78349571Y-108104698D01*
X78242667Y-108123548D01*
X78134149Y-108121275D01*
X78028127Y-108097964D01*
X77928658Y-108054507D01*
X77839526Y-107992559D01*
X77764119Y-107914473D01*
X77705318Y-107823231D01*
X77665359Y-107722307D01*
X77645763Y-107615538D01*
X77647279Y-107507006D01*
X77669848Y-107400826D01*
X77712611Y-107301053D01*
X77773934Y-107211493D01*
X77851493Y-107135541D01*
X77903266Y-107101662D01*
X77933811Y-107077081D01*
X77958974Y-107047014D01*
X77977787Y-107012616D01*
X77989528Y-106975209D01*
X77993746Y-106936229D01*
X77990278Y-106897176D01*
X77979258Y-106859550D01*
X77961109Y-106824797D01*
X77936528Y-106794252D01*
X77907897Y-106770078D01*
X77839526Y-106722559D01*
X77764119Y-106644473D01*
X77705318Y-106553231D01*
X77665359Y-106452307D01*
X77645763Y-106345538D01*
X77647279Y-106237006D01*
X77669848Y-106130826D01*
X77712611Y-106031053D01*
X77773934Y-105941493D01*
X77851493Y-105865541D01*
X77903266Y-105831662D01*
X77933811Y-105807081D01*
X77958974Y-105777014D01*
X77977787Y-105742616D01*
X77989528Y-105705209D01*
X77993746Y-105666229D01*
X77990278Y-105627176D01*
X77979258Y-105589550D01*
X77961109Y-105554797D01*
X77936528Y-105524252D01*
X77907897Y-105500078D01*
X77839526Y-105452559D01*
X77764119Y-105374473D01*
X77705318Y-105283231D01*
X77665359Y-105182307D01*
X77645763Y-105075538D01*
X77647279Y-104967006D01*
X77669848Y-104860826D01*
X77712611Y-104761053D01*
X77773936Y-104671490D01*
X77845990Y-104600929D01*
X77871179Y-104570883D01*
X77890022Y-104536501D01*
X77901795Y-104499104D01*
X77906046Y-104460128D01*
X77902612Y-104421072D01*
X77891624Y-104383436D01*
X77873505Y-104348668D01*
X77848951Y-104318102D01*
X77818905Y-104292913D01*
X77800335Y-104281650D01*
X77770265Y-104265578D01*
X77728059Y-104230941D01*
X77693422Y-104188735D01*
X77686927Y-104176583D01*
X77667685Y-104140584D01*
X77651835Y-104088335D01*
X77645516Y-104024175D01*
X77645516Y-103493825D01*
X77651835Y-103429665D01*
X77667685Y-103377416D01*
X77693422Y-103329265D01*
X77698515Y-103323059D01*
X77728059Y-103287059D01*
X77770265Y-103252422D01*
X77792540Y-103240516D01*
X77818416Y-103226685D01*
X77870665Y-103210835D01*
X77934825Y-103204516D01*
X78465175Y-103204516D01*
X78529335Y-103210835D01*
X78529335Y-103210835D01*
G37*
G36*
X122729335Y-64067335D02*
X122781584Y-64083185D01*
X122829735Y-64108922D01*
X122871941Y-64143559D01*
X122906578Y-64185765D01*
X122932315Y-64233916D01*
X122948165Y-64286165D01*
X122954484Y-64350325D01*
X122954484Y-64880675D01*
X122948165Y-64944835D01*
X122932315Y-64997084D01*
X122917535Y-65024735D01*
X122906578Y-65045235D01*
X122871941Y-65087441D01*
X122829735Y-65122078D01*
X122800329Y-65137795D01*
X122767731Y-65159576D01*
X122740008Y-65187299D01*
X122718225Y-65219899D01*
X122703221Y-65256121D01*
X122695572Y-65294574D01*
X122695572Y-65333781D01*
X122703221Y-65372235D01*
X122718224Y-65408457D01*
X122752694Y-65455105D01*
X122831013Y-65533973D01*
X122891085Y-65624388D01*
X122932449Y-65724744D01*
X122953258Y-65829838D01*
X122953257Y-65829881D01*
X122953524Y-65831227D01*
X122951792Y-65955208D01*
X122951489Y-65956543D01*
X122951488Y-65956586D01*
X122927752Y-66061061D01*
X122883602Y-66160224D01*
X122821033Y-66248921D01*
X122742420Y-66323783D01*
X122698744Y-66351501D01*
X122667860Y-66375652D01*
X122642280Y-66405365D01*
X122622988Y-66439497D01*
X122610727Y-66476738D01*
X122605966Y-66515654D01*
X122608888Y-66554752D01*
X122619382Y-66592528D01*
X122637045Y-66627532D01*
X122661196Y-66658416D01*
X122694072Y-66686174D01*
X122754527Y-66726951D01*
X122831013Y-66803973D01*
X122891085Y-66894388D01*
X122932449Y-66994744D01*
X122953258Y-67099838D01*
X122953257Y-67099881D01*
X122953524Y-67101227D01*
X122951792Y-67225208D01*
X122951489Y-67226543D01*
X122951488Y-67226586D01*
X122927752Y-67331061D01*
X122883602Y-67430224D01*
X122821033Y-67518921D01*
X122742420Y-67593783D01*
X122698744Y-67621501D01*
X122667860Y-67645652D01*
X122642280Y-67675365D01*
X122622988Y-67709497D01*
X122610727Y-67746738D01*
X122605966Y-67785654D01*
X122608888Y-67824752D01*
X122619382Y-67862528D01*
X122637045Y-67897532D01*
X122661196Y-67928416D01*
X122694072Y-67956174D01*
X122754527Y-67996951D01*
X122831013Y-68073973D01*
X122891085Y-68164388D01*
X122932449Y-68264744D01*
X122953258Y-68369838D01*
X122953257Y-68369881D01*
X122953524Y-68371227D01*
X122951792Y-68495208D01*
X122951489Y-68496543D01*
X122951488Y-68496586D01*
X122927752Y-68601061D01*
X122883602Y-68700224D01*
X122821033Y-68788921D01*
X122742422Y-68863782D01*
X122650772Y-68921944D01*
X122549571Y-68961198D01*
X122442667Y-68980048D01*
X122334149Y-68977775D01*
X122228127Y-68954464D01*
X122128658Y-68911007D01*
X122039526Y-68849059D01*
X121964119Y-68770973D01*
X121905318Y-68679731D01*
X121865359Y-68578807D01*
X121845763Y-68472038D01*
X121847279Y-68363506D01*
X121869848Y-68257326D01*
X121912611Y-68157553D01*
X121973934Y-68067993D01*
X122051493Y-67992041D01*
X122103266Y-67958162D01*
X122133811Y-67933581D01*
X122158974Y-67903514D01*
X122177787Y-67869116D01*
X122189528Y-67831709D01*
X122193746Y-67792729D01*
X122190278Y-67753676D01*
X122179258Y-67716050D01*
X122161109Y-67681297D01*
X122136528Y-67650752D01*
X122107897Y-67626578D01*
X122039526Y-67579059D01*
X121964119Y-67500973D01*
X121905318Y-67409731D01*
X121865359Y-67308807D01*
X121845763Y-67202038D01*
X121847279Y-67093506D01*
X121869848Y-66987326D01*
X121912611Y-66887553D01*
X121973934Y-66797993D01*
X122051493Y-66722041D01*
X122103266Y-66688162D01*
X122133811Y-66663581D01*
X122158974Y-66633514D01*
X122177787Y-66599116D01*
X122189528Y-66561709D01*
X122193746Y-66522729D01*
X122190278Y-66483676D01*
X122179258Y-66446050D01*
X122161109Y-66411297D01*
X122136528Y-66380752D01*
X122107897Y-66356578D01*
X122039526Y-66309059D01*
X121964119Y-66230973D01*
X121905318Y-66139731D01*
X121865359Y-66038807D01*
X121845763Y-65932038D01*
X121847279Y-65823506D01*
X121869848Y-65717326D01*
X121912611Y-65617553D01*
X121973936Y-65527990D01*
X122045990Y-65457429D01*
X122071179Y-65427383D01*
X122090022Y-65393001D01*
X122101795Y-65355604D01*
X122106046Y-65316628D01*
X122102612Y-65277572D01*
X122091624Y-65239936D01*
X122073505Y-65205168D01*
X122048951Y-65174602D01*
X122018905Y-65149413D01*
X122000335Y-65138150D01*
X121970265Y-65122078D01*
X121928059Y-65087441D01*
X121893422Y-65045235D01*
X121882465Y-65024735D01*
X121867685Y-64997084D01*
X121851835Y-64944835D01*
X121845516Y-64880675D01*
X121845516Y-64350325D01*
X121851835Y-64286165D01*
X121867685Y-64233916D01*
X121893422Y-64185765D01*
X121928059Y-64143559D01*
X121970265Y-64108922D01*
X122018416Y-64083185D01*
X122070665Y-64067335D01*
X122134825Y-64061016D01*
X122665175Y-64061016D01*
X122729335Y-64067335D01*
X122729335Y-64067335D01*
G37*
G36*
X94429335Y-64046835D02*
X94481584Y-64062685D01*
X94490285Y-64067336D01*
X94529735Y-64088422D01*
X94571941Y-64123059D01*
X94588765Y-64143560D01*
X94606578Y-64165265D01*
X94632315Y-64213416D01*
X94648165Y-64265665D01*
X94654484Y-64329825D01*
X94654484Y-64860175D01*
X94648165Y-64924335D01*
X94632315Y-64976584D01*
X94606578Y-65024735D01*
X94571941Y-65066941D01*
X94529735Y-65101578D01*
X94500329Y-65117295D01*
X94467731Y-65139076D01*
X94440008Y-65166799D01*
X94418225Y-65199399D01*
X94403221Y-65235621D01*
X94395572Y-65274074D01*
X94395572Y-65313281D01*
X94403221Y-65351735D01*
X94418224Y-65387957D01*
X94452694Y-65434605D01*
X94531013Y-65513473D01*
X94591085Y-65603888D01*
X94632449Y-65704244D01*
X94653258Y-65809338D01*
X94653257Y-65809381D01*
X94653524Y-65810727D01*
X94651792Y-65934708D01*
X94651489Y-65936043D01*
X94651488Y-65936086D01*
X94627752Y-66040561D01*
X94583602Y-66139724D01*
X94521033Y-66228421D01*
X94442420Y-66303283D01*
X94398744Y-66331001D01*
X94367860Y-66355152D01*
X94342280Y-66384865D01*
X94322988Y-66418997D01*
X94310727Y-66456238D01*
X94305966Y-66495154D01*
X94308888Y-66534252D01*
X94319382Y-66572028D01*
X94337045Y-66607032D01*
X94361196Y-66637916D01*
X94394072Y-66665674D01*
X94454527Y-66706451D01*
X94531013Y-66783473D01*
X94591085Y-66873888D01*
X94632449Y-66974244D01*
X94653258Y-67079338D01*
X94653257Y-67079381D01*
X94653524Y-67080727D01*
X94651792Y-67204708D01*
X94651489Y-67206043D01*
X94651488Y-67206086D01*
X94627752Y-67310561D01*
X94583602Y-67409724D01*
X94521033Y-67498421D01*
X94442420Y-67573283D01*
X94398744Y-67601001D01*
X94367860Y-67625152D01*
X94342280Y-67654865D01*
X94322988Y-67688997D01*
X94310727Y-67726238D01*
X94305966Y-67765154D01*
X94308888Y-67804252D01*
X94319382Y-67842028D01*
X94337045Y-67877032D01*
X94361196Y-67907916D01*
X94394072Y-67935674D01*
X94454527Y-67976451D01*
X94531013Y-68053473D01*
X94591085Y-68143888D01*
X94632449Y-68244244D01*
X94653258Y-68349338D01*
X94653257Y-68349381D01*
X94653524Y-68350727D01*
X94651792Y-68474708D01*
X94651489Y-68476043D01*
X94651488Y-68476086D01*
X94627752Y-68580561D01*
X94583602Y-68679724D01*
X94521033Y-68768421D01*
X94442422Y-68843282D01*
X94350772Y-68901444D01*
X94249571Y-68940698D01*
X94142667Y-68959548D01*
X94034149Y-68957275D01*
X93928127Y-68933964D01*
X93828658Y-68890507D01*
X93739526Y-68828559D01*
X93664119Y-68750473D01*
X93605318Y-68659231D01*
X93565359Y-68558307D01*
X93545763Y-68451538D01*
X93547279Y-68343006D01*
X93569848Y-68236826D01*
X93612611Y-68137053D01*
X93673934Y-68047493D01*
X93751493Y-67971541D01*
X93803266Y-67937662D01*
X93833811Y-67913081D01*
X93858974Y-67883014D01*
X93877787Y-67848616D01*
X93889528Y-67811209D01*
X93893746Y-67772229D01*
X93890278Y-67733176D01*
X93879258Y-67695550D01*
X93861109Y-67660797D01*
X93836528Y-67630252D01*
X93807897Y-67606078D01*
X93739526Y-67558559D01*
X93664119Y-67480473D01*
X93605318Y-67389231D01*
X93565359Y-67288307D01*
X93545763Y-67181538D01*
X93547279Y-67073006D01*
X93569848Y-66966826D01*
X93612611Y-66867053D01*
X93673934Y-66777493D01*
X93751493Y-66701541D01*
X93803266Y-66667662D01*
X93833811Y-66643081D01*
X93858974Y-66613014D01*
X93877787Y-66578616D01*
X93889528Y-66541209D01*
X93893746Y-66502229D01*
X93890278Y-66463176D01*
X93879258Y-66425550D01*
X93861109Y-66390797D01*
X93836528Y-66360252D01*
X93807897Y-66336078D01*
X93739526Y-66288559D01*
X93664119Y-66210473D01*
X93605318Y-66119231D01*
X93565359Y-66018307D01*
X93545763Y-65911538D01*
X93547279Y-65803006D01*
X93569848Y-65696826D01*
X93612611Y-65597053D01*
X93673936Y-65507490D01*
X93745990Y-65436929D01*
X93771179Y-65406883D01*
X93790022Y-65372501D01*
X93801795Y-65335104D01*
X93806046Y-65296128D01*
X93802612Y-65257072D01*
X93791624Y-65219436D01*
X93773505Y-65184668D01*
X93748951Y-65154102D01*
X93718905Y-65128913D01*
X93700335Y-65117650D01*
X93670265Y-65101578D01*
X93628059Y-65066941D01*
X93593422Y-65024735D01*
X93567685Y-64976584D01*
X93551835Y-64924335D01*
X93545516Y-64860175D01*
X93545516Y-64329825D01*
X93551835Y-64265665D01*
X93567685Y-64213416D01*
X93593422Y-64165265D01*
X93611235Y-64143560D01*
X93628059Y-64123059D01*
X93670265Y-64088422D01*
X93709715Y-64067336D01*
X93718416Y-64062685D01*
X93770665Y-64046835D01*
X93834825Y-64040516D01*
X94365175Y-64040516D01*
X94429335Y-64046835D01*
X94429335Y-64046835D01*
G37*
G36*
X108629335Y-29292335D02*
X108681584Y-29308185D01*
X108729735Y-29333922D01*
X108771941Y-29368559D01*
X108806578Y-29410765D01*
X108832315Y-29458916D01*
X108848165Y-29511165D01*
X108854484Y-29575325D01*
X108854484Y-30105675D01*
X108848165Y-30169835D01*
X108832315Y-30222084D01*
X108806578Y-30270235D01*
X108771941Y-30312441D01*
X108729735Y-30347078D01*
X108700329Y-30362795D01*
X108667731Y-30384576D01*
X108640008Y-30412299D01*
X108618225Y-30444899D01*
X108603221Y-30481121D01*
X108595572Y-30519574D01*
X108595572Y-30558781D01*
X108603221Y-30597235D01*
X108618224Y-30633457D01*
X108652694Y-30680105D01*
X108731013Y-30758973D01*
X108791085Y-30849388D01*
X108832449Y-30949744D01*
X108853258Y-31054838D01*
X108853257Y-31054881D01*
X108853524Y-31056227D01*
X108851792Y-31180208D01*
X108851489Y-31181543D01*
X108851488Y-31181586D01*
X108827752Y-31286061D01*
X108783602Y-31385224D01*
X108721033Y-31473921D01*
X108642420Y-31548783D01*
X108598744Y-31576501D01*
X108567860Y-31600652D01*
X108542280Y-31630365D01*
X108522988Y-31664497D01*
X108510727Y-31701738D01*
X108505966Y-31740654D01*
X108508888Y-31779752D01*
X108519382Y-31817528D01*
X108537045Y-31852532D01*
X108561196Y-31883416D01*
X108594072Y-31911174D01*
X108654527Y-31951951D01*
X108731013Y-32028973D01*
X108791085Y-32119388D01*
X108832449Y-32219744D01*
X108853258Y-32324838D01*
X108853257Y-32324881D01*
X108853524Y-32326227D01*
X108851792Y-32450208D01*
X108851489Y-32451543D01*
X108851488Y-32451586D01*
X108827752Y-32556061D01*
X108783602Y-32655224D01*
X108721033Y-32743921D01*
X108642420Y-32818783D01*
X108598744Y-32846501D01*
X108567860Y-32870652D01*
X108542280Y-32900365D01*
X108522988Y-32934497D01*
X108510727Y-32971738D01*
X108505966Y-33010654D01*
X108508888Y-33049752D01*
X108519382Y-33087528D01*
X108537045Y-33122532D01*
X108561196Y-33153416D01*
X108594072Y-33181174D01*
X108654527Y-33221951D01*
X108731013Y-33298973D01*
X108791085Y-33389388D01*
X108832449Y-33489744D01*
X108853258Y-33594838D01*
X108853257Y-33594881D01*
X108853524Y-33596227D01*
X108851792Y-33720208D01*
X108851489Y-33721543D01*
X108851488Y-33721586D01*
X108827752Y-33826061D01*
X108783602Y-33925224D01*
X108721033Y-34013921D01*
X108642422Y-34088782D01*
X108550772Y-34146944D01*
X108449571Y-34186198D01*
X108342667Y-34205048D01*
X108234149Y-34202775D01*
X108128127Y-34179464D01*
X108028658Y-34136007D01*
X107939526Y-34074059D01*
X107864119Y-33995973D01*
X107805318Y-33904731D01*
X107765359Y-33803807D01*
X107745763Y-33697038D01*
X107747279Y-33588506D01*
X107769848Y-33482326D01*
X107812611Y-33382553D01*
X107873934Y-33292993D01*
X107951493Y-33217041D01*
X108003266Y-33183162D01*
X108033811Y-33158581D01*
X108058974Y-33128514D01*
X108077787Y-33094116D01*
X108089528Y-33056709D01*
X108093746Y-33017729D01*
X108090278Y-32978676D01*
X108079258Y-32941050D01*
X108061109Y-32906297D01*
X108036528Y-32875752D01*
X108007897Y-32851578D01*
X107939526Y-32804059D01*
X107864119Y-32725973D01*
X107805318Y-32634731D01*
X107765359Y-32533807D01*
X107745763Y-32427038D01*
X107747279Y-32318506D01*
X107769848Y-32212326D01*
X107812611Y-32112553D01*
X107873934Y-32022993D01*
X107951493Y-31947041D01*
X108003266Y-31913162D01*
X108033811Y-31888581D01*
X108058974Y-31858514D01*
X108077787Y-31824116D01*
X108089528Y-31786709D01*
X108093746Y-31747729D01*
X108090278Y-31708676D01*
X108079258Y-31671050D01*
X108061109Y-31636297D01*
X108036528Y-31605752D01*
X108007897Y-31581578D01*
X107939526Y-31534059D01*
X107864119Y-31455973D01*
X107805318Y-31364731D01*
X107765359Y-31263807D01*
X107745763Y-31157038D01*
X107747279Y-31048506D01*
X107769848Y-30942326D01*
X107812611Y-30842553D01*
X107873936Y-30752990D01*
X107945990Y-30682429D01*
X107971179Y-30652383D01*
X107990022Y-30618001D01*
X108001795Y-30580604D01*
X108006046Y-30541628D01*
X108002612Y-30502572D01*
X107991624Y-30464936D01*
X107973505Y-30430168D01*
X107948951Y-30399602D01*
X107918905Y-30374413D01*
X107900335Y-30363150D01*
X107870265Y-30347078D01*
X107828059Y-30312441D01*
X107793422Y-30270235D01*
X107767685Y-30222084D01*
X107751835Y-30169835D01*
X107745516Y-30105675D01*
X107745516Y-29575325D01*
X107751835Y-29511165D01*
X107767685Y-29458916D01*
X107793422Y-29410765D01*
X107828059Y-29368559D01*
X107870265Y-29333922D01*
X107918416Y-29308185D01*
X107970665Y-29292335D01*
X108034825Y-29286016D01*
X108565175Y-29286016D01*
X108629335Y-29292335D01*
X108629335Y-29292335D01*
G37*
M02*
