%TF.GenerationSoftware,KiCad,Pcbnew,(2017-08-01 revision 9cbcb3224)-makepkg*%
%TF.CreationDate,2017-09-11T21:28:13-06:00*%
%TF.ProjectId,Christmas_Tree_Disco,4368726973746D61735F547265655F44,V1.0*%
%TF.SameCoordinates,Original*%
%TF.FileFunction,Soldermask,Bot*%
%TF.FilePolarity,Negative*%
%FSLAX46Y46*%
G04 Gerber Fmt 4.6, Leading zero omitted, Abs format (unit mm)*
G04 Created by KiCad (PCBNEW (2017-08-01 revision 9cbcb3224)-makepkg) date 09/11/17 21:28:13*
%MOMM*%
%LPD*%
G01*
G04 APERTURE LIST*
%ADD10C,0.100000*%
G04 APERTURE END LIST*
D10*
G36*
X108908577Y-195950528D02*
X108964898Y-195967613D01*
X109016806Y-195995359D01*
X109062303Y-196032697D01*
X109099641Y-196078194D01*
X109127387Y-196130102D01*
X109144472Y-196186423D01*
X109151209Y-196254827D01*
X109151209Y-196735173D01*
X109144472Y-196803577D01*
X109127387Y-196859898D01*
X109099641Y-196911806D01*
X109062303Y-196957303D01*
X109016806Y-196994641D01*
X108984643Y-197011833D01*
X108952043Y-197033615D01*
X108924320Y-197061338D01*
X108902538Y-197093938D01*
X108887534Y-197130160D01*
X108879885Y-197168614D01*
X108879885Y-197207820D01*
X108887534Y-197246274D01*
X108902538Y-197282496D01*
X108924320Y-197315096D01*
X108947843Y-197338877D01*
X108997073Y-197380185D01*
X109064333Y-197463840D01*
X109114064Y-197558966D01*
X109144371Y-197661940D01*
X109144384Y-197662078D01*
X109144396Y-197662120D01*
X109154109Y-197768835D01*
X109142908Y-197875397D01*
X109142895Y-197875438D01*
X109142879Y-197875593D01*
X109111138Y-197978134D01*
X109060084Y-198072556D01*
X108991662Y-198155264D01*
X108908478Y-198223107D01*
X108901914Y-198226597D01*
X108873516Y-198245483D01*
X108845732Y-198273146D01*
X108823879Y-198305698D01*
X108808797Y-198341888D01*
X108801064Y-198380325D01*
X108800979Y-198419532D01*
X108808544Y-198458002D01*
X108823469Y-198494257D01*
X108845180Y-198526903D01*
X108872843Y-198554687D01*
X108899375Y-198572683D01*
X108914845Y-198581188D01*
X108997073Y-198650185D01*
X109064333Y-198733840D01*
X109114064Y-198828966D01*
X109144371Y-198931940D01*
X109144384Y-198932078D01*
X109144396Y-198932120D01*
X109154109Y-199038835D01*
X109142908Y-199145397D01*
X109142895Y-199145438D01*
X109142879Y-199145593D01*
X109111138Y-199248134D01*
X109060084Y-199342556D01*
X108991662Y-199425264D01*
X108908478Y-199493107D01*
X108901914Y-199496597D01*
X108873516Y-199515483D01*
X108845732Y-199543146D01*
X108823879Y-199575698D01*
X108808797Y-199611888D01*
X108801064Y-199650325D01*
X108800979Y-199689532D01*
X108808544Y-199728002D01*
X108823469Y-199764257D01*
X108845180Y-199796903D01*
X108872843Y-199824687D01*
X108899375Y-199842683D01*
X108914845Y-199851188D01*
X108997073Y-199920185D01*
X109064333Y-200003840D01*
X109114064Y-200098966D01*
X109144371Y-200201940D01*
X109144384Y-200202078D01*
X109144396Y-200202120D01*
X109154109Y-200308835D01*
X109142908Y-200415397D01*
X109142895Y-200415438D01*
X109142879Y-200415593D01*
X109111138Y-200518134D01*
X109060084Y-200612556D01*
X108991662Y-200695264D01*
X108908478Y-200763107D01*
X108813702Y-200813500D01*
X108710942Y-200844525D01*
X108604113Y-200855000D01*
X107995887Y-200855000D01*
X107988208Y-200854946D01*
X107881536Y-200842981D01*
X107779219Y-200810524D01*
X107685155Y-200758812D01*
X107602927Y-200689815D01*
X107535667Y-200606160D01*
X107485936Y-200511034D01*
X107455629Y-200408060D01*
X107455616Y-200407922D01*
X107455604Y-200407880D01*
X107445891Y-200301165D01*
X107457092Y-200194603D01*
X107457105Y-200194562D01*
X107457121Y-200194407D01*
X107488862Y-200091866D01*
X107539916Y-199997444D01*
X107608338Y-199914736D01*
X107691522Y-199846893D01*
X107698086Y-199843403D01*
X107726484Y-199824517D01*
X107754268Y-199796854D01*
X107776121Y-199764302D01*
X107791203Y-199728112D01*
X107798936Y-199689675D01*
X107799021Y-199650468D01*
X107791456Y-199611998D01*
X107776531Y-199575743D01*
X107754820Y-199543097D01*
X107727157Y-199515313D01*
X107700625Y-199497317D01*
X107685155Y-199488812D01*
X107602927Y-199419815D01*
X107535667Y-199336160D01*
X107485936Y-199241034D01*
X107455629Y-199138060D01*
X107455616Y-199137922D01*
X107455604Y-199137880D01*
X107445891Y-199031165D01*
X107457092Y-198924603D01*
X107457105Y-198924562D01*
X107457121Y-198924407D01*
X107488862Y-198821866D01*
X107539916Y-198727444D01*
X107608338Y-198644736D01*
X107691522Y-198576893D01*
X107698086Y-198573403D01*
X107726484Y-198554517D01*
X107754268Y-198526854D01*
X107776121Y-198494302D01*
X107791203Y-198458112D01*
X107798936Y-198419675D01*
X107799021Y-198380468D01*
X107791456Y-198341998D01*
X107776531Y-198305743D01*
X107754820Y-198273097D01*
X107727157Y-198245313D01*
X107700625Y-198227317D01*
X107685155Y-198218812D01*
X107602927Y-198149815D01*
X107535667Y-198066160D01*
X107485936Y-197971034D01*
X107455629Y-197868060D01*
X107455616Y-197867922D01*
X107455604Y-197867880D01*
X107445891Y-197761165D01*
X107457092Y-197654603D01*
X107457105Y-197654562D01*
X107457121Y-197654407D01*
X107488862Y-197551866D01*
X107539916Y-197457444D01*
X107608338Y-197374736D01*
X107649998Y-197340759D01*
X107675326Y-197315585D01*
X107697208Y-197283053D01*
X107712322Y-197246876D01*
X107720088Y-197208446D01*
X107720208Y-197169239D01*
X107712676Y-197130763D01*
X107697783Y-197094495D01*
X107676101Y-197061829D01*
X107648462Y-197034021D01*
X107615395Y-197011852D01*
X107583195Y-196994641D01*
X107583194Y-196994640D01*
X107583190Y-196994638D01*
X107537697Y-196957303D01*
X107500359Y-196911806D01*
X107472613Y-196859898D01*
X107455528Y-196803577D01*
X107448791Y-196735173D01*
X107448791Y-196254827D01*
X107455528Y-196186423D01*
X107472613Y-196130102D01*
X107500359Y-196078194D01*
X107537697Y-196032697D01*
X107583194Y-195995359D01*
X107635102Y-195967613D01*
X107691423Y-195950528D01*
X107759827Y-195943791D01*
X108840173Y-195943791D01*
X108908577Y-195950528D01*
X108908577Y-195950528D01*
G37*
G36*
X140908577Y-192850528D02*
X140964898Y-192867613D01*
X141016806Y-192895359D01*
X141062303Y-192932697D01*
X141099641Y-192978194D01*
X141127387Y-193030102D01*
X141144472Y-193086423D01*
X141151209Y-193154827D01*
X141151209Y-193635173D01*
X141144472Y-193703577D01*
X141127387Y-193759898D01*
X141099641Y-193811806D01*
X141062303Y-193857303D01*
X141016806Y-193894641D01*
X140984643Y-193911833D01*
X140952043Y-193933615D01*
X140924320Y-193961338D01*
X140902538Y-193993938D01*
X140887534Y-194030160D01*
X140879885Y-194068614D01*
X140879885Y-194107820D01*
X140887534Y-194146274D01*
X140902538Y-194182496D01*
X140924320Y-194215096D01*
X140947843Y-194238877D01*
X140997073Y-194280185D01*
X141064333Y-194363840D01*
X141114064Y-194458966D01*
X141144371Y-194561940D01*
X141144384Y-194562078D01*
X141144396Y-194562120D01*
X141154109Y-194668835D01*
X141142908Y-194775397D01*
X141142895Y-194775438D01*
X141142879Y-194775593D01*
X141111138Y-194878134D01*
X141060084Y-194972556D01*
X140991662Y-195055264D01*
X140908478Y-195123107D01*
X140901914Y-195126597D01*
X140873516Y-195145483D01*
X140845732Y-195173146D01*
X140823879Y-195205698D01*
X140808797Y-195241888D01*
X140801064Y-195280325D01*
X140800979Y-195319532D01*
X140808544Y-195358002D01*
X140823469Y-195394257D01*
X140845180Y-195426903D01*
X140872843Y-195454687D01*
X140899375Y-195472683D01*
X140914845Y-195481188D01*
X140997073Y-195550185D01*
X141064333Y-195633840D01*
X141114064Y-195728966D01*
X141144371Y-195831940D01*
X141144384Y-195832078D01*
X141144396Y-195832120D01*
X141154109Y-195938835D01*
X141142908Y-196045397D01*
X141142895Y-196045438D01*
X141142879Y-196045593D01*
X141111138Y-196148134D01*
X141060084Y-196242556D01*
X140991662Y-196325264D01*
X140908478Y-196393107D01*
X140901914Y-196396597D01*
X140873516Y-196415483D01*
X140845732Y-196443146D01*
X140823879Y-196475698D01*
X140808797Y-196511888D01*
X140801064Y-196550325D01*
X140800979Y-196589532D01*
X140808544Y-196628002D01*
X140823469Y-196664257D01*
X140845180Y-196696903D01*
X140872843Y-196724687D01*
X140899375Y-196742683D01*
X140914845Y-196751188D01*
X140997073Y-196820185D01*
X141064333Y-196903840D01*
X141114064Y-196998966D01*
X141144371Y-197101940D01*
X141144384Y-197102078D01*
X141144396Y-197102120D01*
X141154109Y-197208835D01*
X141142908Y-197315397D01*
X141142895Y-197315438D01*
X141142879Y-197315593D01*
X141111138Y-197418134D01*
X141060084Y-197512556D01*
X140991662Y-197595264D01*
X140908478Y-197663107D01*
X140813702Y-197713500D01*
X140710942Y-197744525D01*
X140604113Y-197755000D01*
X139995887Y-197755000D01*
X139988208Y-197754946D01*
X139881536Y-197742981D01*
X139779219Y-197710524D01*
X139685155Y-197658812D01*
X139602927Y-197589815D01*
X139535667Y-197506160D01*
X139485936Y-197411034D01*
X139455629Y-197308060D01*
X139455616Y-197307922D01*
X139455604Y-197307880D01*
X139445891Y-197201165D01*
X139457092Y-197094603D01*
X139457105Y-197094562D01*
X139457121Y-197094407D01*
X139488862Y-196991866D01*
X139539916Y-196897444D01*
X139608338Y-196814736D01*
X139691522Y-196746893D01*
X139698086Y-196743403D01*
X139726484Y-196724517D01*
X139754268Y-196696854D01*
X139776121Y-196664302D01*
X139791203Y-196628112D01*
X139798936Y-196589675D01*
X139799021Y-196550468D01*
X139791456Y-196511998D01*
X139776531Y-196475743D01*
X139754820Y-196443097D01*
X139727157Y-196415313D01*
X139700625Y-196397317D01*
X139685155Y-196388812D01*
X139602927Y-196319815D01*
X139535667Y-196236160D01*
X139485936Y-196141034D01*
X139455629Y-196038060D01*
X139455616Y-196037922D01*
X139455604Y-196037880D01*
X139445891Y-195931165D01*
X139457092Y-195824603D01*
X139457105Y-195824562D01*
X139457121Y-195824407D01*
X139488862Y-195721866D01*
X139539916Y-195627444D01*
X139608338Y-195544736D01*
X139691522Y-195476893D01*
X139698086Y-195473403D01*
X139726484Y-195454517D01*
X139754268Y-195426854D01*
X139776121Y-195394302D01*
X139791203Y-195358112D01*
X139798936Y-195319675D01*
X139799021Y-195280468D01*
X139791456Y-195241998D01*
X139776531Y-195205743D01*
X139754820Y-195173097D01*
X139727157Y-195145313D01*
X139700625Y-195127317D01*
X139685155Y-195118812D01*
X139602927Y-195049815D01*
X139535667Y-194966160D01*
X139485936Y-194871034D01*
X139455629Y-194768060D01*
X139455616Y-194767922D01*
X139455604Y-194767880D01*
X139445891Y-194661165D01*
X139457092Y-194554603D01*
X139457105Y-194554562D01*
X139457121Y-194554407D01*
X139488862Y-194451866D01*
X139539916Y-194357444D01*
X139608338Y-194274736D01*
X139649998Y-194240759D01*
X139675326Y-194215585D01*
X139697208Y-194183053D01*
X139712322Y-194146876D01*
X139720088Y-194108446D01*
X139720208Y-194069239D01*
X139712676Y-194030763D01*
X139697783Y-193994495D01*
X139676101Y-193961829D01*
X139648462Y-193934021D01*
X139615395Y-193911852D01*
X139583195Y-193894641D01*
X139583194Y-193894640D01*
X139583190Y-193894638D01*
X139537697Y-193857303D01*
X139500359Y-193811806D01*
X139472613Y-193759898D01*
X139455528Y-193703577D01*
X139448791Y-193635173D01*
X139448791Y-193154827D01*
X139455528Y-193086423D01*
X139472613Y-193030102D01*
X139500359Y-192978194D01*
X139537697Y-192932697D01*
X139583194Y-192895359D01*
X139635102Y-192867613D01*
X139691423Y-192850528D01*
X139759827Y-192843791D01*
X140840173Y-192843791D01*
X140908577Y-192850528D01*
X140908577Y-192850528D01*
G37*
G36*
X76908577Y-192850528D02*
X76964898Y-192867613D01*
X77016806Y-192895359D01*
X77062303Y-192932697D01*
X77099641Y-192978194D01*
X77127387Y-193030102D01*
X77144472Y-193086423D01*
X77151209Y-193154827D01*
X77151209Y-193635173D01*
X77144472Y-193703577D01*
X77127387Y-193759898D01*
X77099641Y-193811806D01*
X77062303Y-193857303D01*
X77016806Y-193894641D01*
X76984643Y-193911833D01*
X76952043Y-193933615D01*
X76924320Y-193961338D01*
X76902538Y-193993938D01*
X76887534Y-194030160D01*
X76879885Y-194068614D01*
X76879885Y-194107820D01*
X76887534Y-194146274D01*
X76902538Y-194182496D01*
X76924320Y-194215096D01*
X76947843Y-194238877D01*
X76997073Y-194280185D01*
X77064333Y-194363840D01*
X77114064Y-194458966D01*
X77144371Y-194561940D01*
X77144384Y-194562078D01*
X77144396Y-194562120D01*
X77154109Y-194668835D01*
X77142908Y-194775397D01*
X77142895Y-194775438D01*
X77142879Y-194775593D01*
X77111138Y-194878134D01*
X77060084Y-194972556D01*
X76991662Y-195055264D01*
X76908478Y-195123107D01*
X76901914Y-195126597D01*
X76873516Y-195145483D01*
X76845732Y-195173146D01*
X76823879Y-195205698D01*
X76808797Y-195241888D01*
X76801064Y-195280325D01*
X76800979Y-195319532D01*
X76808544Y-195358002D01*
X76823469Y-195394257D01*
X76845180Y-195426903D01*
X76872843Y-195454687D01*
X76899375Y-195472683D01*
X76914845Y-195481188D01*
X76997073Y-195550185D01*
X77064333Y-195633840D01*
X77114064Y-195728966D01*
X77144371Y-195831940D01*
X77144384Y-195832078D01*
X77144396Y-195832120D01*
X77154109Y-195938835D01*
X77142908Y-196045397D01*
X77142895Y-196045438D01*
X77142879Y-196045593D01*
X77111138Y-196148134D01*
X77060084Y-196242556D01*
X76991662Y-196325264D01*
X76908478Y-196393107D01*
X76901914Y-196396597D01*
X76873516Y-196415483D01*
X76845732Y-196443146D01*
X76823879Y-196475698D01*
X76808797Y-196511888D01*
X76801064Y-196550325D01*
X76800979Y-196589532D01*
X76808544Y-196628002D01*
X76823469Y-196664257D01*
X76845180Y-196696903D01*
X76872843Y-196724687D01*
X76899375Y-196742683D01*
X76914845Y-196751188D01*
X76997073Y-196820185D01*
X77064333Y-196903840D01*
X77114064Y-196998966D01*
X77144371Y-197101940D01*
X77144384Y-197102078D01*
X77144396Y-197102120D01*
X77154109Y-197208835D01*
X77142908Y-197315397D01*
X77142895Y-197315438D01*
X77142879Y-197315593D01*
X77111138Y-197418134D01*
X77060084Y-197512556D01*
X76991662Y-197595264D01*
X76908478Y-197663107D01*
X76813702Y-197713500D01*
X76710942Y-197744525D01*
X76604113Y-197755000D01*
X75995887Y-197755000D01*
X75988208Y-197754946D01*
X75881536Y-197742981D01*
X75779219Y-197710524D01*
X75685155Y-197658812D01*
X75602927Y-197589815D01*
X75535667Y-197506160D01*
X75485936Y-197411034D01*
X75455629Y-197308060D01*
X75455616Y-197307922D01*
X75455604Y-197307880D01*
X75445891Y-197201165D01*
X75457092Y-197094603D01*
X75457105Y-197094562D01*
X75457121Y-197094407D01*
X75488862Y-196991866D01*
X75539916Y-196897444D01*
X75608338Y-196814736D01*
X75691522Y-196746893D01*
X75698086Y-196743403D01*
X75726484Y-196724517D01*
X75754268Y-196696854D01*
X75776121Y-196664302D01*
X75791203Y-196628112D01*
X75798936Y-196589675D01*
X75799021Y-196550468D01*
X75791456Y-196511998D01*
X75776531Y-196475743D01*
X75754820Y-196443097D01*
X75727157Y-196415313D01*
X75700625Y-196397317D01*
X75685155Y-196388812D01*
X75602927Y-196319815D01*
X75535667Y-196236160D01*
X75485936Y-196141034D01*
X75455629Y-196038060D01*
X75455616Y-196037922D01*
X75455604Y-196037880D01*
X75445891Y-195931165D01*
X75457092Y-195824603D01*
X75457105Y-195824562D01*
X75457121Y-195824407D01*
X75488862Y-195721866D01*
X75539916Y-195627444D01*
X75608338Y-195544736D01*
X75691522Y-195476893D01*
X75698086Y-195473403D01*
X75726484Y-195454517D01*
X75754268Y-195426854D01*
X75776121Y-195394302D01*
X75791203Y-195358112D01*
X75798936Y-195319675D01*
X75799021Y-195280468D01*
X75791456Y-195241998D01*
X75776531Y-195205743D01*
X75754820Y-195173097D01*
X75727157Y-195145313D01*
X75700625Y-195127317D01*
X75685155Y-195118812D01*
X75602927Y-195049815D01*
X75535667Y-194966160D01*
X75485936Y-194871034D01*
X75455629Y-194768060D01*
X75455616Y-194767922D01*
X75455604Y-194767880D01*
X75445891Y-194661165D01*
X75457092Y-194554603D01*
X75457105Y-194554562D01*
X75457121Y-194554407D01*
X75488862Y-194451866D01*
X75539916Y-194357444D01*
X75608338Y-194274736D01*
X75649998Y-194240759D01*
X75675326Y-194215585D01*
X75697208Y-194183053D01*
X75712322Y-194146876D01*
X75720088Y-194108446D01*
X75720208Y-194069239D01*
X75712676Y-194030763D01*
X75697783Y-193994495D01*
X75676101Y-193961829D01*
X75648462Y-193934021D01*
X75615395Y-193911852D01*
X75583195Y-193894641D01*
X75583194Y-193894640D01*
X75583190Y-193894638D01*
X75537697Y-193857303D01*
X75500359Y-193811806D01*
X75472613Y-193759898D01*
X75455528Y-193703577D01*
X75448791Y-193635173D01*
X75448791Y-193154827D01*
X75455528Y-193086423D01*
X75472613Y-193030102D01*
X75500359Y-192978194D01*
X75537697Y-192932697D01*
X75583194Y-192895359D01*
X75635102Y-192867613D01*
X75691423Y-192850528D01*
X75759827Y-192843791D01*
X76840173Y-192843791D01*
X76908577Y-192850528D01*
X76908577Y-192850528D01*
G37*
G36*
X46109672Y-183655028D02*
X46165993Y-183672113D01*
X46217901Y-183699859D01*
X46263398Y-183737197D01*
X46300736Y-183782694D01*
X46328482Y-183834602D01*
X46345567Y-183890923D01*
X46352304Y-183959327D01*
X46352304Y-184439673D01*
X46345567Y-184508077D01*
X46328482Y-184564398D01*
X46300736Y-184616306D01*
X46263398Y-184661803D01*
X46217901Y-184699141D01*
X46185738Y-184716333D01*
X46153138Y-184738115D01*
X46125415Y-184765838D01*
X46103633Y-184798438D01*
X46088629Y-184834660D01*
X46080980Y-184873114D01*
X46080980Y-184912320D01*
X46088629Y-184950774D01*
X46103633Y-184986996D01*
X46125415Y-185019596D01*
X46148938Y-185043377D01*
X46198168Y-185084685D01*
X46265428Y-185168340D01*
X46315159Y-185263466D01*
X46345466Y-185366440D01*
X46345479Y-185366578D01*
X46345491Y-185366620D01*
X46355204Y-185473335D01*
X46344003Y-185579897D01*
X46343990Y-185579938D01*
X46343974Y-185580093D01*
X46312233Y-185682634D01*
X46261179Y-185777056D01*
X46192757Y-185859764D01*
X46109573Y-185927607D01*
X46103009Y-185931097D01*
X46074611Y-185949983D01*
X46046827Y-185977646D01*
X46024974Y-186010198D01*
X46009892Y-186046388D01*
X46002159Y-186084825D01*
X46002074Y-186124032D01*
X46009639Y-186162502D01*
X46024564Y-186198757D01*
X46046275Y-186231403D01*
X46073938Y-186259187D01*
X46100470Y-186277183D01*
X46115940Y-186285688D01*
X46198168Y-186354685D01*
X46265428Y-186438340D01*
X46315159Y-186533466D01*
X46345466Y-186636440D01*
X46345479Y-186636578D01*
X46345491Y-186636620D01*
X46355204Y-186743335D01*
X46344003Y-186849897D01*
X46343990Y-186849938D01*
X46343974Y-186850093D01*
X46312233Y-186952634D01*
X46261179Y-187047056D01*
X46192757Y-187129764D01*
X46109573Y-187197607D01*
X46103009Y-187201097D01*
X46074611Y-187219983D01*
X46046827Y-187247646D01*
X46024974Y-187280198D01*
X46009892Y-187316388D01*
X46002159Y-187354825D01*
X46002074Y-187394032D01*
X46009639Y-187432502D01*
X46024564Y-187468757D01*
X46046275Y-187501403D01*
X46073938Y-187529187D01*
X46100470Y-187547183D01*
X46115940Y-187555688D01*
X46198168Y-187624685D01*
X46265428Y-187708340D01*
X46315159Y-187803466D01*
X46345466Y-187906440D01*
X46345479Y-187906578D01*
X46345491Y-187906620D01*
X46355204Y-188013335D01*
X46344003Y-188119897D01*
X46343990Y-188119938D01*
X46343974Y-188120093D01*
X46312233Y-188222634D01*
X46261179Y-188317056D01*
X46192757Y-188399764D01*
X46109573Y-188467607D01*
X46014797Y-188518000D01*
X45912037Y-188549025D01*
X45805208Y-188559500D01*
X45196982Y-188559500D01*
X45189303Y-188559446D01*
X45082631Y-188547481D01*
X44980314Y-188515024D01*
X44886250Y-188463312D01*
X44804022Y-188394315D01*
X44736762Y-188310660D01*
X44687031Y-188215534D01*
X44656724Y-188112560D01*
X44656711Y-188112422D01*
X44656699Y-188112380D01*
X44646986Y-188005665D01*
X44658187Y-187899103D01*
X44658200Y-187899062D01*
X44658216Y-187898907D01*
X44689957Y-187796366D01*
X44741011Y-187701944D01*
X44809433Y-187619236D01*
X44892617Y-187551393D01*
X44899181Y-187547903D01*
X44927579Y-187529017D01*
X44955363Y-187501354D01*
X44977216Y-187468802D01*
X44992298Y-187432612D01*
X45000031Y-187394175D01*
X45000116Y-187354968D01*
X44992551Y-187316498D01*
X44977626Y-187280243D01*
X44955915Y-187247597D01*
X44928252Y-187219813D01*
X44901720Y-187201817D01*
X44886250Y-187193312D01*
X44804022Y-187124315D01*
X44736762Y-187040660D01*
X44687031Y-186945534D01*
X44656724Y-186842560D01*
X44656711Y-186842422D01*
X44656699Y-186842380D01*
X44646986Y-186735665D01*
X44658187Y-186629103D01*
X44658200Y-186629062D01*
X44658216Y-186628907D01*
X44689957Y-186526366D01*
X44741011Y-186431944D01*
X44809433Y-186349236D01*
X44892617Y-186281393D01*
X44899181Y-186277903D01*
X44927579Y-186259017D01*
X44955363Y-186231354D01*
X44977216Y-186198802D01*
X44992298Y-186162612D01*
X45000031Y-186124175D01*
X45000116Y-186084968D01*
X44992551Y-186046498D01*
X44977626Y-186010243D01*
X44955915Y-185977597D01*
X44928252Y-185949813D01*
X44901720Y-185931817D01*
X44886250Y-185923312D01*
X44804022Y-185854315D01*
X44736762Y-185770660D01*
X44687031Y-185675534D01*
X44656724Y-185572560D01*
X44656711Y-185572422D01*
X44656699Y-185572380D01*
X44646986Y-185465665D01*
X44658187Y-185359103D01*
X44658200Y-185359062D01*
X44658216Y-185358907D01*
X44689957Y-185256366D01*
X44741011Y-185161944D01*
X44809433Y-185079236D01*
X44851093Y-185045259D01*
X44876421Y-185020085D01*
X44898303Y-184987553D01*
X44913417Y-184951376D01*
X44921183Y-184912946D01*
X44921303Y-184873739D01*
X44913771Y-184835263D01*
X44898878Y-184798995D01*
X44877196Y-184766329D01*
X44849557Y-184738521D01*
X44816490Y-184716352D01*
X44784290Y-184699141D01*
X44784289Y-184699140D01*
X44784285Y-184699138D01*
X44738792Y-184661803D01*
X44701454Y-184616306D01*
X44673708Y-184564398D01*
X44656623Y-184508077D01*
X44649886Y-184439673D01*
X44649886Y-183959327D01*
X44656623Y-183890923D01*
X44673708Y-183834602D01*
X44701454Y-183782694D01*
X44738792Y-183737197D01*
X44784289Y-183699859D01*
X44836197Y-183672113D01*
X44892518Y-183655028D01*
X44960922Y-183648291D01*
X46041268Y-183648291D01*
X46109672Y-183655028D01*
X46109672Y-183655028D01*
G37*
G36*
X171708577Y-183615528D02*
X171764898Y-183632613D01*
X171816806Y-183660359D01*
X171862303Y-183697697D01*
X171899641Y-183743194D01*
X171927387Y-183795102D01*
X171944472Y-183851423D01*
X171951209Y-183919827D01*
X171951209Y-184400173D01*
X171944472Y-184468577D01*
X171927387Y-184524898D01*
X171899641Y-184576806D01*
X171862303Y-184622303D01*
X171816806Y-184659641D01*
X171784643Y-184676833D01*
X171752043Y-184698615D01*
X171724320Y-184726338D01*
X171702538Y-184758938D01*
X171687534Y-184795160D01*
X171679885Y-184833614D01*
X171679885Y-184872820D01*
X171687534Y-184911274D01*
X171702538Y-184947496D01*
X171724320Y-184980096D01*
X171747843Y-185003877D01*
X171797073Y-185045185D01*
X171864333Y-185128840D01*
X171914064Y-185223966D01*
X171944371Y-185326940D01*
X171944384Y-185327078D01*
X171944396Y-185327120D01*
X171954109Y-185433835D01*
X171942908Y-185540397D01*
X171942895Y-185540438D01*
X171942879Y-185540593D01*
X171911138Y-185643134D01*
X171860084Y-185737556D01*
X171791662Y-185820264D01*
X171708478Y-185888107D01*
X171701914Y-185891597D01*
X171673516Y-185910483D01*
X171645732Y-185938146D01*
X171623879Y-185970698D01*
X171608797Y-186006888D01*
X171601064Y-186045325D01*
X171600979Y-186084532D01*
X171608544Y-186123002D01*
X171623469Y-186159257D01*
X171645180Y-186191903D01*
X171672843Y-186219687D01*
X171699375Y-186237683D01*
X171714845Y-186246188D01*
X171797073Y-186315185D01*
X171864333Y-186398840D01*
X171914064Y-186493966D01*
X171944371Y-186596940D01*
X171944384Y-186597078D01*
X171944396Y-186597120D01*
X171954109Y-186703835D01*
X171942908Y-186810397D01*
X171942895Y-186810438D01*
X171942879Y-186810593D01*
X171911138Y-186913134D01*
X171860084Y-187007556D01*
X171791662Y-187090264D01*
X171708478Y-187158107D01*
X171701914Y-187161597D01*
X171673516Y-187180483D01*
X171645732Y-187208146D01*
X171623879Y-187240698D01*
X171608797Y-187276888D01*
X171601064Y-187315325D01*
X171600979Y-187354532D01*
X171608544Y-187393002D01*
X171623469Y-187429257D01*
X171645180Y-187461903D01*
X171672843Y-187489687D01*
X171699375Y-187507683D01*
X171714845Y-187516188D01*
X171797073Y-187585185D01*
X171864333Y-187668840D01*
X171914064Y-187763966D01*
X171944371Y-187866940D01*
X171944384Y-187867078D01*
X171944396Y-187867120D01*
X171954109Y-187973835D01*
X171942908Y-188080397D01*
X171942895Y-188080438D01*
X171942879Y-188080593D01*
X171911138Y-188183134D01*
X171860084Y-188277556D01*
X171791662Y-188360264D01*
X171708478Y-188428107D01*
X171613702Y-188478500D01*
X171510942Y-188509525D01*
X171404113Y-188520000D01*
X170795887Y-188520000D01*
X170788208Y-188519946D01*
X170681536Y-188507981D01*
X170579219Y-188475524D01*
X170485155Y-188423812D01*
X170402927Y-188354815D01*
X170335667Y-188271160D01*
X170285936Y-188176034D01*
X170255629Y-188073060D01*
X170255616Y-188072922D01*
X170255604Y-188072880D01*
X170245891Y-187966165D01*
X170257092Y-187859603D01*
X170257105Y-187859562D01*
X170257121Y-187859407D01*
X170288862Y-187756866D01*
X170339916Y-187662444D01*
X170408338Y-187579736D01*
X170491522Y-187511893D01*
X170498086Y-187508403D01*
X170526484Y-187489517D01*
X170554268Y-187461854D01*
X170576121Y-187429302D01*
X170591203Y-187393112D01*
X170598936Y-187354675D01*
X170599021Y-187315468D01*
X170591456Y-187276998D01*
X170576531Y-187240743D01*
X170554820Y-187208097D01*
X170527157Y-187180313D01*
X170500625Y-187162317D01*
X170485155Y-187153812D01*
X170402927Y-187084815D01*
X170335667Y-187001160D01*
X170285936Y-186906034D01*
X170255629Y-186803060D01*
X170255616Y-186802922D01*
X170255604Y-186802880D01*
X170245891Y-186696165D01*
X170257092Y-186589603D01*
X170257105Y-186589562D01*
X170257121Y-186589407D01*
X170288862Y-186486866D01*
X170339916Y-186392444D01*
X170408338Y-186309736D01*
X170491522Y-186241893D01*
X170498086Y-186238403D01*
X170526484Y-186219517D01*
X170554268Y-186191854D01*
X170576121Y-186159302D01*
X170591203Y-186123112D01*
X170598936Y-186084675D01*
X170599021Y-186045468D01*
X170591456Y-186006998D01*
X170576531Y-185970743D01*
X170554820Y-185938097D01*
X170527157Y-185910313D01*
X170500625Y-185892317D01*
X170485155Y-185883812D01*
X170402927Y-185814815D01*
X170335667Y-185731160D01*
X170285936Y-185636034D01*
X170255629Y-185533060D01*
X170255616Y-185532922D01*
X170255604Y-185532880D01*
X170245891Y-185426165D01*
X170257092Y-185319603D01*
X170257105Y-185319562D01*
X170257121Y-185319407D01*
X170288862Y-185216866D01*
X170339916Y-185122444D01*
X170408338Y-185039736D01*
X170449998Y-185005759D01*
X170475326Y-184980585D01*
X170497208Y-184948053D01*
X170512322Y-184911876D01*
X170520088Y-184873446D01*
X170520208Y-184834239D01*
X170512676Y-184795763D01*
X170497783Y-184759495D01*
X170476101Y-184726829D01*
X170448462Y-184699021D01*
X170415395Y-184676852D01*
X170383195Y-184659641D01*
X170383194Y-184659640D01*
X170383190Y-184659638D01*
X170337697Y-184622303D01*
X170300359Y-184576806D01*
X170272613Y-184524898D01*
X170255528Y-184468577D01*
X170248791Y-184400173D01*
X170248791Y-183919827D01*
X170255528Y-183851423D01*
X170272613Y-183795102D01*
X170300359Y-183743194D01*
X170337697Y-183697697D01*
X170383194Y-183660359D01*
X170435102Y-183632613D01*
X170491423Y-183615528D01*
X170559827Y-183608791D01*
X171640173Y-183608791D01*
X171708577Y-183615528D01*
X171708577Y-183615528D01*
G37*
G36*
X93350577Y-149290528D02*
X93406898Y-149307613D01*
X93458806Y-149335359D01*
X93504303Y-149372697D01*
X93541641Y-149418194D01*
X93569387Y-149470102D01*
X93586472Y-149526423D01*
X93593209Y-149594827D01*
X93593209Y-150075173D01*
X93586472Y-150143577D01*
X93569387Y-150199898D01*
X93541641Y-150251806D01*
X93504303Y-150297303D01*
X93458806Y-150334641D01*
X93426643Y-150351833D01*
X93394043Y-150373615D01*
X93366320Y-150401338D01*
X93344538Y-150433938D01*
X93329534Y-150470160D01*
X93321885Y-150508614D01*
X93321885Y-150547820D01*
X93329534Y-150586274D01*
X93344538Y-150622496D01*
X93366320Y-150655096D01*
X93389843Y-150678877D01*
X93439073Y-150720185D01*
X93506333Y-150803840D01*
X93556064Y-150898966D01*
X93586371Y-151001940D01*
X93586384Y-151002078D01*
X93586396Y-151002120D01*
X93596109Y-151108835D01*
X93584908Y-151215397D01*
X93584895Y-151215438D01*
X93584879Y-151215593D01*
X93553138Y-151318134D01*
X93502084Y-151412556D01*
X93433662Y-151495264D01*
X93350478Y-151563107D01*
X93343914Y-151566597D01*
X93315516Y-151585483D01*
X93287732Y-151613146D01*
X93265879Y-151645698D01*
X93250797Y-151681888D01*
X93243064Y-151720325D01*
X93242979Y-151759532D01*
X93250544Y-151798002D01*
X93265469Y-151834257D01*
X93287180Y-151866903D01*
X93314843Y-151894687D01*
X93341375Y-151912683D01*
X93356845Y-151921188D01*
X93439073Y-151990185D01*
X93506333Y-152073840D01*
X93556064Y-152168966D01*
X93586371Y-152271940D01*
X93586384Y-152272078D01*
X93586396Y-152272120D01*
X93596109Y-152378835D01*
X93584908Y-152485397D01*
X93584895Y-152485438D01*
X93584879Y-152485593D01*
X93553138Y-152588134D01*
X93502084Y-152682556D01*
X93433662Y-152765264D01*
X93350478Y-152833107D01*
X93343914Y-152836597D01*
X93315516Y-152855483D01*
X93287732Y-152883146D01*
X93265879Y-152915698D01*
X93250797Y-152951888D01*
X93243064Y-152990325D01*
X93242979Y-153029532D01*
X93250544Y-153068002D01*
X93265469Y-153104257D01*
X93287180Y-153136903D01*
X93314843Y-153164687D01*
X93341375Y-153182683D01*
X93356845Y-153191188D01*
X93439073Y-153260185D01*
X93506333Y-153343840D01*
X93556064Y-153438966D01*
X93586371Y-153541940D01*
X93586384Y-153542078D01*
X93586396Y-153542120D01*
X93596109Y-153648835D01*
X93584908Y-153755397D01*
X93584895Y-153755438D01*
X93584879Y-153755593D01*
X93553138Y-153858134D01*
X93502084Y-153952556D01*
X93433662Y-154035264D01*
X93350478Y-154103107D01*
X93255702Y-154153500D01*
X93152942Y-154184525D01*
X93046113Y-154195000D01*
X92437887Y-154195000D01*
X92430208Y-154194946D01*
X92323536Y-154182981D01*
X92221219Y-154150524D01*
X92127155Y-154098812D01*
X92044927Y-154029815D01*
X91977667Y-153946160D01*
X91927936Y-153851034D01*
X91897629Y-153748060D01*
X91897616Y-153747922D01*
X91897604Y-153747880D01*
X91887891Y-153641165D01*
X91899092Y-153534603D01*
X91899105Y-153534562D01*
X91899121Y-153534407D01*
X91930862Y-153431866D01*
X91981916Y-153337444D01*
X92050338Y-153254736D01*
X92133522Y-153186893D01*
X92140086Y-153183403D01*
X92168484Y-153164517D01*
X92196268Y-153136854D01*
X92218121Y-153104302D01*
X92233203Y-153068112D01*
X92240936Y-153029675D01*
X92241021Y-152990468D01*
X92233456Y-152951998D01*
X92218531Y-152915743D01*
X92196820Y-152883097D01*
X92169157Y-152855313D01*
X92142625Y-152837317D01*
X92127155Y-152828812D01*
X92044927Y-152759815D01*
X91977667Y-152676160D01*
X91927936Y-152581034D01*
X91897629Y-152478060D01*
X91897616Y-152477922D01*
X91897604Y-152477880D01*
X91887891Y-152371165D01*
X91899092Y-152264603D01*
X91899105Y-152264562D01*
X91899121Y-152264407D01*
X91930862Y-152161866D01*
X91981916Y-152067444D01*
X92050338Y-151984736D01*
X92133522Y-151916893D01*
X92140086Y-151913403D01*
X92168484Y-151894517D01*
X92196268Y-151866854D01*
X92218121Y-151834302D01*
X92233203Y-151798112D01*
X92240936Y-151759675D01*
X92241021Y-151720468D01*
X92233456Y-151681998D01*
X92218531Y-151645743D01*
X92196820Y-151613097D01*
X92169157Y-151585313D01*
X92142625Y-151567317D01*
X92127155Y-151558812D01*
X92044927Y-151489815D01*
X91977667Y-151406160D01*
X91927936Y-151311034D01*
X91897629Y-151208060D01*
X91897616Y-151207922D01*
X91897604Y-151207880D01*
X91887891Y-151101165D01*
X91899092Y-150994603D01*
X91899105Y-150994562D01*
X91899121Y-150994407D01*
X91930862Y-150891866D01*
X91981916Y-150797444D01*
X92050338Y-150714736D01*
X92091998Y-150680759D01*
X92117326Y-150655585D01*
X92139208Y-150623053D01*
X92154322Y-150586876D01*
X92162088Y-150548446D01*
X92162208Y-150509239D01*
X92154676Y-150470763D01*
X92139783Y-150434495D01*
X92118101Y-150401829D01*
X92090462Y-150374021D01*
X92057395Y-150351852D01*
X92025195Y-150334641D01*
X92025194Y-150334640D01*
X92025190Y-150334638D01*
X91979697Y-150297303D01*
X91942359Y-150251806D01*
X91914613Y-150199898D01*
X91897528Y-150143577D01*
X91890791Y-150075173D01*
X91890791Y-149594827D01*
X91897528Y-149526423D01*
X91914613Y-149470102D01*
X91942359Y-149418194D01*
X91979697Y-149372697D01*
X92025194Y-149335359D01*
X92077102Y-149307613D01*
X92133423Y-149290528D01*
X92201827Y-149283791D01*
X93282173Y-149283791D01*
X93350577Y-149290528D01*
X93350577Y-149290528D01*
G37*
G36*
X124408577Y-149250528D02*
X124464898Y-149267613D01*
X124516806Y-149295359D01*
X124562303Y-149332697D01*
X124599641Y-149378194D01*
X124627387Y-149430102D01*
X124644472Y-149486423D01*
X124651209Y-149554827D01*
X124651209Y-150035173D01*
X124644472Y-150103577D01*
X124627387Y-150159898D01*
X124599641Y-150211806D01*
X124562303Y-150257303D01*
X124516806Y-150294641D01*
X124484643Y-150311833D01*
X124452043Y-150333615D01*
X124424320Y-150361338D01*
X124402538Y-150393938D01*
X124387534Y-150430160D01*
X124379885Y-150468614D01*
X124379885Y-150507820D01*
X124387534Y-150546274D01*
X124402538Y-150582496D01*
X124424320Y-150615096D01*
X124447843Y-150638877D01*
X124497073Y-150680185D01*
X124564333Y-150763840D01*
X124614064Y-150858966D01*
X124644371Y-150961940D01*
X124644384Y-150962078D01*
X124644396Y-150962120D01*
X124654109Y-151068835D01*
X124642908Y-151175397D01*
X124642895Y-151175438D01*
X124642879Y-151175593D01*
X124611138Y-151278134D01*
X124560084Y-151372556D01*
X124491662Y-151455264D01*
X124408478Y-151523107D01*
X124401914Y-151526597D01*
X124373516Y-151545483D01*
X124345732Y-151573146D01*
X124323879Y-151605698D01*
X124308797Y-151641888D01*
X124301064Y-151680325D01*
X124300979Y-151719532D01*
X124308544Y-151758002D01*
X124323469Y-151794257D01*
X124345180Y-151826903D01*
X124372843Y-151854687D01*
X124399375Y-151872683D01*
X124414845Y-151881188D01*
X124497073Y-151950185D01*
X124564333Y-152033840D01*
X124614064Y-152128966D01*
X124644371Y-152231940D01*
X124644384Y-152232078D01*
X124644396Y-152232120D01*
X124654109Y-152338835D01*
X124642908Y-152445397D01*
X124642895Y-152445438D01*
X124642879Y-152445593D01*
X124611138Y-152548134D01*
X124560084Y-152642556D01*
X124491662Y-152725264D01*
X124408478Y-152793107D01*
X124401914Y-152796597D01*
X124373516Y-152815483D01*
X124345732Y-152843146D01*
X124323879Y-152875698D01*
X124308797Y-152911888D01*
X124301064Y-152950325D01*
X124300979Y-152989532D01*
X124308544Y-153028002D01*
X124323469Y-153064257D01*
X124345180Y-153096903D01*
X124372843Y-153124687D01*
X124399375Y-153142683D01*
X124414845Y-153151188D01*
X124497073Y-153220185D01*
X124564333Y-153303840D01*
X124614064Y-153398966D01*
X124644371Y-153501940D01*
X124644384Y-153502078D01*
X124644396Y-153502120D01*
X124654109Y-153608835D01*
X124642908Y-153715397D01*
X124642895Y-153715438D01*
X124642879Y-153715593D01*
X124611138Y-153818134D01*
X124560084Y-153912556D01*
X124491662Y-153995264D01*
X124408478Y-154063107D01*
X124313702Y-154113500D01*
X124210942Y-154144525D01*
X124104113Y-154155000D01*
X123495887Y-154155000D01*
X123488208Y-154154946D01*
X123381536Y-154142981D01*
X123279219Y-154110524D01*
X123185155Y-154058812D01*
X123102927Y-153989815D01*
X123035667Y-153906160D01*
X122985936Y-153811034D01*
X122955629Y-153708060D01*
X122955616Y-153707922D01*
X122955604Y-153707880D01*
X122945891Y-153601165D01*
X122957092Y-153494603D01*
X122957105Y-153494562D01*
X122957121Y-153494407D01*
X122988862Y-153391866D01*
X123039916Y-153297444D01*
X123108338Y-153214736D01*
X123191522Y-153146893D01*
X123198086Y-153143403D01*
X123226484Y-153124517D01*
X123254268Y-153096854D01*
X123276121Y-153064302D01*
X123291203Y-153028112D01*
X123298936Y-152989675D01*
X123299021Y-152950468D01*
X123291456Y-152911998D01*
X123276531Y-152875743D01*
X123254820Y-152843097D01*
X123227157Y-152815313D01*
X123200625Y-152797317D01*
X123185155Y-152788812D01*
X123102927Y-152719815D01*
X123035667Y-152636160D01*
X122985936Y-152541034D01*
X122955629Y-152438060D01*
X122955616Y-152437922D01*
X122955604Y-152437880D01*
X122945891Y-152331165D01*
X122957092Y-152224603D01*
X122957105Y-152224562D01*
X122957121Y-152224407D01*
X122988862Y-152121866D01*
X123039916Y-152027444D01*
X123108338Y-151944736D01*
X123191522Y-151876893D01*
X123198086Y-151873403D01*
X123226484Y-151854517D01*
X123254268Y-151826854D01*
X123276121Y-151794302D01*
X123291203Y-151758112D01*
X123298936Y-151719675D01*
X123299021Y-151680468D01*
X123291456Y-151641998D01*
X123276531Y-151605743D01*
X123254820Y-151573097D01*
X123227157Y-151545313D01*
X123200625Y-151527317D01*
X123185155Y-151518812D01*
X123102927Y-151449815D01*
X123035667Y-151366160D01*
X122985936Y-151271034D01*
X122955629Y-151168060D01*
X122955616Y-151167922D01*
X122955604Y-151167880D01*
X122945891Y-151061165D01*
X122957092Y-150954603D01*
X122957105Y-150954562D01*
X122957121Y-150954407D01*
X122988862Y-150851866D01*
X123039916Y-150757444D01*
X123108338Y-150674736D01*
X123149998Y-150640759D01*
X123175326Y-150615585D01*
X123197208Y-150583053D01*
X123212322Y-150546876D01*
X123220088Y-150508446D01*
X123220208Y-150469239D01*
X123212676Y-150430763D01*
X123197783Y-150394495D01*
X123176101Y-150361829D01*
X123148462Y-150334021D01*
X123115395Y-150311852D01*
X123083195Y-150294641D01*
X123083194Y-150294640D01*
X123083190Y-150294638D01*
X123037697Y-150257303D01*
X123000359Y-150211806D01*
X122972613Y-150159898D01*
X122955528Y-150103577D01*
X122948791Y-150035173D01*
X122948791Y-149554827D01*
X122955528Y-149486423D01*
X122972613Y-149430102D01*
X123000359Y-149378194D01*
X123037697Y-149332697D01*
X123083194Y-149295359D01*
X123135102Y-149267613D01*
X123191423Y-149250528D01*
X123259827Y-149243791D01*
X124340173Y-149243791D01*
X124408577Y-149250528D01*
X124408577Y-149250528D01*
G37*
G36*
X154421672Y-141340028D02*
X154477993Y-141357113D01*
X154529901Y-141384859D01*
X154575398Y-141422197D01*
X154612736Y-141467694D01*
X154640482Y-141519602D01*
X154657567Y-141575923D01*
X154664304Y-141644327D01*
X154664304Y-142124673D01*
X154657567Y-142193077D01*
X154640482Y-142249398D01*
X154612736Y-142301306D01*
X154575398Y-142346803D01*
X154529901Y-142384141D01*
X154497738Y-142401333D01*
X154465138Y-142423115D01*
X154437415Y-142450838D01*
X154415633Y-142483438D01*
X154400629Y-142519660D01*
X154392980Y-142558114D01*
X154392980Y-142597320D01*
X154400629Y-142635774D01*
X154415633Y-142671996D01*
X154437415Y-142704596D01*
X154460938Y-142728377D01*
X154510168Y-142769685D01*
X154577428Y-142853340D01*
X154627159Y-142948466D01*
X154657466Y-143051440D01*
X154657479Y-143051578D01*
X154657491Y-143051620D01*
X154667204Y-143158335D01*
X154656003Y-143264897D01*
X154655990Y-143264938D01*
X154655974Y-143265093D01*
X154624233Y-143367634D01*
X154573179Y-143462056D01*
X154504757Y-143544764D01*
X154421573Y-143612607D01*
X154415009Y-143616097D01*
X154386611Y-143634983D01*
X154358827Y-143662646D01*
X154336974Y-143695198D01*
X154321892Y-143731388D01*
X154314159Y-143769825D01*
X154314074Y-143809032D01*
X154321639Y-143847502D01*
X154336564Y-143883757D01*
X154358275Y-143916403D01*
X154385938Y-143944187D01*
X154412470Y-143962183D01*
X154427940Y-143970688D01*
X154510168Y-144039685D01*
X154577428Y-144123340D01*
X154627159Y-144218466D01*
X154657466Y-144321440D01*
X154657479Y-144321578D01*
X154657491Y-144321620D01*
X154667204Y-144428335D01*
X154656003Y-144534897D01*
X154655990Y-144534938D01*
X154655974Y-144535093D01*
X154624233Y-144637634D01*
X154573179Y-144732056D01*
X154504757Y-144814764D01*
X154421573Y-144882607D01*
X154415009Y-144886097D01*
X154386611Y-144904983D01*
X154358827Y-144932646D01*
X154336974Y-144965198D01*
X154321892Y-145001388D01*
X154314159Y-145039825D01*
X154314074Y-145079032D01*
X154321639Y-145117502D01*
X154336564Y-145153757D01*
X154358275Y-145186403D01*
X154385938Y-145214187D01*
X154412470Y-145232183D01*
X154427940Y-145240688D01*
X154510168Y-145309685D01*
X154577428Y-145393340D01*
X154627159Y-145488466D01*
X154657466Y-145591440D01*
X154657479Y-145591578D01*
X154657491Y-145591620D01*
X154667204Y-145698335D01*
X154656003Y-145804897D01*
X154655990Y-145804938D01*
X154655974Y-145805093D01*
X154624233Y-145907634D01*
X154573179Y-146002056D01*
X154504757Y-146084764D01*
X154421573Y-146152607D01*
X154326797Y-146203000D01*
X154224037Y-146234025D01*
X154117208Y-146244500D01*
X153508982Y-146244500D01*
X153501303Y-146244446D01*
X153394631Y-146232481D01*
X153292314Y-146200024D01*
X153198250Y-146148312D01*
X153116022Y-146079315D01*
X153048762Y-145995660D01*
X152999031Y-145900534D01*
X152968724Y-145797560D01*
X152968711Y-145797422D01*
X152968699Y-145797380D01*
X152958986Y-145690665D01*
X152970187Y-145584103D01*
X152970200Y-145584062D01*
X152970216Y-145583907D01*
X153001957Y-145481366D01*
X153053011Y-145386944D01*
X153121433Y-145304236D01*
X153204617Y-145236393D01*
X153211181Y-145232903D01*
X153239579Y-145214017D01*
X153267363Y-145186354D01*
X153289216Y-145153802D01*
X153304298Y-145117612D01*
X153312031Y-145079175D01*
X153312116Y-145039968D01*
X153304551Y-145001498D01*
X153289626Y-144965243D01*
X153267915Y-144932597D01*
X153240252Y-144904813D01*
X153213720Y-144886817D01*
X153198250Y-144878312D01*
X153116022Y-144809315D01*
X153048762Y-144725660D01*
X152999031Y-144630534D01*
X152968724Y-144527560D01*
X152968711Y-144527422D01*
X152968699Y-144527380D01*
X152958986Y-144420665D01*
X152970187Y-144314103D01*
X152970200Y-144314062D01*
X152970216Y-144313907D01*
X153001957Y-144211366D01*
X153053011Y-144116944D01*
X153121433Y-144034236D01*
X153204617Y-143966393D01*
X153211181Y-143962903D01*
X153239579Y-143944017D01*
X153267363Y-143916354D01*
X153289216Y-143883802D01*
X153304298Y-143847612D01*
X153312031Y-143809175D01*
X153312116Y-143769968D01*
X153304551Y-143731498D01*
X153289626Y-143695243D01*
X153267915Y-143662597D01*
X153240252Y-143634813D01*
X153213720Y-143616817D01*
X153198250Y-143608312D01*
X153116022Y-143539315D01*
X153048762Y-143455660D01*
X152999031Y-143360534D01*
X152968724Y-143257560D01*
X152968711Y-143257422D01*
X152968699Y-143257380D01*
X152958986Y-143150665D01*
X152970187Y-143044103D01*
X152970200Y-143044062D01*
X152970216Y-143043907D01*
X153001957Y-142941366D01*
X153053011Y-142846944D01*
X153121433Y-142764236D01*
X153163093Y-142730259D01*
X153188421Y-142705085D01*
X153210303Y-142672553D01*
X153225417Y-142636376D01*
X153233183Y-142597946D01*
X153233303Y-142558739D01*
X153225771Y-142520263D01*
X153210878Y-142483995D01*
X153189196Y-142451329D01*
X153161557Y-142423521D01*
X153128490Y-142401352D01*
X153096290Y-142384141D01*
X153096289Y-142384140D01*
X153096285Y-142384138D01*
X153050792Y-142346803D01*
X153013454Y-142301306D01*
X152985708Y-142249398D01*
X152968623Y-142193077D01*
X152961886Y-142124673D01*
X152961886Y-141644327D01*
X152968623Y-141575923D01*
X152985708Y-141519602D01*
X153013454Y-141467694D01*
X153050792Y-141422197D01*
X153096289Y-141384859D01*
X153148197Y-141357113D01*
X153204518Y-141340028D01*
X153272922Y-141333291D01*
X154353268Y-141333291D01*
X154421672Y-141340028D01*
X154421672Y-141340028D01*
G37*
G36*
X63289672Y-141314528D02*
X63345993Y-141331613D01*
X63397901Y-141359359D01*
X63443398Y-141396697D01*
X63480736Y-141442194D01*
X63508482Y-141494102D01*
X63525567Y-141550423D01*
X63532304Y-141618827D01*
X63532304Y-142099173D01*
X63525567Y-142167577D01*
X63508482Y-142223898D01*
X63480736Y-142275806D01*
X63443398Y-142321303D01*
X63397901Y-142358641D01*
X63365738Y-142375833D01*
X63333138Y-142397615D01*
X63305415Y-142425338D01*
X63283633Y-142457938D01*
X63268629Y-142494160D01*
X63260980Y-142532614D01*
X63260980Y-142571820D01*
X63268629Y-142610274D01*
X63283633Y-142646496D01*
X63305415Y-142679096D01*
X63328938Y-142702877D01*
X63378168Y-142744185D01*
X63445428Y-142827840D01*
X63495159Y-142922966D01*
X63525466Y-143025940D01*
X63525479Y-143026078D01*
X63525491Y-143026120D01*
X63535204Y-143132835D01*
X63524003Y-143239397D01*
X63523990Y-143239438D01*
X63523974Y-143239593D01*
X63492233Y-143342134D01*
X63441179Y-143436556D01*
X63372757Y-143519264D01*
X63289573Y-143587107D01*
X63283009Y-143590597D01*
X63254611Y-143609483D01*
X63226827Y-143637146D01*
X63204974Y-143669698D01*
X63189892Y-143705888D01*
X63182159Y-143744325D01*
X63182074Y-143783532D01*
X63189639Y-143822002D01*
X63204564Y-143858257D01*
X63226275Y-143890903D01*
X63253938Y-143918687D01*
X63280470Y-143936683D01*
X63295940Y-143945188D01*
X63378168Y-144014185D01*
X63445428Y-144097840D01*
X63495159Y-144192966D01*
X63525466Y-144295940D01*
X63525479Y-144296078D01*
X63525491Y-144296120D01*
X63535204Y-144402835D01*
X63524003Y-144509397D01*
X63523990Y-144509438D01*
X63523974Y-144509593D01*
X63492233Y-144612134D01*
X63441179Y-144706556D01*
X63372757Y-144789264D01*
X63289573Y-144857107D01*
X63283009Y-144860597D01*
X63254611Y-144879483D01*
X63226827Y-144907146D01*
X63204974Y-144939698D01*
X63189892Y-144975888D01*
X63182159Y-145014325D01*
X63182074Y-145053532D01*
X63189639Y-145092002D01*
X63204564Y-145128257D01*
X63226275Y-145160903D01*
X63253938Y-145188687D01*
X63280470Y-145206683D01*
X63295940Y-145215188D01*
X63378168Y-145284185D01*
X63445428Y-145367840D01*
X63495159Y-145462966D01*
X63525466Y-145565940D01*
X63525479Y-145566078D01*
X63525491Y-145566120D01*
X63535204Y-145672835D01*
X63524003Y-145779397D01*
X63523990Y-145779438D01*
X63523974Y-145779593D01*
X63492233Y-145882134D01*
X63441179Y-145976556D01*
X63372757Y-146059264D01*
X63289573Y-146127107D01*
X63194797Y-146177500D01*
X63092037Y-146208525D01*
X62985208Y-146219000D01*
X62376982Y-146219000D01*
X62369303Y-146218946D01*
X62262631Y-146206981D01*
X62160314Y-146174524D01*
X62066250Y-146122812D01*
X61984022Y-146053815D01*
X61916762Y-145970160D01*
X61867031Y-145875034D01*
X61836724Y-145772060D01*
X61836711Y-145771922D01*
X61836699Y-145771880D01*
X61826986Y-145665165D01*
X61838187Y-145558603D01*
X61838200Y-145558562D01*
X61838216Y-145558407D01*
X61869957Y-145455866D01*
X61921011Y-145361444D01*
X61989433Y-145278736D01*
X62072617Y-145210893D01*
X62079181Y-145207403D01*
X62107579Y-145188517D01*
X62135363Y-145160854D01*
X62157216Y-145128302D01*
X62172298Y-145092112D01*
X62180031Y-145053675D01*
X62180116Y-145014468D01*
X62172551Y-144975998D01*
X62157626Y-144939743D01*
X62135915Y-144907097D01*
X62108252Y-144879313D01*
X62081720Y-144861317D01*
X62066250Y-144852812D01*
X61984022Y-144783815D01*
X61916762Y-144700160D01*
X61867031Y-144605034D01*
X61836724Y-144502060D01*
X61836711Y-144501922D01*
X61836699Y-144501880D01*
X61826986Y-144395165D01*
X61838187Y-144288603D01*
X61838200Y-144288562D01*
X61838216Y-144288407D01*
X61869957Y-144185866D01*
X61921011Y-144091444D01*
X61989433Y-144008736D01*
X62072617Y-143940893D01*
X62079181Y-143937403D01*
X62107579Y-143918517D01*
X62135363Y-143890854D01*
X62157216Y-143858302D01*
X62172298Y-143822112D01*
X62180031Y-143783675D01*
X62180116Y-143744468D01*
X62172551Y-143705998D01*
X62157626Y-143669743D01*
X62135915Y-143637097D01*
X62108252Y-143609313D01*
X62081720Y-143591317D01*
X62066250Y-143582812D01*
X61984022Y-143513815D01*
X61916762Y-143430160D01*
X61867031Y-143335034D01*
X61836724Y-143232060D01*
X61836711Y-143231922D01*
X61836699Y-143231880D01*
X61826986Y-143125165D01*
X61838187Y-143018603D01*
X61838200Y-143018562D01*
X61838216Y-143018407D01*
X61869957Y-142915866D01*
X61921011Y-142821444D01*
X61989433Y-142738736D01*
X62031093Y-142704759D01*
X62056421Y-142679585D01*
X62078303Y-142647053D01*
X62093417Y-142610876D01*
X62101183Y-142572446D01*
X62101303Y-142533239D01*
X62093771Y-142494763D01*
X62078878Y-142458495D01*
X62057196Y-142425829D01*
X62029557Y-142398021D01*
X61996490Y-142375852D01*
X61964290Y-142358641D01*
X61964289Y-142358640D01*
X61964285Y-142358638D01*
X61918792Y-142321303D01*
X61881454Y-142275806D01*
X61853708Y-142223898D01*
X61836623Y-142167577D01*
X61829886Y-142099173D01*
X61829886Y-141618827D01*
X61836623Y-141550423D01*
X61853708Y-141494102D01*
X61881454Y-141442194D01*
X61918792Y-141396697D01*
X61964289Y-141359359D01*
X62016197Y-141331613D01*
X62072518Y-141314528D01*
X62140922Y-141307791D01*
X63221268Y-141307791D01*
X63289672Y-141314528D01*
X63289672Y-141314528D01*
G37*
G36*
X108908577Y-109150528D02*
X108964898Y-109167613D01*
X109016806Y-109195359D01*
X109062303Y-109232697D01*
X109099641Y-109278194D01*
X109127387Y-109330102D01*
X109144472Y-109386423D01*
X109151209Y-109454827D01*
X109151209Y-109935173D01*
X109144472Y-110003577D01*
X109127387Y-110059898D01*
X109099641Y-110111806D01*
X109062303Y-110157303D01*
X109016806Y-110194641D01*
X108984643Y-110211833D01*
X108952043Y-110233615D01*
X108924320Y-110261338D01*
X108902538Y-110293938D01*
X108887534Y-110330160D01*
X108879885Y-110368614D01*
X108879885Y-110407820D01*
X108887534Y-110446274D01*
X108902538Y-110482496D01*
X108924320Y-110515096D01*
X108947843Y-110538877D01*
X108997073Y-110580185D01*
X109064333Y-110663840D01*
X109114064Y-110758966D01*
X109144371Y-110861940D01*
X109144384Y-110862078D01*
X109144396Y-110862120D01*
X109154109Y-110968835D01*
X109142908Y-111075397D01*
X109142895Y-111075438D01*
X109142879Y-111075593D01*
X109111138Y-111178134D01*
X109060084Y-111272556D01*
X108991662Y-111355264D01*
X108908478Y-111423107D01*
X108901914Y-111426597D01*
X108873516Y-111445483D01*
X108845732Y-111473146D01*
X108823879Y-111505698D01*
X108808797Y-111541888D01*
X108801064Y-111580325D01*
X108800979Y-111619532D01*
X108808544Y-111658002D01*
X108823469Y-111694257D01*
X108845180Y-111726903D01*
X108872843Y-111754687D01*
X108899375Y-111772683D01*
X108914845Y-111781188D01*
X108997073Y-111850185D01*
X109064333Y-111933840D01*
X109114064Y-112028966D01*
X109144371Y-112131940D01*
X109144384Y-112132078D01*
X109144396Y-112132120D01*
X109154109Y-112238835D01*
X109142908Y-112345397D01*
X109142895Y-112345438D01*
X109142879Y-112345593D01*
X109111138Y-112448134D01*
X109060084Y-112542556D01*
X108991662Y-112625264D01*
X108908478Y-112693107D01*
X108901914Y-112696597D01*
X108873516Y-112715483D01*
X108845732Y-112743146D01*
X108823879Y-112775698D01*
X108808797Y-112811888D01*
X108801064Y-112850325D01*
X108800979Y-112889532D01*
X108808544Y-112928002D01*
X108823469Y-112964257D01*
X108845180Y-112996903D01*
X108872843Y-113024687D01*
X108899375Y-113042683D01*
X108914845Y-113051188D01*
X108997073Y-113120185D01*
X109064333Y-113203840D01*
X109114064Y-113298966D01*
X109144371Y-113401940D01*
X109144384Y-113402078D01*
X109144396Y-113402120D01*
X109154109Y-113508835D01*
X109142908Y-113615397D01*
X109142895Y-113615438D01*
X109142879Y-113615593D01*
X109111138Y-113718134D01*
X109060084Y-113812556D01*
X108991662Y-113895264D01*
X108908478Y-113963107D01*
X108813702Y-114013500D01*
X108710942Y-114044525D01*
X108604113Y-114055000D01*
X107995887Y-114055000D01*
X107988208Y-114054946D01*
X107881536Y-114042981D01*
X107779219Y-114010524D01*
X107685155Y-113958812D01*
X107602927Y-113889815D01*
X107535667Y-113806160D01*
X107485936Y-113711034D01*
X107455629Y-113608060D01*
X107455616Y-113607922D01*
X107455604Y-113607880D01*
X107445891Y-113501165D01*
X107457092Y-113394603D01*
X107457105Y-113394562D01*
X107457121Y-113394407D01*
X107488862Y-113291866D01*
X107539916Y-113197444D01*
X107608338Y-113114736D01*
X107691522Y-113046893D01*
X107698086Y-113043403D01*
X107726484Y-113024517D01*
X107754268Y-112996854D01*
X107776121Y-112964302D01*
X107791203Y-112928112D01*
X107798936Y-112889675D01*
X107799021Y-112850468D01*
X107791456Y-112811998D01*
X107776531Y-112775743D01*
X107754820Y-112743097D01*
X107727157Y-112715313D01*
X107700625Y-112697317D01*
X107685155Y-112688812D01*
X107602927Y-112619815D01*
X107535667Y-112536160D01*
X107485936Y-112441034D01*
X107455629Y-112338060D01*
X107455616Y-112337922D01*
X107455604Y-112337880D01*
X107445891Y-112231165D01*
X107457092Y-112124603D01*
X107457105Y-112124562D01*
X107457121Y-112124407D01*
X107488862Y-112021866D01*
X107539916Y-111927444D01*
X107608338Y-111844736D01*
X107691522Y-111776893D01*
X107698086Y-111773403D01*
X107726484Y-111754517D01*
X107754268Y-111726854D01*
X107776121Y-111694302D01*
X107791203Y-111658112D01*
X107798936Y-111619675D01*
X107799021Y-111580468D01*
X107791456Y-111541998D01*
X107776531Y-111505743D01*
X107754820Y-111473097D01*
X107727157Y-111445313D01*
X107700625Y-111427317D01*
X107685155Y-111418812D01*
X107602927Y-111349815D01*
X107535667Y-111266160D01*
X107485936Y-111171034D01*
X107455629Y-111068060D01*
X107455616Y-111067922D01*
X107455604Y-111067880D01*
X107445891Y-110961165D01*
X107457092Y-110854603D01*
X107457105Y-110854562D01*
X107457121Y-110854407D01*
X107488862Y-110751866D01*
X107539916Y-110657444D01*
X107608338Y-110574736D01*
X107649998Y-110540759D01*
X107675326Y-110515585D01*
X107697208Y-110483053D01*
X107712322Y-110446876D01*
X107720088Y-110408446D01*
X107720208Y-110369239D01*
X107712676Y-110330763D01*
X107697783Y-110294495D01*
X107676101Y-110261829D01*
X107648462Y-110234021D01*
X107615395Y-110211852D01*
X107583195Y-110194641D01*
X107583194Y-110194640D01*
X107583190Y-110194638D01*
X107537697Y-110157303D01*
X107500359Y-110111806D01*
X107472613Y-110059898D01*
X107455528Y-110003577D01*
X107448791Y-109935173D01*
X107448791Y-109454827D01*
X107455528Y-109386423D01*
X107472613Y-109330102D01*
X107500359Y-109278194D01*
X107537697Y-109232697D01*
X107583194Y-109195359D01*
X107635102Y-109167613D01*
X107691423Y-109150528D01*
X107759827Y-109143791D01*
X108840173Y-109143791D01*
X108908577Y-109150528D01*
X108908577Y-109150528D01*
G37*
G36*
X138908577Y-103250528D02*
X138964898Y-103267613D01*
X139016806Y-103295359D01*
X139062303Y-103332697D01*
X139099641Y-103378194D01*
X139127387Y-103430102D01*
X139144472Y-103486423D01*
X139151209Y-103554827D01*
X139151209Y-104035173D01*
X139144472Y-104103577D01*
X139127387Y-104159898D01*
X139099641Y-104211806D01*
X139062303Y-104257303D01*
X139016806Y-104294641D01*
X138984643Y-104311833D01*
X138952043Y-104333615D01*
X138924320Y-104361338D01*
X138902538Y-104393938D01*
X138887534Y-104430160D01*
X138879885Y-104468614D01*
X138879885Y-104507820D01*
X138887534Y-104546274D01*
X138902538Y-104582496D01*
X138924320Y-104615096D01*
X138947843Y-104638877D01*
X138997073Y-104680185D01*
X139064333Y-104763840D01*
X139114064Y-104858966D01*
X139144371Y-104961940D01*
X139144384Y-104962078D01*
X139144396Y-104962120D01*
X139154109Y-105068835D01*
X139142908Y-105175397D01*
X139142895Y-105175438D01*
X139142879Y-105175593D01*
X139111138Y-105278134D01*
X139060084Y-105372556D01*
X138991662Y-105455264D01*
X138908478Y-105523107D01*
X138901914Y-105526597D01*
X138873516Y-105545483D01*
X138845732Y-105573146D01*
X138823879Y-105605698D01*
X138808797Y-105641888D01*
X138801064Y-105680325D01*
X138800979Y-105719532D01*
X138808544Y-105758002D01*
X138823469Y-105794257D01*
X138845180Y-105826903D01*
X138872843Y-105854687D01*
X138899375Y-105872683D01*
X138914845Y-105881188D01*
X138997073Y-105950185D01*
X139064333Y-106033840D01*
X139114064Y-106128966D01*
X139144371Y-106231940D01*
X139144384Y-106232078D01*
X139144396Y-106232120D01*
X139154109Y-106338835D01*
X139142908Y-106445397D01*
X139142895Y-106445438D01*
X139142879Y-106445593D01*
X139111138Y-106548134D01*
X139060084Y-106642556D01*
X138991662Y-106725264D01*
X138908478Y-106793107D01*
X138901914Y-106796597D01*
X138873516Y-106815483D01*
X138845732Y-106843146D01*
X138823879Y-106875698D01*
X138808797Y-106911888D01*
X138801064Y-106950325D01*
X138800979Y-106989532D01*
X138808544Y-107028002D01*
X138823469Y-107064257D01*
X138845180Y-107096903D01*
X138872843Y-107124687D01*
X138899375Y-107142683D01*
X138914845Y-107151188D01*
X138997073Y-107220185D01*
X139064333Y-107303840D01*
X139114064Y-107398966D01*
X139144371Y-107501940D01*
X139144384Y-107502078D01*
X139144396Y-107502120D01*
X139154109Y-107608835D01*
X139142908Y-107715397D01*
X139142895Y-107715438D01*
X139142879Y-107715593D01*
X139111138Y-107818134D01*
X139060084Y-107912556D01*
X138991662Y-107995264D01*
X138908478Y-108063107D01*
X138813702Y-108113500D01*
X138710942Y-108144525D01*
X138604113Y-108155000D01*
X137995887Y-108155000D01*
X137988208Y-108154946D01*
X137881536Y-108142981D01*
X137779219Y-108110524D01*
X137685155Y-108058812D01*
X137602927Y-107989815D01*
X137535667Y-107906160D01*
X137485936Y-107811034D01*
X137455629Y-107708060D01*
X137455616Y-107707922D01*
X137455604Y-107707880D01*
X137445891Y-107601165D01*
X137457092Y-107494603D01*
X137457105Y-107494562D01*
X137457121Y-107494407D01*
X137488862Y-107391866D01*
X137539916Y-107297444D01*
X137608338Y-107214736D01*
X137691522Y-107146893D01*
X137698086Y-107143403D01*
X137726484Y-107124517D01*
X137754268Y-107096854D01*
X137776121Y-107064302D01*
X137791203Y-107028112D01*
X137798936Y-106989675D01*
X137799021Y-106950468D01*
X137791456Y-106911998D01*
X137776531Y-106875743D01*
X137754820Y-106843097D01*
X137727157Y-106815313D01*
X137700625Y-106797317D01*
X137685155Y-106788812D01*
X137602927Y-106719815D01*
X137535667Y-106636160D01*
X137485936Y-106541034D01*
X137455629Y-106438060D01*
X137455616Y-106437922D01*
X137455604Y-106437880D01*
X137445891Y-106331165D01*
X137457092Y-106224603D01*
X137457105Y-106224562D01*
X137457121Y-106224407D01*
X137488862Y-106121866D01*
X137539916Y-106027444D01*
X137608338Y-105944736D01*
X137691522Y-105876893D01*
X137698086Y-105873403D01*
X137726484Y-105854517D01*
X137754268Y-105826854D01*
X137776121Y-105794302D01*
X137791203Y-105758112D01*
X137798936Y-105719675D01*
X137799021Y-105680468D01*
X137791456Y-105641998D01*
X137776531Y-105605743D01*
X137754820Y-105573097D01*
X137727157Y-105545313D01*
X137700625Y-105527317D01*
X137685155Y-105518812D01*
X137602927Y-105449815D01*
X137535667Y-105366160D01*
X137485936Y-105271034D01*
X137455629Y-105168060D01*
X137455616Y-105167922D01*
X137455604Y-105167880D01*
X137445891Y-105061165D01*
X137457092Y-104954603D01*
X137457105Y-104954562D01*
X137457121Y-104954407D01*
X137488862Y-104851866D01*
X137539916Y-104757444D01*
X137608338Y-104674736D01*
X137649998Y-104640759D01*
X137675326Y-104615585D01*
X137697208Y-104583053D01*
X137712322Y-104546876D01*
X137720088Y-104508446D01*
X137720208Y-104469239D01*
X137712676Y-104430763D01*
X137697783Y-104394495D01*
X137676101Y-104361829D01*
X137648462Y-104334021D01*
X137615395Y-104311852D01*
X137583195Y-104294641D01*
X137583194Y-104294640D01*
X137583190Y-104294638D01*
X137537697Y-104257303D01*
X137500359Y-104211806D01*
X137472613Y-104159898D01*
X137455528Y-104103577D01*
X137448791Y-104035173D01*
X137448791Y-103554827D01*
X137455528Y-103486423D01*
X137472613Y-103430102D01*
X137500359Y-103378194D01*
X137537697Y-103332697D01*
X137583194Y-103295359D01*
X137635102Y-103267613D01*
X137691423Y-103250528D01*
X137759827Y-103243791D01*
X138840173Y-103243791D01*
X138908577Y-103250528D01*
X138908577Y-103250528D01*
G37*
G36*
X78808577Y-103214528D02*
X78864898Y-103231613D01*
X78916806Y-103259359D01*
X78962303Y-103296697D01*
X78999641Y-103342194D01*
X79027387Y-103394102D01*
X79044472Y-103450423D01*
X79051209Y-103518827D01*
X79051209Y-103999173D01*
X79044472Y-104067577D01*
X79027387Y-104123898D01*
X78999641Y-104175806D01*
X78962303Y-104221303D01*
X78916806Y-104258641D01*
X78884643Y-104275833D01*
X78852043Y-104297615D01*
X78824320Y-104325338D01*
X78802538Y-104357938D01*
X78787534Y-104394160D01*
X78779885Y-104432614D01*
X78779885Y-104471820D01*
X78787534Y-104510274D01*
X78802538Y-104546496D01*
X78824320Y-104579096D01*
X78847843Y-104602877D01*
X78897073Y-104644185D01*
X78964333Y-104727840D01*
X79014064Y-104822966D01*
X79044371Y-104925940D01*
X79044384Y-104926078D01*
X79044396Y-104926120D01*
X79054109Y-105032835D01*
X79042908Y-105139397D01*
X79042895Y-105139438D01*
X79042879Y-105139593D01*
X79011138Y-105242134D01*
X78960084Y-105336556D01*
X78891662Y-105419264D01*
X78808478Y-105487107D01*
X78801914Y-105490597D01*
X78773516Y-105509483D01*
X78745732Y-105537146D01*
X78723879Y-105569698D01*
X78708797Y-105605888D01*
X78701064Y-105644325D01*
X78700979Y-105683532D01*
X78708544Y-105722002D01*
X78723469Y-105758257D01*
X78745180Y-105790903D01*
X78772843Y-105818687D01*
X78799375Y-105836683D01*
X78814845Y-105845188D01*
X78897073Y-105914185D01*
X78964333Y-105997840D01*
X79014064Y-106092966D01*
X79044371Y-106195940D01*
X79044384Y-106196078D01*
X79044396Y-106196120D01*
X79054109Y-106302835D01*
X79042908Y-106409397D01*
X79042895Y-106409438D01*
X79042879Y-106409593D01*
X79011138Y-106512134D01*
X78960084Y-106606556D01*
X78891662Y-106689264D01*
X78808478Y-106757107D01*
X78801914Y-106760597D01*
X78773516Y-106779483D01*
X78745732Y-106807146D01*
X78723879Y-106839698D01*
X78708797Y-106875888D01*
X78701064Y-106914325D01*
X78700979Y-106953532D01*
X78708544Y-106992002D01*
X78723469Y-107028257D01*
X78745180Y-107060903D01*
X78772843Y-107088687D01*
X78799375Y-107106683D01*
X78814845Y-107115188D01*
X78897073Y-107184185D01*
X78964333Y-107267840D01*
X79014064Y-107362966D01*
X79044371Y-107465940D01*
X79044384Y-107466078D01*
X79044396Y-107466120D01*
X79054109Y-107572835D01*
X79042908Y-107679397D01*
X79042895Y-107679438D01*
X79042879Y-107679593D01*
X79011138Y-107782134D01*
X78960084Y-107876556D01*
X78891662Y-107959264D01*
X78808478Y-108027107D01*
X78713702Y-108077500D01*
X78610942Y-108108525D01*
X78504113Y-108119000D01*
X77895887Y-108119000D01*
X77888208Y-108118946D01*
X77781536Y-108106981D01*
X77679219Y-108074524D01*
X77585155Y-108022812D01*
X77502927Y-107953815D01*
X77435667Y-107870160D01*
X77385936Y-107775034D01*
X77355629Y-107672060D01*
X77355616Y-107671922D01*
X77355604Y-107671880D01*
X77345891Y-107565165D01*
X77357092Y-107458603D01*
X77357105Y-107458562D01*
X77357121Y-107458407D01*
X77388862Y-107355866D01*
X77439916Y-107261444D01*
X77508338Y-107178736D01*
X77591522Y-107110893D01*
X77598086Y-107107403D01*
X77626484Y-107088517D01*
X77654268Y-107060854D01*
X77676121Y-107028302D01*
X77691203Y-106992112D01*
X77698936Y-106953675D01*
X77699021Y-106914468D01*
X77691456Y-106875998D01*
X77676531Y-106839743D01*
X77654820Y-106807097D01*
X77627157Y-106779313D01*
X77600625Y-106761317D01*
X77585155Y-106752812D01*
X77502927Y-106683815D01*
X77435667Y-106600160D01*
X77385936Y-106505034D01*
X77355629Y-106402060D01*
X77355616Y-106401922D01*
X77355604Y-106401880D01*
X77345891Y-106295165D01*
X77357092Y-106188603D01*
X77357105Y-106188562D01*
X77357121Y-106188407D01*
X77388862Y-106085866D01*
X77439916Y-105991444D01*
X77508338Y-105908736D01*
X77591522Y-105840893D01*
X77598086Y-105837403D01*
X77626484Y-105818517D01*
X77654268Y-105790854D01*
X77676121Y-105758302D01*
X77691203Y-105722112D01*
X77698936Y-105683675D01*
X77699021Y-105644468D01*
X77691456Y-105605998D01*
X77676531Y-105569743D01*
X77654820Y-105537097D01*
X77627157Y-105509313D01*
X77600625Y-105491317D01*
X77585155Y-105482812D01*
X77502927Y-105413815D01*
X77435667Y-105330160D01*
X77385936Y-105235034D01*
X77355629Y-105132060D01*
X77355616Y-105131922D01*
X77355604Y-105131880D01*
X77345891Y-105025165D01*
X77357092Y-104918603D01*
X77357105Y-104918562D01*
X77357121Y-104918407D01*
X77388862Y-104815866D01*
X77439916Y-104721444D01*
X77508338Y-104638736D01*
X77549998Y-104604759D01*
X77575326Y-104579585D01*
X77597208Y-104547053D01*
X77612322Y-104510876D01*
X77620088Y-104472446D01*
X77620208Y-104433239D01*
X77612676Y-104394763D01*
X77597783Y-104358495D01*
X77576101Y-104325829D01*
X77548462Y-104298021D01*
X77515395Y-104275852D01*
X77483195Y-104258641D01*
X77483194Y-104258640D01*
X77483190Y-104258638D01*
X77437697Y-104221303D01*
X77400359Y-104175806D01*
X77372613Y-104123898D01*
X77355528Y-104067577D01*
X77348791Y-103999173D01*
X77348791Y-103518827D01*
X77355528Y-103450423D01*
X77372613Y-103394102D01*
X77400359Y-103342194D01*
X77437697Y-103296697D01*
X77483194Y-103259359D01*
X77535102Y-103231613D01*
X77591423Y-103214528D01*
X77659827Y-103207791D01*
X78740173Y-103207791D01*
X78808577Y-103214528D01*
X78808577Y-103214528D01*
G37*
G36*
X123008577Y-64071028D02*
X123064898Y-64088113D01*
X123116806Y-64115859D01*
X123162302Y-64153196D01*
X123199641Y-64198694D01*
X123227387Y-64250602D01*
X123244472Y-64306923D01*
X123251209Y-64375327D01*
X123251209Y-64855673D01*
X123244472Y-64924077D01*
X123227387Y-64980398D01*
X123199641Y-65032306D01*
X123162303Y-65077803D01*
X123116806Y-65115141D01*
X123084643Y-65132333D01*
X123052043Y-65154115D01*
X123024320Y-65181838D01*
X123002538Y-65214438D01*
X122987534Y-65250660D01*
X122979885Y-65289114D01*
X122979885Y-65328320D01*
X122987534Y-65366774D01*
X123002538Y-65402996D01*
X123024320Y-65435596D01*
X123047843Y-65459377D01*
X123097073Y-65500685D01*
X123164333Y-65584340D01*
X123214064Y-65679466D01*
X123244371Y-65782440D01*
X123244384Y-65782578D01*
X123244396Y-65782620D01*
X123254109Y-65889335D01*
X123242908Y-65995897D01*
X123242895Y-65995938D01*
X123242879Y-65996093D01*
X123211138Y-66098634D01*
X123160084Y-66193056D01*
X123091662Y-66275764D01*
X123008478Y-66343607D01*
X123001914Y-66347097D01*
X122973516Y-66365983D01*
X122945732Y-66393646D01*
X122923879Y-66426198D01*
X122908797Y-66462388D01*
X122901064Y-66500825D01*
X122900979Y-66540032D01*
X122908544Y-66578502D01*
X122923469Y-66614757D01*
X122945180Y-66647403D01*
X122972843Y-66675187D01*
X122999375Y-66693183D01*
X123014845Y-66701688D01*
X123097073Y-66770685D01*
X123164333Y-66854340D01*
X123214064Y-66949466D01*
X123244371Y-67052440D01*
X123244384Y-67052578D01*
X123244396Y-67052620D01*
X123254109Y-67159335D01*
X123242908Y-67265897D01*
X123242895Y-67265938D01*
X123242879Y-67266093D01*
X123211138Y-67368634D01*
X123160084Y-67463056D01*
X123091662Y-67545764D01*
X123008478Y-67613607D01*
X123001914Y-67617097D01*
X122973516Y-67635983D01*
X122945732Y-67663646D01*
X122923879Y-67696198D01*
X122908797Y-67732388D01*
X122901064Y-67770825D01*
X122900979Y-67810032D01*
X122908544Y-67848502D01*
X122923469Y-67884757D01*
X122945180Y-67917403D01*
X122972843Y-67945187D01*
X122999375Y-67963183D01*
X123014845Y-67971688D01*
X123097073Y-68040685D01*
X123164333Y-68124340D01*
X123214064Y-68219466D01*
X123244371Y-68322440D01*
X123244384Y-68322578D01*
X123244396Y-68322620D01*
X123254109Y-68429335D01*
X123242908Y-68535897D01*
X123242895Y-68535938D01*
X123242879Y-68536093D01*
X123211138Y-68638634D01*
X123160084Y-68733056D01*
X123091662Y-68815764D01*
X123008478Y-68883607D01*
X122913702Y-68934000D01*
X122810942Y-68965025D01*
X122704113Y-68975500D01*
X122095887Y-68975500D01*
X122088208Y-68975446D01*
X121981536Y-68963481D01*
X121879219Y-68931024D01*
X121785155Y-68879312D01*
X121702927Y-68810315D01*
X121635667Y-68726660D01*
X121585936Y-68631534D01*
X121555629Y-68528560D01*
X121555616Y-68528422D01*
X121555604Y-68528380D01*
X121545891Y-68421665D01*
X121557092Y-68315103D01*
X121557105Y-68315062D01*
X121557121Y-68314907D01*
X121588862Y-68212366D01*
X121639916Y-68117944D01*
X121708338Y-68035236D01*
X121791522Y-67967393D01*
X121798086Y-67963903D01*
X121826484Y-67945017D01*
X121854268Y-67917354D01*
X121876121Y-67884802D01*
X121891203Y-67848612D01*
X121898936Y-67810175D01*
X121899021Y-67770968D01*
X121891456Y-67732498D01*
X121876531Y-67696243D01*
X121854820Y-67663597D01*
X121827157Y-67635813D01*
X121800625Y-67617817D01*
X121785155Y-67609312D01*
X121702927Y-67540315D01*
X121635667Y-67456660D01*
X121585936Y-67361534D01*
X121555629Y-67258560D01*
X121555616Y-67258422D01*
X121555604Y-67258380D01*
X121545891Y-67151665D01*
X121557092Y-67045103D01*
X121557105Y-67045062D01*
X121557121Y-67044907D01*
X121588862Y-66942366D01*
X121639916Y-66847944D01*
X121708338Y-66765236D01*
X121791522Y-66697393D01*
X121798086Y-66693903D01*
X121826484Y-66675017D01*
X121854268Y-66647354D01*
X121876121Y-66614802D01*
X121891203Y-66578612D01*
X121898936Y-66540175D01*
X121899021Y-66500968D01*
X121891456Y-66462498D01*
X121876531Y-66426243D01*
X121854820Y-66393597D01*
X121827157Y-66365813D01*
X121800625Y-66347817D01*
X121785155Y-66339312D01*
X121702927Y-66270315D01*
X121635667Y-66186660D01*
X121585936Y-66091534D01*
X121555629Y-65988560D01*
X121555616Y-65988422D01*
X121555604Y-65988380D01*
X121545891Y-65881665D01*
X121557092Y-65775103D01*
X121557105Y-65775062D01*
X121557121Y-65774907D01*
X121588862Y-65672366D01*
X121639916Y-65577944D01*
X121708338Y-65495236D01*
X121749998Y-65461259D01*
X121775326Y-65436085D01*
X121797208Y-65403553D01*
X121812322Y-65367376D01*
X121820088Y-65328946D01*
X121820208Y-65289739D01*
X121812676Y-65251263D01*
X121797783Y-65214995D01*
X121776101Y-65182329D01*
X121748462Y-65154521D01*
X121715395Y-65132352D01*
X121683195Y-65115141D01*
X121683194Y-65115140D01*
X121683190Y-65115138D01*
X121637697Y-65077803D01*
X121600359Y-65032306D01*
X121572613Y-64980398D01*
X121555528Y-64924077D01*
X121548791Y-64855673D01*
X121548791Y-64375327D01*
X121555528Y-64306923D01*
X121572613Y-64250602D01*
X121600359Y-64198694D01*
X121637698Y-64153196D01*
X121683194Y-64115859D01*
X121735102Y-64088113D01*
X121791423Y-64071028D01*
X121859827Y-64064291D01*
X122940173Y-64064291D01*
X123008577Y-64071028D01*
X123008577Y-64071028D01*
G37*
G36*
X94708577Y-64050528D02*
X94764898Y-64067613D01*
X94816806Y-64095359D01*
X94862303Y-64132697D01*
X94899641Y-64178194D01*
X94927387Y-64230102D01*
X94944472Y-64286423D01*
X94951209Y-64354827D01*
X94951209Y-64835173D01*
X94944472Y-64903577D01*
X94927387Y-64959898D01*
X94899641Y-65011806D01*
X94862303Y-65057303D01*
X94816806Y-65094641D01*
X94784643Y-65111833D01*
X94752043Y-65133615D01*
X94724320Y-65161338D01*
X94702538Y-65193938D01*
X94687534Y-65230160D01*
X94679885Y-65268614D01*
X94679885Y-65307820D01*
X94687534Y-65346274D01*
X94702538Y-65382496D01*
X94724320Y-65415096D01*
X94747843Y-65438877D01*
X94797073Y-65480185D01*
X94864333Y-65563840D01*
X94914064Y-65658966D01*
X94944371Y-65761940D01*
X94944384Y-65762078D01*
X94944396Y-65762120D01*
X94954109Y-65868835D01*
X94942908Y-65975397D01*
X94942895Y-65975438D01*
X94942879Y-65975593D01*
X94911138Y-66078134D01*
X94860084Y-66172556D01*
X94791662Y-66255264D01*
X94708478Y-66323107D01*
X94701914Y-66326597D01*
X94673516Y-66345483D01*
X94645732Y-66373146D01*
X94623879Y-66405698D01*
X94608797Y-66441888D01*
X94601064Y-66480325D01*
X94600979Y-66519532D01*
X94608544Y-66558002D01*
X94623469Y-66594257D01*
X94645180Y-66626903D01*
X94672843Y-66654687D01*
X94699375Y-66672683D01*
X94714845Y-66681188D01*
X94797073Y-66750185D01*
X94864333Y-66833840D01*
X94914064Y-66928966D01*
X94944371Y-67031940D01*
X94944384Y-67032078D01*
X94944396Y-67032120D01*
X94954109Y-67138835D01*
X94942908Y-67245397D01*
X94942895Y-67245438D01*
X94942879Y-67245593D01*
X94911138Y-67348134D01*
X94860084Y-67442556D01*
X94791662Y-67525264D01*
X94708478Y-67593107D01*
X94701914Y-67596597D01*
X94673516Y-67615483D01*
X94645732Y-67643146D01*
X94623879Y-67675698D01*
X94608797Y-67711888D01*
X94601064Y-67750325D01*
X94600979Y-67789532D01*
X94608544Y-67828002D01*
X94623469Y-67864257D01*
X94645180Y-67896903D01*
X94672843Y-67924687D01*
X94699375Y-67942683D01*
X94714845Y-67951188D01*
X94797073Y-68020185D01*
X94864333Y-68103840D01*
X94914064Y-68198966D01*
X94944371Y-68301940D01*
X94944384Y-68302078D01*
X94944396Y-68302120D01*
X94954109Y-68408835D01*
X94942908Y-68515397D01*
X94942895Y-68515438D01*
X94942879Y-68515593D01*
X94911138Y-68618134D01*
X94860084Y-68712556D01*
X94791662Y-68795264D01*
X94708478Y-68863107D01*
X94613702Y-68913500D01*
X94510942Y-68944525D01*
X94404113Y-68955000D01*
X93795887Y-68955000D01*
X93788208Y-68954946D01*
X93681536Y-68942981D01*
X93579219Y-68910524D01*
X93485155Y-68858812D01*
X93402927Y-68789815D01*
X93335667Y-68706160D01*
X93285936Y-68611034D01*
X93255629Y-68508060D01*
X93255616Y-68507922D01*
X93255604Y-68507880D01*
X93245891Y-68401165D01*
X93257092Y-68294603D01*
X93257105Y-68294562D01*
X93257121Y-68294407D01*
X93288862Y-68191866D01*
X93339916Y-68097444D01*
X93408338Y-68014736D01*
X93491522Y-67946893D01*
X93498086Y-67943403D01*
X93526484Y-67924517D01*
X93554268Y-67896854D01*
X93576121Y-67864302D01*
X93591203Y-67828112D01*
X93598936Y-67789675D01*
X93599021Y-67750468D01*
X93591456Y-67711998D01*
X93576531Y-67675743D01*
X93554820Y-67643097D01*
X93527157Y-67615313D01*
X93500625Y-67597317D01*
X93485155Y-67588812D01*
X93402927Y-67519815D01*
X93335667Y-67436160D01*
X93285936Y-67341034D01*
X93255629Y-67238060D01*
X93255616Y-67237922D01*
X93255604Y-67237880D01*
X93245891Y-67131165D01*
X93257092Y-67024603D01*
X93257105Y-67024562D01*
X93257121Y-67024407D01*
X93288862Y-66921866D01*
X93339916Y-66827444D01*
X93408338Y-66744736D01*
X93491522Y-66676893D01*
X93498086Y-66673403D01*
X93526484Y-66654517D01*
X93554268Y-66626854D01*
X93576121Y-66594302D01*
X93591203Y-66558112D01*
X93598936Y-66519675D01*
X93599021Y-66480468D01*
X93591456Y-66441998D01*
X93576531Y-66405743D01*
X93554820Y-66373097D01*
X93527157Y-66345313D01*
X93500625Y-66327317D01*
X93485155Y-66318812D01*
X93402927Y-66249815D01*
X93335667Y-66166160D01*
X93285936Y-66071034D01*
X93255629Y-65968060D01*
X93255616Y-65967922D01*
X93255604Y-65967880D01*
X93245891Y-65861165D01*
X93257092Y-65754603D01*
X93257105Y-65754562D01*
X93257121Y-65754407D01*
X93288862Y-65651866D01*
X93339916Y-65557444D01*
X93408338Y-65474736D01*
X93449998Y-65440759D01*
X93475326Y-65415585D01*
X93497208Y-65383053D01*
X93512322Y-65346876D01*
X93520088Y-65308446D01*
X93520208Y-65269239D01*
X93512676Y-65230763D01*
X93497783Y-65194495D01*
X93476101Y-65161829D01*
X93448462Y-65134021D01*
X93415395Y-65111852D01*
X93383195Y-65094641D01*
X93383194Y-65094640D01*
X93383190Y-65094638D01*
X93337697Y-65057303D01*
X93300359Y-65011806D01*
X93272613Y-64959898D01*
X93255528Y-64903577D01*
X93248791Y-64835173D01*
X93248791Y-64354827D01*
X93255528Y-64286423D01*
X93272613Y-64230102D01*
X93300359Y-64178194D01*
X93337697Y-64132697D01*
X93383194Y-64095359D01*
X93435102Y-64067613D01*
X93491423Y-64050528D01*
X93559827Y-64043791D01*
X94640173Y-64043791D01*
X94708577Y-64050528D01*
X94708577Y-64050528D01*
G37*
G36*
X108908577Y-29296028D02*
X108964898Y-29313113D01*
X109016806Y-29340859D01*
X109062303Y-29378197D01*
X109099641Y-29423694D01*
X109127387Y-29475602D01*
X109144472Y-29531923D01*
X109151209Y-29600327D01*
X109151209Y-30080673D01*
X109144472Y-30149077D01*
X109127387Y-30205398D01*
X109099641Y-30257306D01*
X109062303Y-30302803D01*
X109016806Y-30340141D01*
X108984643Y-30357333D01*
X108952043Y-30379115D01*
X108924320Y-30406838D01*
X108902538Y-30439438D01*
X108887534Y-30475660D01*
X108879885Y-30514114D01*
X108879885Y-30553320D01*
X108887534Y-30591774D01*
X108902538Y-30627996D01*
X108924320Y-30660596D01*
X108947843Y-30684377D01*
X108997073Y-30725685D01*
X109064333Y-30809340D01*
X109114064Y-30904466D01*
X109144371Y-31007440D01*
X109144384Y-31007578D01*
X109144396Y-31007620D01*
X109154109Y-31114335D01*
X109142908Y-31220897D01*
X109142895Y-31220938D01*
X109142879Y-31221093D01*
X109111138Y-31323634D01*
X109060084Y-31418056D01*
X108991662Y-31500764D01*
X108908478Y-31568607D01*
X108901914Y-31572097D01*
X108873516Y-31590983D01*
X108845732Y-31618646D01*
X108823879Y-31651198D01*
X108808797Y-31687388D01*
X108801064Y-31725825D01*
X108800979Y-31765032D01*
X108808544Y-31803502D01*
X108823469Y-31839757D01*
X108845180Y-31872403D01*
X108872843Y-31900187D01*
X108899375Y-31918183D01*
X108914845Y-31926688D01*
X108997073Y-31995685D01*
X109064333Y-32079340D01*
X109114064Y-32174466D01*
X109144371Y-32277440D01*
X109144384Y-32277578D01*
X109144396Y-32277620D01*
X109154109Y-32384335D01*
X109142908Y-32490897D01*
X109142895Y-32490938D01*
X109142879Y-32491093D01*
X109111138Y-32593634D01*
X109060084Y-32688056D01*
X108991662Y-32770764D01*
X108908478Y-32838607D01*
X108901914Y-32842097D01*
X108873516Y-32860983D01*
X108845732Y-32888646D01*
X108823879Y-32921198D01*
X108808797Y-32957388D01*
X108801064Y-32995825D01*
X108800979Y-33035032D01*
X108808544Y-33073502D01*
X108823469Y-33109757D01*
X108845180Y-33142403D01*
X108872843Y-33170187D01*
X108899375Y-33188183D01*
X108914845Y-33196688D01*
X108997073Y-33265685D01*
X109064333Y-33349340D01*
X109114064Y-33444466D01*
X109144371Y-33547440D01*
X109144384Y-33547578D01*
X109144396Y-33547620D01*
X109154109Y-33654335D01*
X109142908Y-33760897D01*
X109142895Y-33760938D01*
X109142879Y-33761093D01*
X109111138Y-33863634D01*
X109060084Y-33958056D01*
X108991662Y-34040764D01*
X108908478Y-34108607D01*
X108813702Y-34159000D01*
X108710942Y-34190025D01*
X108604113Y-34200500D01*
X107995887Y-34200500D01*
X107988208Y-34200446D01*
X107881536Y-34188481D01*
X107779219Y-34156024D01*
X107685155Y-34104312D01*
X107602927Y-34035315D01*
X107535667Y-33951660D01*
X107485936Y-33856534D01*
X107455629Y-33753560D01*
X107455616Y-33753422D01*
X107455604Y-33753380D01*
X107445891Y-33646665D01*
X107457092Y-33540103D01*
X107457105Y-33540062D01*
X107457121Y-33539907D01*
X107488862Y-33437366D01*
X107539916Y-33342944D01*
X107608338Y-33260236D01*
X107691522Y-33192393D01*
X107698086Y-33188903D01*
X107726484Y-33170017D01*
X107754268Y-33142354D01*
X107776121Y-33109802D01*
X107791203Y-33073612D01*
X107798936Y-33035175D01*
X107799021Y-32995968D01*
X107791456Y-32957498D01*
X107776531Y-32921243D01*
X107754820Y-32888597D01*
X107727157Y-32860813D01*
X107700625Y-32842817D01*
X107685155Y-32834312D01*
X107602927Y-32765315D01*
X107535667Y-32681660D01*
X107485936Y-32586534D01*
X107455629Y-32483560D01*
X107455616Y-32483422D01*
X107455604Y-32483380D01*
X107445891Y-32376665D01*
X107457092Y-32270103D01*
X107457105Y-32270062D01*
X107457121Y-32269907D01*
X107488862Y-32167366D01*
X107539916Y-32072944D01*
X107608338Y-31990236D01*
X107691522Y-31922393D01*
X107698086Y-31918903D01*
X107726484Y-31900017D01*
X107754268Y-31872354D01*
X107776121Y-31839802D01*
X107791203Y-31803612D01*
X107798936Y-31765175D01*
X107799021Y-31725968D01*
X107791456Y-31687498D01*
X107776531Y-31651243D01*
X107754820Y-31618597D01*
X107727157Y-31590813D01*
X107700625Y-31572817D01*
X107685155Y-31564312D01*
X107602927Y-31495315D01*
X107535667Y-31411660D01*
X107485936Y-31316534D01*
X107455629Y-31213560D01*
X107455616Y-31213422D01*
X107455604Y-31213380D01*
X107445891Y-31106665D01*
X107457092Y-31000103D01*
X107457105Y-31000062D01*
X107457121Y-30999907D01*
X107488862Y-30897366D01*
X107539916Y-30802944D01*
X107608338Y-30720236D01*
X107649998Y-30686259D01*
X107675326Y-30661085D01*
X107697208Y-30628553D01*
X107712322Y-30592376D01*
X107720088Y-30553946D01*
X107720208Y-30514739D01*
X107712676Y-30476263D01*
X107697783Y-30439995D01*
X107676101Y-30407329D01*
X107648462Y-30379521D01*
X107615395Y-30357352D01*
X107583195Y-30340141D01*
X107583194Y-30340140D01*
X107583190Y-30340138D01*
X107537697Y-30302803D01*
X107500359Y-30257306D01*
X107472613Y-30205398D01*
X107455528Y-30149077D01*
X107448791Y-30080673D01*
X107448791Y-29600327D01*
X107455528Y-29531923D01*
X107472613Y-29475602D01*
X107500359Y-29423694D01*
X107537697Y-29378197D01*
X107583194Y-29340859D01*
X107635102Y-29313113D01*
X107691423Y-29296028D01*
X107759827Y-29289291D01*
X108840173Y-29289291D01*
X108908577Y-29296028D01*
X108908577Y-29296028D01*
G37*
M02*
