M48
;DRILL file {KiCad no-vcs-found-ef6910f~59~ubuntu16.04.1} date Wed Aug  9 10:10:17 2017
;FORMAT={-:-/ absolute / inch / decimal}
FMAT,2
INCH,TZ
T1C0.012
T2C0.017
T3C0.031
%
G90
G05
M72
T1
X4.1971Y-4.7454
X4.1971Y-4.7966
X4.1971Y-4.8477
X4.1971Y-4.8989
X4.1971Y-4.9501
X4.1971Y-5.0013
X4.1971Y-5.0525
X4.1971Y-5.1036
X4.1971Y-5.1548
X4.1971Y-5.206
X4.1971Y-5.2572
X4.2483Y-4.7454
X4.2483Y-4.7966
X4.2483Y-4.8477
X4.2483Y-4.8989
X4.2483Y-4.9501
X4.2483Y-5.0013
X4.2483Y-5.0525
X4.2483Y-5.1036
X4.2483Y-5.1548
X4.2483Y-5.206
X4.2483Y-5.2572
X4.2995Y-4.7454
X4.2995Y-4.7966
X4.2995Y-4.8477
X4.2995Y-4.8989
X4.2995Y-4.9501
X4.2995Y-5.0013
X4.2995Y-5.0525
X4.2995Y-5.1036
X4.2995Y-5.1548
X4.2995Y-5.206
X4.2995Y-5.2572
X4.3507Y-4.7454
X4.3507Y-4.7966
X4.3507Y-4.8477
X4.3507Y-4.8989
X4.3507Y-4.9501
X4.3507Y-5.0013
X4.3507Y-5.0525
X4.3507Y-5.1036
X4.3507Y-5.1548
X4.3507Y-5.206
X4.3507Y-5.2572
T2
X3.8287Y-6.2795
X3.8287Y-6.3878
X3.937Y-6.2008
X4.0677Y-4.6441
X4.0926Y-4.6675
X4.0982Y-5.3691
X4.1142Y-6.7244
X4.1176Y-4.6895
X4.1228Y-5.3466
X4.1339Y-6.2008
X4.1339Y-6.8228
X4.1378Y-6.9213
X4.1457Y-5.3224
X4.1496Y-1.7598
X4.1811Y-1.4764
X4.1831Y-6.2992
X4.2913Y-6.3484
X4.3209Y-1.5551
X4.4913Y-4.7343
X4.5315Y-6.8268
X4.5472Y-4.3687
X4.5665Y-5.4
X4.5748Y-6.9764
X4.685Y-6.6732
X4.685Y-6.7441
X4.685Y-6.8268
X4.7717Y-6.8031
X4.7717Y-6.9724
X5.1575Y-5.876
X5.5906Y-5.6299
X5.Y-8.4
X3.878Y-5.748
X1.85Y-6.
X4.3Y-5.4
X4.8Y-5.
X5.3Y-2.7
X3.4Y-7.7
X6.3Y-4.25
X2.65Y-3.95
X3.3071Y-4.2323
X6.7Y-5.5
X3.4Y-7.6
X2.35Y-5.05
X4.4Y-5.5
X4.Y-7.6
X7.15Y-5.75
X4.Y-7.4
X3.4Y-7.3
X3.7Y-7.5
X7.5Y-7.2
X3.3Y-3.15
X2.6Y-8.4
X3.7Y-7.4
X5.45Y-3.55
X3.7Y-7.6
X3.05Y-8.4
X4.Y-7.5
X4.3Y-4.6
X2.Y-8.25
X4.Y-7.7
X3.85Y-7.3
X5.45Y-8.4
X0.6Y-7.45
X3.6929Y-5.6496
X1.5Y-6.75
X2.8543Y-5.6299
X4.Y-7.3
X3.8Y-2.05
X4.8307Y-3.1535
X4.05Y-1.55
X6.15Y-5.05
X4.7Y-2.05
X7.Y-8.
X2.8Y-8.15
X4.5Y-5.4
X6.5Y-8.25
X3.85Y-7.6
X2.25Y-4.25
X3.4Y-7.5
X7.Y-6.75
X3.05Y-3.55
X3.7Y-4.7
X3.4Y-7.4
X3.3Y-2.65
X5.2Y-3.15
X3.85Y-7.4
X3.55Y-7.3
X3.5Y-8.4
X3.85Y-7.5
X1.35Y-5.75
X5.7Y-8.15
X1.Y-7.7
X1.85Y-5.5
X4.5Y-8.4
X1.Y-7.2
X4.8307Y-4.5551
X4.0354Y-4.2717
X3.6Y-5.
X5.85Y-4.65
X7.5Y-7.7
X7.9Y-7.45
X4.8189Y-5.6535
X3.55Y-7.6
X2.7Y-4.65
X6.65Y-6.
X3.7Y-7.3
X2.8Y-2.95
X5.7Y-2.95
X4.2Y-5.5
X4.Y-8.4
X3.55Y-7.5
X5.9Y-3.95
X3.55Y-7.4
X5.1969Y-4.3209
X4.4Y-4.5
X1.5Y-8.
X6.Y-8.4
T3
X3.7047Y-2.5431
X3.7047Y-2.5931
X3.7047Y-2.6431
X3.7047Y-2.6931
X2.4678Y-5.585
X2.4678Y-5.635
X2.4678Y-5.685
X2.4678Y-5.735
X3.0039Y-7.614
X3.0039Y-7.664
X3.0039Y-7.714
X3.0039Y-7.764
X1.7914Y-7.2519
X1.7914Y-7.3019
X1.7914Y-7.3519
X1.7914Y-7.4019
X6.0556Y-5.586
X6.0556Y-5.636
X6.0556Y-5.686
X6.0556Y-5.736
X4.2638Y-4.3187
X4.2638Y-4.3687
X4.2638Y-4.4187
X4.2638Y-4.4687
X3.6513Y-5.899
X3.6513Y-5.949
X3.6513Y-5.999
X3.6513Y-6.049
X3.0787Y-4.085
X3.0787Y-4.135
X3.0787Y-4.185
X3.0787Y-4.235
X4.2638Y-7.736
X4.2638Y-7.786
X4.2638Y-7.836
X4.2638Y-7.886
X4.8189Y-2.5439
X4.8189Y-2.5939
X4.8189Y-2.6439
X4.8189Y-2.6939
X6.7362Y-7.2504
X6.7362Y-7.3004
X6.7362Y-7.3504
X6.7362Y-7.4004
X5.4449Y-4.0864
X5.4449Y-4.1364
X5.4449Y-4.1864
X5.4449Y-4.2364
X5.5236Y-7.614
X5.5236Y-7.664
X5.5236Y-7.714
X5.5236Y-7.764
X4.874Y-5.8974
X4.874Y-5.9474
X4.874Y-5.9974
X4.874Y-6.0474
X4.2638Y-1.1748
X4.2638Y-1.2248
X4.2638Y-1.2748
X4.2638Y-1.3248
T0
M30
