%FSLAX45Y45*%
G04 Gerber Fmt 4.5, Leading zero omitted, Abs format (unit mm)*
G04 Created by KiCad (PCBNEW no-vcs-found-ef6910f~59~ubuntu16.04.1) date Wed Aug  9 10:10:17 2017*
%MOMM*%
%LPD*%
G01*
G04 APERTURE LIST*
%ADD10C,0.100000*%
%ADD11C,0.200000*%
%ADD12C,0.300000*%
G04 APERTURE END LIST*
D10*
X7239696Y-9215229D02*
G75*
G02X6442630Y-9922993I-3397946J3023979D01*
G01*
X5565207Y-10534523D02*
X6442630Y-9922993D01*
X5746750Y-11112500D02*
G75*
G02X5565207Y-10534523I0J317500D01*
G01*
X6381750Y-11112500D02*
X5746750Y-11112500D01*
X6858000Y-21272500D02*
G75*
G02X7493000Y-21272500I317500J0D01*
G01*
X7493000Y-21590000D02*
X7493000Y-21272500D01*
X1459714Y-19165758D02*
G75*
G02X1478736Y-18606536I159536J274508D01*
G01*
X4302743Y-20818045D02*
X1459714Y-19165758D01*
X13843000Y-6826250D02*
G75*
G02X12096750Y-4921250I2275965J3839165D01*
G01*
X11114668Y-2882424D02*
X12096750Y-4921250D01*
X14160500Y-21590000D02*
X7493000Y-21590000D01*
X14160500Y-21272500D02*
X14160500Y-21590000D01*
X16088293Y-10534523D02*
G75*
G02X15906750Y-11112500I-181543J-260478D01*
G01*
X15210870Y-9922993D02*
X16088293Y-10534523D01*
X15026713Y-11631899D02*
G75*
G02X15271750Y-11112500I245037J201899D01*
G01*
X15906750Y-11112500D02*
X15271750Y-11112500D01*
X4092471Y-16237419D02*
G75*
G02X2223191Y-18239128I-3584471J1473669D01*
G01*
X1478736Y-18606536D02*
X2223191Y-18239128D01*
X7175500Y-7778750D02*
G75*
G02X7030429Y-7178831I0J317500D01*
G01*
X7810500Y-7778750D02*
X7175500Y-7778750D01*
X17200599Y-15360728D02*
G75*
G02X17494250Y-14922500I293651J120728D01*
G01*
X18129250Y-14922500D02*
X17494250Y-14922500D01*
X6858000Y-21590000D02*
G75*
G02X4302743Y-20818045I371285J5844064D01*
G01*
X6858000Y-21272500D02*
X6858000Y-21590000D01*
X9556750Y-4921250D02*
G75*
G02X7810500Y-6826250I-4022215J1934166D01*
G01*
X7030429Y-7178831D02*
X7810500Y-6826250D01*
X14623071Y-7178831D02*
G75*
G02X14478000Y-7778750I-145071J-282419D01*
G01*
X13843000Y-6826250D02*
X14623071Y-7178831D01*
X13605822Y-8307325D02*
G75*
G02X13843000Y-7778750I237178J211075D01*
G01*
X14478000Y-7778750D02*
X13843000Y-7778750D01*
X10538832Y-2882424D02*
G75*
G02X11114668Y-2882424I287918J-133826D01*
G01*
X9556750Y-4921250D02*
X10538832Y-2882424D01*
X19430309Y-18239128D02*
G75*
G02X17561029Y-16237419I1715191J3475378D01*
G01*
X17200599Y-15360728D02*
X17561029Y-16237419D01*
X17617768Y-14015309D02*
G75*
G02X15881011Y-12668730I2113116J4518686D01*
G01*
X15026713Y-11631899D02*
X15881011Y-12668730D01*
X18263746Y-14317394D02*
G75*
G02X18129250Y-14922500I-134496J-287606D01*
G01*
X17617768Y-14015309D02*
X18263746Y-14317394D01*
X17350757Y-20818045D02*
G75*
G02X14795500Y-21590000I-2926541J5072109D01*
G01*
X20193786Y-19165758D02*
X17350757Y-20818045D01*
X6381750Y-11112500D02*
G75*
G02X6626787Y-11631899I0J-317500D01*
G01*
X5772489Y-12668730D02*
X6626787Y-11631899D01*
X7810500Y-7778750D02*
G75*
G02X8047678Y-8307325I0J-317500D01*
G01*
X7239696Y-9215229D02*
X8047678Y-8307325D01*
X15210870Y-9922993D02*
G75*
G02X14413804Y-9215229I2600880J3731743D01*
G01*
X13605822Y-8307325D02*
X14413804Y-9215229D01*
X14160500Y-21272500D02*
G75*
G02X14795500Y-21272500I317500J0D01*
G01*
X14795500Y-21590000D02*
X14795500Y-21272500D01*
X20174764Y-18606536D02*
G75*
G02X20193786Y-19165758I-140514J-284714D01*
G01*
X19430309Y-18239128D02*
X20174764Y-18606536D01*
X4159250Y-14922500D02*
G75*
G02X4452901Y-15360728I0J-317500D01*
G01*
X4092471Y-16237419D02*
X4452901Y-15360728D01*
X3524250Y-14922500D02*
G75*
G02X3389754Y-14317394I0J317500D01*
G01*
X4159250Y-14922500D02*
X3524250Y-14922500D01*
X5772489Y-12668730D02*
G75*
G02X4035732Y-14015309I-3849873J3172106D01*
G01*
X3389754Y-14317394D02*
X4035732Y-14015309D01*
D11*
X10645758Y-12038261D02*
X10675758Y-12068261D01*
X10675758Y-12038261D02*
X10645758Y-12068261D01*
X10645758Y-12168261D02*
X10675758Y-12198261D01*
X10675758Y-12168261D02*
X10645758Y-12198261D01*
X10645758Y-12298261D02*
X10675758Y-12328261D01*
X10675758Y-12298261D02*
X10645758Y-12328261D01*
X10645758Y-12428261D02*
X10675758Y-12458261D01*
X10675758Y-12428261D02*
X10645758Y-12458261D01*
X10645758Y-12558261D02*
X10675758Y-12588261D01*
X10675758Y-12558261D02*
X10645758Y-12588261D01*
X10645758Y-12688261D02*
X10675758Y-12718261D01*
X10675758Y-12688261D02*
X10645758Y-12718261D01*
X10645758Y-12818261D02*
X10675758Y-12848261D01*
X10675758Y-12818261D02*
X10645758Y-12848261D01*
X10645758Y-12948261D02*
X10675758Y-12978261D01*
X10675758Y-12948261D02*
X10645758Y-12978261D01*
X10645758Y-13078261D02*
X10675758Y-13108261D01*
X10675758Y-13078261D02*
X10645758Y-13108261D01*
X10645758Y-13208261D02*
X10675758Y-13238261D01*
X10675758Y-13208261D02*
X10645758Y-13238261D01*
X10645758Y-13338261D02*
X10675758Y-13368261D01*
X10675758Y-13338261D02*
X10645758Y-13368261D01*
X10775758Y-12038261D02*
X10805758Y-12068261D01*
X10805758Y-12038261D02*
X10775758Y-12068261D01*
X10775758Y-12168261D02*
X10805758Y-12198261D01*
X10805758Y-12168261D02*
X10775758Y-12198261D01*
X10775758Y-12298261D02*
X10805758Y-12328261D01*
X10805758Y-12298261D02*
X10775758Y-12328261D01*
X10775758Y-12428261D02*
X10805758Y-12458261D01*
X10805758Y-12428261D02*
X10775758Y-12458261D01*
X10775758Y-12558261D02*
X10805758Y-12588261D01*
X10805758Y-12558261D02*
X10775758Y-12588261D01*
X10775758Y-12688261D02*
X10805758Y-12718261D01*
X10805758Y-12688261D02*
X10775758Y-12718261D01*
X10775758Y-12818261D02*
X10805758Y-12848261D01*
X10805758Y-12818261D02*
X10775758Y-12848261D01*
X10775758Y-12948261D02*
X10805758Y-12978261D01*
X10805758Y-12948261D02*
X10775758Y-12978261D01*
X10775758Y-13078261D02*
X10805758Y-13108261D01*
X10805758Y-13078261D02*
X10775758Y-13108261D01*
X10775758Y-13208261D02*
X10805758Y-13238261D01*
X10805758Y-13208261D02*
X10775758Y-13238261D01*
X10775758Y-13338261D02*
X10805758Y-13368261D01*
X10805758Y-13338261D02*
X10775758Y-13368261D01*
X10905758Y-12038261D02*
X10935758Y-12068261D01*
X10935758Y-12038261D02*
X10905758Y-12068261D01*
X10905758Y-12168261D02*
X10935758Y-12198261D01*
X10935758Y-12168261D02*
X10905758Y-12198261D01*
X10905758Y-12298261D02*
X10935758Y-12328261D01*
X10935758Y-12298261D02*
X10905758Y-12328261D01*
X10905758Y-12428261D02*
X10935758Y-12458261D01*
X10935758Y-12428261D02*
X10905758Y-12458261D01*
X10905758Y-12558261D02*
X10935758Y-12588261D01*
X10935758Y-12558261D02*
X10905758Y-12588261D01*
X10905758Y-12688261D02*
X10935758Y-12718261D01*
X10935758Y-12688261D02*
X10905758Y-12718261D01*
X10905758Y-12818261D02*
X10935758Y-12848261D01*
X10935758Y-12818261D02*
X10905758Y-12848261D01*
X10905758Y-12948261D02*
X10935758Y-12978261D01*
X10935758Y-12948261D02*
X10905758Y-12978261D01*
X10905758Y-13078261D02*
X10935758Y-13108261D01*
X10935758Y-13078261D02*
X10905758Y-13108261D01*
X10905758Y-13208261D02*
X10935758Y-13238261D01*
X10935758Y-13208261D02*
X10905758Y-13238261D01*
X10905758Y-13338261D02*
X10935758Y-13368261D01*
X10935758Y-13338261D02*
X10905758Y-13368261D01*
X11035758Y-12038261D02*
X11065758Y-12068261D01*
X11065758Y-12038261D02*
X11035758Y-12068261D01*
X11035758Y-12168261D02*
X11065758Y-12198261D01*
X11065758Y-12168261D02*
X11035758Y-12198261D01*
X11035758Y-12298261D02*
X11065758Y-12328261D01*
X11065758Y-12298261D02*
X11035758Y-12328261D01*
X11035758Y-12428261D02*
X11065758Y-12458261D01*
X11065758Y-12428261D02*
X11035758Y-12458261D01*
X11035758Y-12558261D02*
X11065758Y-12588261D01*
X11065758Y-12558261D02*
X11035758Y-12588261D01*
X11035758Y-12688261D02*
X11065758Y-12718261D01*
X11065758Y-12688261D02*
X11035758Y-12718261D01*
X11035758Y-12818261D02*
X11065758Y-12848261D01*
X11065758Y-12818261D02*
X11035758Y-12848261D01*
X11035758Y-12948261D02*
X11065758Y-12978261D01*
X11065758Y-12948261D02*
X11035758Y-12978261D01*
X11035758Y-13078261D02*
X11065758Y-13108261D01*
X11065758Y-13078261D02*
X11035758Y-13108261D01*
X11035758Y-13208261D02*
X11065758Y-13238261D01*
X11065758Y-13208261D02*
X11035758Y-13238261D01*
X11035758Y-13338261D02*
X11065758Y-13368261D01*
X11065758Y-13338261D02*
X11035758Y-13368261D01*
X9746600Y-15950000D02*
G75*
G03X9746600Y-15950000I-21600J0D01*
G01*
X9746600Y-16225000D02*
G75*
G03X9746600Y-16225000I-21600J0D01*
G01*
X10021600Y-15750000D02*
G75*
G03X10021600Y-15750000I-21600J0D01*
G01*
X10353600Y-11796000D02*
G75*
G03X10353600Y-11796000I-21600J0D01*
G01*
X10416791Y-11855407D02*
G75*
G03X10416791Y-11855407I-21600J0D01*
G01*
X10431015Y-13637535D02*
G75*
G03X10431015Y-13637535I-21600J0D01*
G01*
X10471600Y-17080000D02*
G75*
G03X10471600Y-17080000I-21600J0D01*
G01*
X10480287Y-11911313D02*
G75*
G03X10480287Y-11911313I-21600J0D01*
G01*
X10493447Y-13580444D02*
G75*
G03X10493447Y-13580444I-21600J0D01*
G01*
X10521600Y-15750000D02*
G75*
G03X10521600Y-15750000I-21600J0D01*
G01*
X10521600Y-17330000D02*
G75*
G03X10521600Y-17330000I-21600J0D01*
G01*
X10531600Y-17580000D02*
G75*
G03X10531600Y-17580000I-21600J0D01*
G01*
X10551600Y-13519000D02*
G75*
G03X10551600Y-13519000I-21600J0D01*
G01*
X10561600Y-4470000D02*
G75*
G03X10561600Y-4470000I-21600J0D01*
G01*
X10641600Y-3750000D02*
G75*
G03X10641600Y-3750000I-21600J0D01*
G01*
X10646600Y-16000000D02*
G75*
G03X10646600Y-16000000I-21600J0D01*
G01*
X10921600Y-16125000D02*
G75*
G03X10921600Y-16125000I-21600J0D01*
G01*
X10996600Y-3950000D02*
G75*
G03X10996600Y-3950000I-21600J0D01*
G01*
X11429600Y-12025000D02*
G75*
G03X11429600Y-12025000I-21600J0D01*
G01*
X11531600Y-17340000D02*
G75*
G03X11531600Y-17340000I-21600J0D01*
G01*
X11571600Y-11096500D02*
G75*
G03X11571600Y-11096500I-21600J0D01*
G01*
X11620600Y-13716000D02*
G75*
G03X11620600Y-13716000I-21600J0D01*
G01*
X11641600Y-17720000D02*
G75*
G03X11641600Y-17720000I-21600J0D01*
G01*
X11921600Y-16950000D02*
G75*
G03X11921600Y-16950000I-21600J0D01*
G01*
X11921600Y-17130000D02*
G75*
G03X11921600Y-17130000I-21600J0D01*
G01*
X11921600Y-17340000D02*
G75*
G03X11921600Y-17340000I-21600J0D01*
G01*
X12141600Y-17280000D02*
G75*
G03X12141600Y-17280000I-21600J0D01*
G01*
X12141600Y-17710000D02*
G75*
G03X12141600Y-17710000I-21600J0D01*
G01*
X13121600Y-14925000D02*
G75*
G03X13121600Y-14925000I-21600J0D01*
G01*
X14221600Y-14300000D02*
G75*
G03X14221600Y-14300000I-21600J0D01*
G01*
X12721600Y-21336000D02*
G75*
G03X12721600Y-21336000I-21600J0D01*
G01*
X9871600Y-14600000D02*
G75*
G03X9871600Y-14600000I-21600J0D01*
G01*
X4720600Y-15240000D02*
G75*
G03X4720600Y-15240000I-21600J0D01*
G01*
X10943600Y-13716000D02*
G75*
G03X10943600Y-13716000I-21600J0D01*
G01*
X12213600Y-12700000D02*
G75*
G03X12213600Y-12700000I-21600J0D01*
G01*
X13483600Y-6858000D02*
G75*
G03X13483600Y-6858000I-21600J0D01*
G01*
X8657600Y-19558000D02*
G75*
G03X8657600Y-19558000I-21600J0D01*
G01*
X16023600Y-10795000D02*
G75*
G03X16023600Y-10795000I-21600J0D01*
G01*
X6752600Y-10033000D02*
G75*
G03X6752600Y-10033000I-21600J0D01*
G01*
X8421600Y-10750000D02*
G75*
G03X8421600Y-10750000I-21600J0D01*
G01*
X17039600Y-13970000D02*
G75*
G03X17039600Y-13970000I-21600J0D01*
G01*
X8657600Y-19304000D02*
G75*
G03X8657600Y-19304000I-21600J0D01*
G01*
X5990600Y-12827000D02*
G75*
G03X5990600Y-12827000I-21600J0D01*
G01*
X11197600Y-13970000D02*
G75*
G03X11197600Y-13970000I-21600J0D01*
G01*
X10181600Y-19304000D02*
G75*
G03X10181600Y-19304000I-21600J0D01*
G01*
X18182600Y-14605000D02*
G75*
G03X18182600Y-14605000I-21600J0D01*
G01*
X10181600Y-18796000D02*
G75*
G03X10181600Y-18796000I-21600J0D01*
G01*
X8657600Y-18542000D02*
G75*
G03X8657600Y-18542000I-21600J0D01*
G01*
X9419600Y-19050000D02*
G75*
G03X9419600Y-19050000I-21600J0D01*
G01*
X19071600Y-18288000D02*
G75*
G03X19071600Y-18288000I-21600J0D01*
G01*
X8403600Y-8001000D02*
G75*
G03X8403600Y-8001000I-21600J0D01*
G01*
X6625600Y-21336000D02*
G75*
G03X6625600Y-21336000I-21600J0D01*
G01*
X9419600Y-18796000D02*
G75*
G03X9419600Y-18796000I-21600J0D01*
G01*
X13864600Y-9017000D02*
G75*
G03X13864600Y-9017000I-21600J0D01*
G01*
X9419600Y-19304000D02*
G75*
G03X9419600Y-19304000I-21600J0D01*
G01*
X7768600Y-21336000D02*
G75*
G03X7768600Y-21336000I-21600J0D01*
G01*
X10181600Y-19050000D02*
G75*
G03X10181600Y-19050000I-21600J0D01*
G01*
X10943600Y-11684000D02*
G75*
G03X10943600Y-11684000I-21600J0D01*
G01*
X5101600Y-20955000D02*
G75*
G03X5101600Y-20955000I-21600J0D01*
G01*
X10181600Y-19558000D02*
G75*
G03X10181600Y-19558000I-21600J0D01*
G01*
X9800600Y-18542000D02*
G75*
G03X9800600Y-18542000I-21600J0D01*
G01*
X13864600Y-21336000D02*
G75*
G03X13864600Y-21336000I-21600J0D01*
G01*
X1545600Y-18923000D02*
G75*
G03X1545600Y-18923000I-21600J0D01*
G01*
X9401600Y-14350000D02*
G75*
G03X9401600Y-14350000I-21600J0D01*
G01*
X3831600Y-17145000D02*
G75*
G03X3831600Y-17145000I-21600J0D01*
G01*
X7271600Y-14300000D02*
G75*
G03X7271600Y-14300000I-21600J0D01*
G01*
X10181600Y-18542000D02*
G75*
G03X10181600Y-18542000I-21600J0D01*
G01*
X9673600Y-5207000D02*
G75*
G03X9673600Y-5207000I-21600J0D01*
G01*
X12291600Y-8010000D02*
G75*
G03X12291600Y-8010000I-21600J0D01*
G01*
X10308600Y-3937000D02*
G75*
G03X10308600Y-3937000I-21600J0D01*
G01*
X15642600Y-12827000D02*
G75*
G03X15642600Y-12827000I-21600J0D01*
G01*
X11959600Y-5207000D02*
G75*
G03X11959600Y-5207000I-21600J0D01*
G01*
X17801600Y-20320000D02*
G75*
G03X17801600Y-20320000I-21600J0D01*
G01*
X7133600Y-20701000D02*
G75*
G03X7133600Y-20701000I-21600J0D01*
G01*
X11451600Y-13716000D02*
G75*
G03X11451600Y-13716000I-21600J0D01*
G01*
X16531600Y-20955000D02*
G75*
G03X16531600Y-20955000I-21600J0D01*
G01*
X9800600Y-19304000D02*
G75*
G03X9800600Y-19304000I-21600J0D01*
G01*
X5736600Y-10795000D02*
G75*
G03X5736600Y-10795000I-21600J0D01*
G01*
X8657600Y-19050000D02*
G75*
G03X8657600Y-19050000I-21600J0D01*
G01*
X17801600Y-17145000D02*
G75*
G03X17801600Y-17145000I-21600J0D01*
G01*
X7768600Y-9017000D02*
G75*
G03X7768600Y-9017000I-21600J0D01*
G01*
X9419600Y-11938000D02*
G75*
G03X9419600Y-11938000I-21600J0D01*
G01*
X8657600Y-18796000D02*
G75*
G03X8657600Y-18796000I-21600J0D01*
G01*
X8403600Y-6731000D02*
G75*
G03X8403600Y-6731000I-21600J0D01*
G01*
X13229600Y-8001000D02*
G75*
G03X13229600Y-8001000I-21600J0D01*
G01*
X9800600Y-18796000D02*
G75*
G03X9800600Y-18796000I-21600J0D01*
G01*
X9038600Y-18542000D02*
G75*
G03X9038600Y-18542000I-21600J0D01*
G01*
X8911600Y-21336000D02*
G75*
G03X8911600Y-21336000I-21600J0D01*
G01*
X9800600Y-19050000D02*
G75*
G03X9800600Y-19050000I-21600J0D01*
G01*
X3450600Y-14605000D02*
G75*
G03X3450600Y-14605000I-21600J0D01*
G01*
X14499600Y-20701000D02*
G75*
G03X14499600Y-20701000I-21600J0D01*
G01*
X2561600Y-19558000D02*
G75*
G03X2561600Y-19558000I-21600J0D01*
G01*
X4720600Y-13970000D02*
G75*
G03X4720600Y-13970000I-21600J0D01*
G01*
X11451600Y-21336000D02*
G75*
G03X11451600Y-21336000I-21600J0D01*
G01*
X2561600Y-18288000D02*
G75*
G03X2561600Y-18288000I-21600J0D01*
G01*
X12291600Y-11570000D02*
G75*
G03X12291600Y-11570000I-21600J0D01*
G01*
X10271600Y-10850000D02*
G75*
G03X10271600Y-10850000I-21600J0D01*
G01*
X9165600Y-12700000D02*
G75*
G03X9165600Y-12700000I-21600J0D01*
G01*
X14880600Y-11811000D02*
G75*
G03X14880600Y-11811000I-21600J0D01*
G01*
X19071600Y-19558000D02*
G75*
G03X19071600Y-19558000I-21600J0D01*
G01*
X20087600Y-18923000D02*
G75*
G03X20087600Y-18923000I-21600J0D01*
G01*
X12261600Y-14360000D02*
G75*
G03X12261600Y-14360000I-21600J0D01*
G01*
X9038600Y-19304000D02*
G75*
G03X9038600Y-19304000I-21600J0D01*
G01*
X6879600Y-11811000D02*
G75*
G03X6879600Y-11811000I-21600J0D01*
G01*
X16912600Y-15240000D02*
G75*
G03X16912600Y-15240000I-21600J0D01*
G01*
X9419600Y-18542000D02*
G75*
G03X9419600Y-18542000I-21600J0D01*
G01*
X7133600Y-7493000D02*
G75*
G03X7133600Y-7493000I-21600J0D01*
G01*
X14499600Y-7493000D02*
G75*
G03X14499600Y-7493000I-21600J0D01*
G01*
X10689600Y-13970000D02*
G75*
G03X10689600Y-13970000I-21600J0D01*
G01*
X10181600Y-21336000D02*
G75*
G03X10181600Y-21336000I-21600J0D01*
G01*
X9038600Y-19050000D02*
G75*
G03X9038600Y-19050000I-21600J0D01*
G01*
X15007600Y-10033000D02*
G75*
G03X15007600Y-10033000I-21600J0D01*
G01*
X9038600Y-18796000D02*
G75*
G03X9038600Y-18796000I-21600J0D01*
G01*
X13221600Y-10975000D02*
G75*
G03X13221600Y-10975000I-21600J0D01*
G01*
X11197600Y-11430000D02*
G75*
G03X11197600Y-11430000I-21600J0D01*
G01*
X3831600Y-20320000D02*
G75*
G03X3831600Y-20320000I-21600J0D01*
G01*
X15261600Y-21336000D02*
G75*
G03X15261600Y-21336000I-21600J0D01*
G01*
X9410000Y-6419500D02*
X9410000Y-6499500D01*
X9370000Y-6459500D02*
X9450000Y-6459500D01*
X9410000Y-6546500D02*
X9410000Y-6626500D01*
X9370000Y-6586500D02*
X9450000Y-6586500D01*
X9410000Y-6673500D02*
X9410000Y-6753500D01*
X9370000Y-6713500D02*
X9450000Y-6713500D01*
X9410000Y-6800500D02*
X9410000Y-6880500D01*
X9370000Y-6840500D02*
X9450000Y-6840500D01*
X6268109Y-14145900D02*
X6268109Y-14225900D01*
X6228109Y-14185900D02*
X6308109Y-14185900D01*
X6268109Y-14272900D02*
X6268109Y-14352900D01*
X6228109Y-14312900D02*
X6308109Y-14312900D01*
X6268109Y-14399900D02*
X6268109Y-14479900D01*
X6228109Y-14439900D02*
X6308109Y-14439900D01*
X6268109Y-14526900D02*
X6268109Y-14606900D01*
X6228109Y-14566900D02*
X6308109Y-14566900D01*
X7630000Y-19299500D02*
X7630000Y-19379500D01*
X7590000Y-19339500D02*
X7670000Y-19339500D01*
X7630000Y-19426500D02*
X7630000Y-19506500D01*
X7590000Y-19466500D02*
X7670000Y-19466500D01*
X7630000Y-19553500D02*
X7630000Y-19633500D01*
X7590000Y-19593500D02*
X7670000Y-19593500D01*
X7630000Y-19680500D02*
X7630000Y-19760500D01*
X7590000Y-19720500D02*
X7670000Y-19720500D01*
X4550110Y-18379950D02*
X4550110Y-18459950D01*
X4510110Y-18419950D02*
X4590110Y-18419950D01*
X4550110Y-18506950D02*
X4550110Y-18586950D01*
X4510110Y-18546950D02*
X4590110Y-18546950D01*
X4550110Y-18633950D02*
X4550110Y-18713950D01*
X4510110Y-18673950D02*
X4590110Y-18673950D01*
X4550110Y-18760950D02*
X4550110Y-18840950D01*
X4510110Y-18800950D02*
X4590110Y-18800950D01*
X15381309Y-14148450D02*
X15381309Y-14228450D01*
X15341309Y-14188450D02*
X15421309Y-14188450D01*
X15381309Y-14275450D02*
X15381309Y-14355450D01*
X15341309Y-14315450D02*
X15421309Y-14315450D01*
X15381309Y-14402450D02*
X15381309Y-14482450D01*
X15341309Y-14442450D02*
X15421309Y-14442450D01*
X15381309Y-14529450D02*
X15381309Y-14609450D01*
X15341309Y-14569450D02*
X15421309Y-14569450D01*
X10830000Y-10929500D02*
X10830000Y-11009500D01*
X10790000Y-10969500D02*
X10870000Y-10969500D01*
X10830000Y-11056500D02*
X10830000Y-11136500D01*
X10790000Y-11096500D02*
X10870000Y-11096500D01*
X10830000Y-11183500D02*
X10830000Y-11263500D01*
X10790000Y-11223500D02*
X10870000Y-11223500D01*
X10830000Y-11310500D02*
X10830000Y-11390500D01*
X10790000Y-11350500D02*
X10870000Y-11350500D01*
X9274200Y-14943500D02*
X9274200Y-15023500D01*
X9234200Y-14983500D02*
X9314200Y-14983500D01*
X9274200Y-15070500D02*
X9274200Y-15150500D01*
X9234200Y-15110500D02*
X9314200Y-15110500D01*
X9274200Y-15197500D02*
X9274200Y-15277500D01*
X9234200Y-15237500D02*
X9314200Y-15237500D01*
X9274200Y-15324500D02*
X9274200Y-15404500D01*
X9234200Y-15364500D02*
X9314200Y-15364500D01*
X7820000Y-10335900D02*
X7820000Y-10415900D01*
X7780000Y-10375900D02*
X7860000Y-10375900D01*
X7820000Y-10462900D02*
X7820000Y-10542900D01*
X7780000Y-10502900D02*
X7860000Y-10502900D01*
X7820000Y-10589900D02*
X7820000Y-10669900D01*
X7780000Y-10629900D02*
X7860000Y-10629900D01*
X7820000Y-10716900D02*
X7820000Y-10796900D01*
X7780000Y-10756900D02*
X7860000Y-10756900D01*
X10830000Y-19609500D02*
X10830000Y-19689500D01*
X10790000Y-19649500D02*
X10870000Y-19649500D01*
X10830000Y-19736500D02*
X10830000Y-19816500D01*
X10790000Y-19776500D02*
X10870000Y-19776500D01*
X10830000Y-19863500D02*
X10830000Y-19943500D01*
X10790000Y-19903500D02*
X10870000Y-19903500D01*
X10830000Y-19990500D02*
X10830000Y-20070500D01*
X10790000Y-20030500D02*
X10870000Y-20030500D01*
X12240000Y-6421550D02*
X12240000Y-6501550D01*
X12200000Y-6461550D02*
X12280000Y-6461550D01*
X12240000Y-6548550D02*
X12240000Y-6628550D01*
X12200000Y-6588550D02*
X12280000Y-6588550D01*
X12240000Y-6675550D02*
X12240000Y-6755550D01*
X12200000Y-6715550D02*
X12280000Y-6715550D01*
X12240000Y-6802550D02*
X12240000Y-6882550D01*
X12200000Y-6842550D02*
X12280000Y-6842550D01*
X17110000Y-18376000D02*
X17110000Y-18456000D01*
X17070000Y-18416000D02*
X17150000Y-18416000D01*
X17110000Y-18503000D02*
X17110000Y-18583000D01*
X17070000Y-18543000D02*
X17150000Y-18543000D01*
X17110000Y-18630000D02*
X17110000Y-18710000D01*
X17070000Y-18670000D02*
X17150000Y-18670000D01*
X17110000Y-18757000D02*
X17110000Y-18837000D01*
X17070000Y-18797000D02*
X17150000Y-18797000D01*
X13830000Y-10339500D02*
X13830000Y-10419500D01*
X13790000Y-10379500D02*
X13870000Y-10379500D01*
X13830000Y-10466500D02*
X13830000Y-10546500D01*
X13790000Y-10506500D02*
X13870000Y-10506500D01*
X13830000Y-10593500D02*
X13830000Y-10673500D01*
X13790000Y-10633500D02*
X13870000Y-10633500D01*
X13830000Y-10720500D02*
X13830000Y-10800500D01*
X13790000Y-10760500D02*
X13870000Y-10760500D01*
X14030000Y-19299500D02*
X14030000Y-19379500D01*
X13990000Y-19339500D02*
X14070000Y-19339500D01*
X14030000Y-19426500D02*
X14030000Y-19506500D01*
X13990000Y-19466500D02*
X14070000Y-19466500D01*
X14030000Y-19553500D02*
X14030000Y-19633500D01*
X13990000Y-19593500D02*
X14070000Y-19593500D01*
X14030000Y-19680500D02*
X14030000Y-19760500D01*
X13990000Y-19720500D02*
X14070000Y-19720500D01*
X12380000Y-14939500D02*
X12380000Y-15019500D01*
X12340000Y-14979500D02*
X12420000Y-14979500D01*
X12380000Y-15066500D02*
X12380000Y-15146500D01*
X12340000Y-15106500D02*
X12420000Y-15106500D01*
X12380000Y-15193500D02*
X12380000Y-15273500D01*
X12340000Y-15233500D02*
X12420000Y-15233500D01*
X12380000Y-15320500D02*
X12380000Y-15400500D01*
X12340000Y-15360500D02*
X12420000Y-15360500D01*
X10830000Y-2944050D02*
X10830000Y-3024050D01*
X10790000Y-2984050D02*
X10870000Y-2984050D01*
X10830000Y-3071050D02*
X10830000Y-3151050D01*
X10790000Y-3111050D02*
X10870000Y-3111050D01*
X10830000Y-3198050D02*
X10830000Y-3278050D01*
X10790000Y-3238050D02*
X10870000Y-3238050D01*
X10830000Y-3325050D02*
X10830000Y-3405050D01*
X10790000Y-3365050D02*
X10870000Y-3365050D01*
D12*
X1583178Y-22060714D02*
X1583178Y-21760714D01*
X1654607Y-21760714D01*
X1697464Y-21775000D01*
X1726036Y-21803572D01*
X1740321Y-21832143D01*
X1754607Y-21889286D01*
X1754607Y-21932143D01*
X1740321Y-21989286D01*
X1726036Y-22017857D01*
X1697464Y-22046429D01*
X1654607Y-22060714D01*
X1583178Y-22060714D01*
X1883178Y-22060714D02*
X1883178Y-21860714D01*
X1883178Y-21917857D02*
X1897464Y-21889286D01*
X1911750Y-21875000D01*
X1940321Y-21860714D01*
X1968893Y-21860714D01*
X2068893Y-22060714D02*
X2068893Y-21860714D01*
X2068893Y-21760714D02*
X2054607Y-21775000D01*
X2068893Y-21789286D01*
X2083178Y-21775000D01*
X2068893Y-21760714D01*
X2068893Y-21789286D01*
X2254607Y-22060714D02*
X2226036Y-22046429D01*
X2211750Y-22017857D01*
X2211750Y-21760714D01*
X2411750Y-22060714D02*
X2383178Y-22046429D01*
X2368893Y-22017857D01*
X2368893Y-21760714D01*
X2754607Y-22060714D02*
X2754607Y-21760714D01*
X2854607Y-21975000D01*
X2954607Y-21760714D01*
X2954607Y-22060714D01*
X3226036Y-22060714D02*
X3226036Y-21903572D01*
X3211750Y-21875000D01*
X3183178Y-21860714D01*
X3126036Y-21860714D01*
X3097464Y-21875000D01*
X3226036Y-22046429D02*
X3197464Y-22060714D01*
X3126036Y-22060714D01*
X3097464Y-22046429D01*
X3083178Y-22017857D01*
X3083178Y-21989286D01*
X3097464Y-21960714D01*
X3126036Y-21946429D01*
X3197464Y-21946429D01*
X3226036Y-21932143D01*
X3368893Y-21860714D02*
X3368893Y-22160714D01*
X3368893Y-21875000D02*
X3397464Y-21860714D01*
X3454607Y-21860714D01*
X3483178Y-21875000D01*
X3497464Y-21889286D01*
X3511750Y-21917857D01*
X3511750Y-22003572D01*
X3497464Y-22032143D01*
X3483178Y-22046429D01*
X3454607Y-22060714D01*
X3397464Y-22060714D01*
X3368893Y-22046429D01*
X3640321Y-22032143D02*
X3654607Y-22046429D01*
X3640321Y-22060714D01*
X3626036Y-22046429D01*
X3640321Y-22032143D01*
X3640321Y-22060714D01*
X3640321Y-21875000D02*
X3654607Y-21889286D01*
X3640321Y-21903572D01*
X3626036Y-21889286D01*
X3640321Y-21875000D01*
X3640321Y-21903572D01*
X1266750Y-22540000D02*
X1296750Y-22570000D01*
X1296750Y-22540000D02*
X1266750Y-22570000D01*
X1640321Y-22390714D02*
X1668893Y-22390714D01*
X1697464Y-22405000D01*
X1711750Y-22419286D01*
X1726036Y-22447857D01*
X1740321Y-22505000D01*
X1740321Y-22576429D01*
X1726036Y-22633571D01*
X1711750Y-22662143D01*
X1697464Y-22676429D01*
X1668893Y-22690714D01*
X1640321Y-22690714D01*
X1611750Y-22676429D01*
X1597464Y-22662143D01*
X1583178Y-22633571D01*
X1568893Y-22576429D01*
X1568893Y-22505000D01*
X1583178Y-22447857D01*
X1597464Y-22419286D01*
X1611750Y-22405000D01*
X1640321Y-22390714D01*
X1868893Y-22662143D02*
X1883178Y-22676429D01*
X1868893Y-22690714D01*
X1854607Y-22676429D01*
X1868893Y-22662143D01*
X1868893Y-22690714D01*
X1983178Y-22390714D02*
X2168893Y-22390714D01*
X2068893Y-22505000D01*
X2111750Y-22505000D01*
X2140321Y-22519286D01*
X2154607Y-22533571D01*
X2168893Y-22562143D01*
X2168893Y-22633571D01*
X2154607Y-22662143D01*
X2140321Y-22676429D01*
X2111750Y-22690714D01*
X2026036Y-22690714D01*
X1997464Y-22676429D01*
X1983178Y-22662143D01*
X2354607Y-22390714D02*
X2383178Y-22390714D01*
X2411750Y-22405000D01*
X2426036Y-22419286D01*
X2440321Y-22447857D01*
X2454607Y-22505000D01*
X2454607Y-22576429D01*
X2440321Y-22633571D01*
X2426036Y-22662143D01*
X2411750Y-22676429D01*
X2383178Y-22690714D01*
X2354607Y-22690714D01*
X2326036Y-22676429D01*
X2311750Y-22662143D01*
X2297464Y-22633571D01*
X2283178Y-22576429D01*
X2283178Y-22505000D01*
X2297464Y-22447857D01*
X2311750Y-22419286D01*
X2326036Y-22405000D01*
X2354607Y-22390714D01*
X2583178Y-22690714D02*
X2583178Y-22490714D01*
X2583178Y-22519286D02*
X2597464Y-22505000D01*
X2626036Y-22490714D01*
X2668893Y-22490714D01*
X2697464Y-22505000D01*
X2711750Y-22533571D01*
X2711750Y-22690714D01*
X2711750Y-22533571D02*
X2726036Y-22505000D01*
X2754607Y-22490714D01*
X2797464Y-22490714D01*
X2826036Y-22505000D01*
X2840321Y-22533571D01*
X2840321Y-22690714D01*
X2983178Y-22690714D02*
X2983178Y-22490714D01*
X2983178Y-22519286D02*
X2997464Y-22505000D01*
X3026036Y-22490714D01*
X3068893Y-22490714D01*
X3097464Y-22505000D01*
X3111750Y-22533571D01*
X3111750Y-22690714D01*
X3111750Y-22533571D02*
X3126036Y-22505000D01*
X3154607Y-22490714D01*
X3197464Y-22490714D01*
X3226036Y-22505000D01*
X3240321Y-22533571D01*
X3240321Y-22690714D01*
X3826036Y-22376429D02*
X3568893Y-22762143D01*
X4211750Y-22390714D02*
X4240321Y-22390714D01*
X4268893Y-22405000D01*
X4283178Y-22419286D01*
X4297464Y-22447857D01*
X4311750Y-22505000D01*
X4311750Y-22576429D01*
X4297464Y-22633571D01*
X4283178Y-22662143D01*
X4268893Y-22676429D01*
X4240321Y-22690714D01*
X4211750Y-22690714D01*
X4183178Y-22676429D01*
X4168893Y-22662143D01*
X4154607Y-22633571D01*
X4140321Y-22576429D01*
X4140321Y-22505000D01*
X4154607Y-22447857D01*
X4168893Y-22419286D01*
X4183178Y-22405000D01*
X4211750Y-22390714D01*
X4440321Y-22662143D02*
X4454607Y-22676429D01*
X4440321Y-22690714D01*
X4426036Y-22676429D01*
X4440321Y-22662143D01*
X4440321Y-22690714D01*
X4640321Y-22390714D02*
X4668893Y-22390714D01*
X4697464Y-22405000D01*
X4711750Y-22419286D01*
X4726036Y-22447857D01*
X4740321Y-22505000D01*
X4740321Y-22576429D01*
X4726036Y-22633571D01*
X4711750Y-22662143D01*
X4697464Y-22676429D01*
X4668893Y-22690714D01*
X4640321Y-22690714D01*
X4611750Y-22676429D01*
X4597464Y-22662143D01*
X4583178Y-22633571D01*
X4568893Y-22576429D01*
X4568893Y-22505000D01*
X4583178Y-22447857D01*
X4597464Y-22419286D01*
X4611750Y-22405000D01*
X4640321Y-22390714D01*
X5026036Y-22690714D02*
X4854607Y-22690714D01*
X4940321Y-22690714D02*
X4940321Y-22390714D01*
X4911750Y-22433571D01*
X4883178Y-22462143D01*
X4854607Y-22476429D01*
X5140321Y-22419286D02*
X5154607Y-22405000D01*
X5183178Y-22390714D01*
X5254607Y-22390714D01*
X5283178Y-22405000D01*
X5297464Y-22419286D01*
X5311750Y-22447857D01*
X5311750Y-22476429D01*
X5297464Y-22519286D01*
X5126036Y-22690714D01*
X5311750Y-22690714D01*
X5426036Y-22390714D02*
X5426036Y-22447857D01*
X5540321Y-22390714D02*
X5540321Y-22447857D01*
X5983178Y-22805000D02*
X5968893Y-22790714D01*
X5940321Y-22747857D01*
X5926036Y-22719286D01*
X5911750Y-22676429D01*
X5897464Y-22605000D01*
X5897464Y-22547857D01*
X5911750Y-22476429D01*
X5926036Y-22433571D01*
X5940321Y-22405000D01*
X5968893Y-22362143D01*
X5983178Y-22347857D01*
X6226036Y-22490714D02*
X6226036Y-22690714D01*
X6154607Y-22376429D02*
X6083178Y-22590714D01*
X6268893Y-22590714D01*
X6511750Y-22490714D02*
X6511750Y-22690714D01*
X6440321Y-22376429D02*
X6368893Y-22590714D01*
X6554607Y-22590714D01*
X6897464Y-22690714D02*
X6897464Y-22390714D01*
X7026036Y-22690714D02*
X7026036Y-22533571D01*
X7011750Y-22505000D01*
X6983178Y-22490714D01*
X6940321Y-22490714D01*
X6911750Y-22505000D01*
X6897464Y-22519286D01*
X7211750Y-22690714D02*
X7183178Y-22676429D01*
X7168893Y-22662143D01*
X7154607Y-22633571D01*
X7154607Y-22547857D01*
X7168893Y-22519286D01*
X7183178Y-22505000D01*
X7211750Y-22490714D01*
X7254607Y-22490714D01*
X7283178Y-22505000D01*
X7297464Y-22519286D01*
X7311750Y-22547857D01*
X7311750Y-22633571D01*
X7297464Y-22662143D01*
X7283178Y-22676429D01*
X7254607Y-22690714D01*
X7211750Y-22690714D01*
X7483178Y-22690714D02*
X7454607Y-22676429D01*
X7440321Y-22647857D01*
X7440321Y-22390714D01*
X7711750Y-22676429D02*
X7683178Y-22690714D01*
X7626036Y-22690714D01*
X7597464Y-22676429D01*
X7583178Y-22647857D01*
X7583178Y-22533571D01*
X7597464Y-22505000D01*
X7626036Y-22490714D01*
X7683178Y-22490714D01*
X7711750Y-22505000D01*
X7726036Y-22533571D01*
X7726036Y-22562143D01*
X7583178Y-22590714D01*
X7840321Y-22676429D02*
X7868893Y-22690714D01*
X7926036Y-22690714D01*
X7954607Y-22676429D01*
X7968893Y-22647857D01*
X7968893Y-22633571D01*
X7954607Y-22605000D01*
X7926036Y-22590714D01*
X7883178Y-22590714D01*
X7854607Y-22576429D01*
X7840321Y-22547857D01*
X7840321Y-22533571D01*
X7854607Y-22505000D01*
X7883178Y-22490714D01*
X7926036Y-22490714D01*
X7954607Y-22505000D01*
X8068893Y-22805000D02*
X8083178Y-22790714D01*
X8111750Y-22747857D01*
X8126036Y-22719286D01*
X8140321Y-22676429D01*
X8154607Y-22605000D01*
X8154607Y-22547857D01*
X8140321Y-22476429D01*
X8126036Y-22433571D01*
X8111750Y-22405000D01*
X8083178Y-22362143D01*
X8068893Y-22347857D01*
X1296750Y-22951000D02*
G75*
G03X1296750Y-22951000I-21600J0D01*
G01*
X1640321Y-22786714D02*
X1668893Y-22786714D01*
X1697464Y-22801000D01*
X1711750Y-22815286D01*
X1726036Y-22843857D01*
X1740321Y-22901000D01*
X1740321Y-22972429D01*
X1726036Y-23029571D01*
X1711750Y-23058143D01*
X1697464Y-23072429D01*
X1668893Y-23086714D01*
X1640321Y-23086714D01*
X1611750Y-23072429D01*
X1597464Y-23058143D01*
X1583178Y-23029571D01*
X1568893Y-22972429D01*
X1568893Y-22901000D01*
X1583178Y-22843857D01*
X1597464Y-22815286D01*
X1611750Y-22801000D01*
X1640321Y-22786714D01*
X1868893Y-23058143D02*
X1883178Y-23072429D01*
X1868893Y-23086714D01*
X1854607Y-23072429D01*
X1868893Y-23058143D01*
X1868893Y-23086714D01*
X2140321Y-22886714D02*
X2140321Y-23086714D01*
X2068893Y-22772429D02*
X1997464Y-22986714D01*
X2183178Y-22986714D01*
X2268893Y-22786714D02*
X2454607Y-22786714D01*
X2354607Y-22901000D01*
X2397464Y-22901000D01*
X2426036Y-22915286D01*
X2440321Y-22929571D01*
X2454607Y-22958143D01*
X2454607Y-23029571D01*
X2440321Y-23058143D01*
X2426036Y-23072429D01*
X2397464Y-23086714D01*
X2311750Y-23086714D01*
X2283178Y-23072429D01*
X2268893Y-23058143D01*
X2583178Y-23086714D02*
X2583178Y-22886714D01*
X2583178Y-22915286D02*
X2597464Y-22901000D01*
X2626036Y-22886714D01*
X2668893Y-22886714D01*
X2697464Y-22901000D01*
X2711750Y-22929571D01*
X2711750Y-23086714D01*
X2711750Y-22929571D02*
X2726036Y-22901000D01*
X2754607Y-22886714D01*
X2797464Y-22886714D01*
X2826036Y-22901000D01*
X2840321Y-22929571D01*
X2840321Y-23086714D01*
X2983178Y-23086714D02*
X2983178Y-22886714D01*
X2983178Y-22915286D02*
X2997464Y-22901000D01*
X3026036Y-22886714D01*
X3068893Y-22886714D01*
X3097464Y-22901000D01*
X3111750Y-22929571D01*
X3111750Y-23086714D01*
X3111750Y-22929571D02*
X3126036Y-22901000D01*
X3154607Y-22886714D01*
X3197464Y-22886714D01*
X3226036Y-22901000D01*
X3240321Y-22929571D01*
X3240321Y-23086714D01*
X3826036Y-22772429D02*
X3568893Y-23158143D01*
X4211750Y-22786714D02*
X4240321Y-22786714D01*
X4268893Y-22801000D01*
X4283178Y-22815286D01*
X4297464Y-22843857D01*
X4311750Y-22901000D01*
X4311750Y-22972429D01*
X4297464Y-23029571D01*
X4283178Y-23058143D01*
X4268893Y-23072429D01*
X4240321Y-23086714D01*
X4211750Y-23086714D01*
X4183178Y-23072429D01*
X4168893Y-23058143D01*
X4154607Y-23029571D01*
X4140321Y-22972429D01*
X4140321Y-22901000D01*
X4154607Y-22843857D01*
X4168893Y-22815286D01*
X4183178Y-22801000D01*
X4211750Y-22786714D01*
X4440321Y-23058143D02*
X4454607Y-23072429D01*
X4440321Y-23086714D01*
X4426036Y-23072429D01*
X4440321Y-23058143D01*
X4440321Y-23086714D01*
X4640321Y-22786714D02*
X4668893Y-22786714D01*
X4697464Y-22801000D01*
X4711750Y-22815286D01*
X4726036Y-22843857D01*
X4740321Y-22901000D01*
X4740321Y-22972429D01*
X4726036Y-23029571D01*
X4711750Y-23058143D01*
X4697464Y-23072429D01*
X4668893Y-23086714D01*
X4640321Y-23086714D01*
X4611750Y-23072429D01*
X4597464Y-23058143D01*
X4583178Y-23029571D01*
X4568893Y-22972429D01*
X4568893Y-22901000D01*
X4583178Y-22843857D01*
X4597464Y-22815286D01*
X4611750Y-22801000D01*
X4640321Y-22786714D01*
X5026036Y-23086714D02*
X4854607Y-23086714D01*
X4940321Y-23086714D02*
X4940321Y-22786714D01*
X4911750Y-22829571D01*
X4883178Y-22858143D01*
X4854607Y-22872429D01*
X5126036Y-22786714D02*
X5326036Y-22786714D01*
X5197464Y-23086714D01*
X5426036Y-22786714D02*
X5426036Y-22843857D01*
X5540321Y-22786714D02*
X5540321Y-22843857D01*
X5983178Y-23201000D02*
X5968893Y-23186714D01*
X5940321Y-23143857D01*
X5926036Y-23115286D01*
X5911750Y-23072429D01*
X5897464Y-23001000D01*
X5897464Y-22943857D01*
X5911750Y-22872429D01*
X5926036Y-22829571D01*
X5940321Y-22801000D01*
X5968893Y-22758143D01*
X5983178Y-22743857D01*
X6254607Y-23086714D02*
X6083178Y-23086714D01*
X6168893Y-23086714D02*
X6168893Y-22786714D01*
X6140321Y-22829571D01*
X6111750Y-22858143D01*
X6083178Y-22872429D01*
X6540321Y-23086714D02*
X6368893Y-23086714D01*
X6454607Y-23086714D02*
X6454607Y-22786714D01*
X6426036Y-22829571D01*
X6397464Y-22858143D01*
X6368893Y-22872429D01*
X6640321Y-22786714D02*
X6840321Y-22786714D01*
X6711750Y-23086714D01*
X7183178Y-23086714D02*
X7183178Y-22786714D01*
X7311750Y-23086714D02*
X7311750Y-22929571D01*
X7297464Y-22901000D01*
X7268893Y-22886714D01*
X7226036Y-22886714D01*
X7197464Y-22901000D01*
X7183178Y-22915286D01*
X7497464Y-23086714D02*
X7468893Y-23072429D01*
X7454607Y-23058143D01*
X7440321Y-23029571D01*
X7440321Y-22943857D01*
X7454607Y-22915286D01*
X7468893Y-22901000D01*
X7497464Y-22886714D01*
X7540321Y-22886714D01*
X7568893Y-22901000D01*
X7583178Y-22915286D01*
X7597464Y-22943857D01*
X7597464Y-23029571D01*
X7583178Y-23058143D01*
X7568893Y-23072429D01*
X7540321Y-23086714D01*
X7497464Y-23086714D01*
X7768893Y-23086714D02*
X7740321Y-23072429D01*
X7726036Y-23043857D01*
X7726036Y-22786714D01*
X7997464Y-23072429D02*
X7968893Y-23086714D01*
X7911750Y-23086714D01*
X7883178Y-23072429D01*
X7868893Y-23043857D01*
X7868893Y-22929571D01*
X7883178Y-22901000D01*
X7911750Y-22886714D01*
X7968893Y-22886714D01*
X7997464Y-22901000D01*
X8011750Y-22929571D01*
X8011750Y-22958143D01*
X7868893Y-22986714D01*
X8126036Y-23072429D02*
X8154607Y-23086714D01*
X8211750Y-23086714D01*
X8240321Y-23072429D01*
X8254607Y-23043857D01*
X8254607Y-23029571D01*
X8240321Y-23001000D01*
X8211750Y-22986714D01*
X8168893Y-22986714D01*
X8140321Y-22972429D01*
X8126036Y-22943857D01*
X8126036Y-22929571D01*
X8140321Y-22901000D01*
X8168893Y-22886714D01*
X8211750Y-22886714D01*
X8240321Y-22901000D01*
X8354607Y-23201000D02*
X8368893Y-23186714D01*
X8397464Y-23143857D01*
X8411750Y-23115286D01*
X8426036Y-23072429D01*
X8440321Y-23001000D01*
X8440321Y-22943857D01*
X8426036Y-22872429D01*
X8411750Y-22829571D01*
X8397464Y-22801000D01*
X8368893Y-22758143D01*
X8354607Y-22743857D01*
X1256750Y-23307000D02*
X1256750Y-23387000D01*
X1216750Y-23347000D02*
X1296750Y-23347000D01*
X1640321Y-23182714D02*
X1668893Y-23182714D01*
X1697464Y-23197000D01*
X1711750Y-23211286D01*
X1726036Y-23239857D01*
X1740321Y-23297000D01*
X1740321Y-23368429D01*
X1726036Y-23425571D01*
X1711750Y-23454143D01*
X1697464Y-23468429D01*
X1668893Y-23482714D01*
X1640321Y-23482714D01*
X1611750Y-23468429D01*
X1597464Y-23454143D01*
X1583178Y-23425571D01*
X1568893Y-23368429D01*
X1568893Y-23297000D01*
X1583178Y-23239857D01*
X1597464Y-23211286D01*
X1611750Y-23197000D01*
X1640321Y-23182714D01*
X1868893Y-23454143D02*
X1883178Y-23468429D01*
X1868893Y-23482714D01*
X1854607Y-23468429D01*
X1868893Y-23454143D01*
X1868893Y-23482714D01*
X2054607Y-23311286D02*
X2026036Y-23297000D01*
X2011750Y-23282714D01*
X1997464Y-23254143D01*
X1997464Y-23239857D01*
X2011750Y-23211286D01*
X2026036Y-23197000D01*
X2054607Y-23182714D01*
X2111750Y-23182714D01*
X2140321Y-23197000D01*
X2154607Y-23211286D01*
X2168893Y-23239857D01*
X2168893Y-23254143D01*
X2154607Y-23282714D01*
X2140321Y-23297000D01*
X2111750Y-23311286D01*
X2054607Y-23311286D01*
X2026036Y-23325571D01*
X2011750Y-23339857D01*
X1997464Y-23368429D01*
X1997464Y-23425571D01*
X2011750Y-23454143D01*
X2026036Y-23468429D01*
X2054607Y-23482714D01*
X2111750Y-23482714D01*
X2140321Y-23468429D01*
X2154607Y-23454143D01*
X2168893Y-23425571D01*
X2168893Y-23368429D01*
X2154607Y-23339857D01*
X2140321Y-23325571D01*
X2111750Y-23311286D01*
X2354607Y-23182714D02*
X2383178Y-23182714D01*
X2411750Y-23197000D01*
X2426036Y-23211286D01*
X2440321Y-23239857D01*
X2454607Y-23297000D01*
X2454607Y-23368429D01*
X2440321Y-23425571D01*
X2426036Y-23454143D01*
X2411750Y-23468429D01*
X2383178Y-23482714D01*
X2354607Y-23482714D01*
X2326036Y-23468429D01*
X2311750Y-23454143D01*
X2297464Y-23425571D01*
X2283178Y-23368429D01*
X2283178Y-23297000D01*
X2297464Y-23239857D01*
X2311750Y-23211286D01*
X2326036Y-23197000D01*
X2354607Y-23182714D01*
X2583178Y-23482714D02*
X2583178Y-23282714D01*
X2583178Y-23311286D02*
X2597464Y-23297000D01*
X2626036Y-23282714D01*
X2668893Y-23282714D01*
X2697464Y-23297000D01*
X2711750Y-23325571D01*
X2711750Y-23482714D01*
X2711750Y-23325571D02*
X2726036Y-23297000D01*
X2754607Y-23282714D01*
X2797464Y-23282714D01*
X2826036Y-23297000D01*
X2840321Y-23325571D01*
X2840321Y-23482714D01*
X2983178Y-23482714D02*
X2983178Y-23282714D01*
X2983178Y-23311286D02*
X2997464Y-23297000D01*
X3026036Y-23282714D01*
X3068893Y-23282714D01*
X3097464Y-23297000D01*
X3111750Y-23325571D01*
X3111750Y-23482714D01*
X3111750Y-23325571D02*
X3126036Y-23297000D01*
X3154607Y-23282714D01*
X3197464Y-23282714D01*
X3226036Y-23297000D01*
X3240321Y-23325571D01*
X3240321Y-23482714D01*
X3826036Y-23168429D02*
X3568893Y-23554143D01*
X4211750Y-23182714D02*
X4240321Y-23182714D01*
X4268893Y-23197000D01*
X4283178Y-23211286D01*
X4297464Y-23239857D01*
X4311750Y-23297000D01*
X4311750Y-23368429D01*
X4297464Y-23425571D01*
X4283178Y-23454143D01*
X4268893Y-23468429D01*
X4240321Y-23482714D01*
X4211750Y-23482714D01*
X4183178Y-23468429D01*
X4168893Y-23454143D01*
X4154607Y-23425571D01*
X4140321Y-23368429D01*
X4140321Y-23297000D01*
X4154607Y-23239857D01*
X4168893Y-23211286D01*
X4183178Y-23197000D01*
X4211750Y-23182714D01*
X4440321Y-23454143D02*
X4454607Y-23468429D01*
X4440321Y-23482714D01*
X4426036Y-23468429D01*
X4440321Y-23454143D01*
X4440321Y-23482714D01*
X4640321Y-23182714D02*
X4668893Y-23182714D01*
X4697464Y-23197000D01*
X4711750Y-23211286D01*
X4726036Y-23239857D01*
X4740321Y-23297000D01*
X4740321Y-23368429D01*
X4726036Y-23425571D01*
X4711750Y-23454143D01*
X4697464Y-23468429D01*
X4668893Y-23482714D01*
X4640321Y-23482714D01*
X4611750Y-23468429D01*
X4597464Y-23454143D01*
X4583178Y-23425571D01*
X4568893Y-23368429D01*
X4568893Y-23297000D01*
X4583178Y-23239857D01*
X4597464Y-23211286D01*
X4611750Y-23197000D01*
X4640321Y-23182714D01*
X4840321Y-23182714D02*
X5026036Y-23182714D01*
X4926036Y-23297000D01*
X4968893Y-23297000D01*
X4997464Y-23311286D01*
X5011750Y-23325571D01*
X5026036Y-23354143D01*
X5026036Y-23425571D01*
X5011750Y-23454143D01*
X4997464Y-23468429D01*
X4968893Y-23482714D01*
X4883178Y-23482714D01*
X4854607Y-23468429D01*
X4840321Y-23454143D01*
X5311750Y-23482714D02*
X5140321Y-23482714D01*
X5226036Y-23482714D02*
X5226036Y-23182714D01*
X5197464Y-23225571D01*
X5168893Y-23254143D01*
X5140321Y-23268429D01*
X5426036Y-23182714D02*
X5426036Y-23239857D01*
X5540321Y-23182714D02*
X5540321Y-23239857D01*
X5983178Y-23597000D02*
X5968893Y-23582714D01*
X5940321Y-23539857D01*
X5926036Y-23511286D01*
X5911750Y-23468429D01*
X5897464Y-23397000D01*
X5897464Y-23339857D01*
X5911750Y-23268429D01*
X5926036Y-23225571D01*
X5940321Y-23197000D01*
X5968893Y-23154143D01*
X5983178Y-23139857D01*
X6226036Y-23182714D02*
X6168893Y-23182714D01*
X6140321Y-23197000D01*
X6126036Y-23211286D01*
X6097464Y-23254143D01*
X6083178Y-23311286D01*
X6083178Y-23425571D01*
X6097464Y-23454143D01*
X6111750Y-23468429D01*
X6140321Y-23482714D01*
X6197464Y-23482714D01*
X6226036Y-23468429D01*
X6240321Y-23454143D01*
X6254607Y-23425571D01*
X6254607Y-23354143D01*
X6240321Y-23325571D01*
X6226036Y-23311286D01*
X6197464Y-23297000D01*
X6140321Y-23297000D01*
X6111750Y-23311286D01*
X6097464Y-23325571D01*
X6083178Y-23354143D01*
X6440321Y-23182714D02*
X6468893Y-23182714D01*
X6497464Y-23197000D01*
X6511750Y-23211286D01*
X6526036Y-23239857D01*
X6540321Y-23297000D01*
X6540321Y-23368429D01*
X6526036Y-23425571D01*
X6511750Y-23454143D01*
X6497464Y-23468429D01*
X6468893Y-23482714D01*
X6440321Y-23482714D01*
X6411750Y-23468429D01*
X6397464Y-23454143D01*
X6383178Y-23425571D01*
X6368893Y-23368429D01*
X6368893Y-23297000D01*
X6383178Y-23239857D01*
X6397464Y-23211286D01*
X6411750Y-23197000D01*
X6440321Y-23182714D01*
X6897464Y-23482714D02*
X6897464Y-23182714D01*
X7026036Y-23482714D02*
X7026036Y-23325571D01*
X7011750Y-23297000D01*
X6983178Y-23282714D01*
X6940321Y-23282714D01*
X6911750Y-23297000D01*
X6897464Y-23311286D01*
X7211750Y-23482714D02*
X7183178Y-23468429D01*
X7168893Y-23454143D01*
X7154607Y-23425571D01*
X7154607Y-23339857D01*
X7168893Y-23311286D01*
X7183178Y-23297000D01*
X7211750Y-23282714D01*
X7254607Y-23282714D01*
X7283178Y-23297000D01*
X7297464Y-23311286D01*
X7311750Y-23339857D01*
X7311750Y-23425571D01*
X7297464Y-23454143D01*
X7283178Y-23468429D01*
X7254607Y-23482714D01*
X7211750Y-23482714D01*
X7483178Y-23482714D02*
X7454607Y-23468429D01*
X7440321Y-23439857D01*
X7440321Y-23182714D01*
X7711750Y-23468429D02*
X7683178Y-23482714D01*
X7626036Y-23482714D01*
X7597464Y-23468429D01*
X7583178Y-23439857D01*
X7583178Y-23325571D01*
X7597464Y-23297000D01*
X7626036Y-23282714D01*
X7683178Y-23282714D01*
X7711750Y-23297000D01*
X7726036Y-23325571D01*
X7726036Y-23354143D01*
X7583178Y-23382714D01*
X7840321Y-23468429D02*
X7868893Y-23482714D01*
X7926036Y-23482714D01*
X7954607Y-23468429D01*
X7968893Y-23439857D01*
X7968893Y-23425571D01*
X7954607Y-23397000D01*
X7926036Y-23382714D01*
X7883178Y-23382714D01*
X7854607Y-23368429D01*
X7840321Y-23339857D01*
X7840321Y-23325571D01*
X7854607Y-23297000D01*
X7883178Y-23282714D01*
X7926036Y-23282714D01*
X7954607Y-23297000D01*
X8068893Y-23597000D02*
X8083178Y-23582714D01*
X8111750Y-23539857D01*
X8126036Y-23511286D01*
X8140321Y-23468429D01*
X8154607Y-23397000D01*
X8154607Y-23339857D01*
X8140321Y-23268429D01*
X8126036Y-23225571D01*
X8111750Y-23197000D01*
X8083178Y-23154143D01*
X8068893Y-23139857D01*
M02*
