M48
;DRILL file {KiCad (2017-08-01 revision 9cbcb3224)-makepkg} date 09/11/17 21:28:25
;FORMAT={-:-/ absolute / inch / decimal}
FMAT,2
INCH,TZ
T1C0.012
T2C0.017
T3C0.031
%
G90
G05
M72
T1
X4.1971Y-4.7454
X4.1971Y-4.7966
X4.1971Y-4.8477
X4.1971Y-4.8989
X4.1971Y-4.9501
X4.1971Y-5.0013
X4.1971Y-5.0525
X4.1971Y-5.1036
X4.1971Y-5.1548
X4.1971Y-5.206
X4.1971Y-5.2572
X4.2483Y-4.7454
X4.2483Y-4.7966
X4.2483Y-4.8477
X4.2483Y-4.8989
X4.2483Y-4.9501
X4.2483Y-5.0013
X4.2483Y-5.0525
X4.2483Y-5.1036
X4.2483Y-5.1548
X4.2483Y-5.206
X4.2483Y-5.2572
X4.2995Y-4.7454
X4.2995Y-4.7966
X4.2995Y-4.8477
X4.2995Y-4.8989
X4.2995Y-4.9501
X4.2995Y-5.0013
X4.2995Y-5.0525
X4.2995Y-5.1036
X4.2995Y-5.1548
X4.2995Y-5.206
X4.2995Y-5.2572
X4.3507Y-4.7454
X4.3507Y-4.7966
X4.3507Y-4.8477
X4.3507Y-4.8989
X4.3507Y-4.9501
X4.3507Y-5.0013
X4.3507Y-5.0525
X4.3507Y-5.1036
X4.3507Y-5.1548
X4.3507Y-5.206
X4.3507Y-5.2572
T2
X3.8287Y-6.3878
X3.95Y-6.2
X4.0394Y-5.8583
X4.0572Y-4.5984
X4.0688Y-5.8803
X4.0945Y-5.9016
X4.1058Y-4.6343
X4.126Y-4.6772
X4.1717Y-1.4803
X4.1732Y-6.2008
X4.2244Y-1.7362
X4.2294Y-6.6958
X4.3209Y-1.5551
X4.4921Y-4.7244
X4.5Y-5.35
X4.5507Y-6.9808
X4.6024Y-7.0492
X4.65Y-4.75
X4.6654Y-6.6929
X4.8228Y-6.9783
X4.8228Y-7.0472
X5.0591Y-7.3031
X5.0591Y-7.4528
X5.1575Y-5.876
X5.1575Y-5.9449
X5.5906Y-5.6299
X4.8Y-5.
X5.7Y-8.15
X4.8307Y-3.1535
X4.Y-8.4
X4.0354Y-4.2717
X1.5Y-6.75
X4.4193Y-5.5512
X2.35Y-5.05
X3.55Y-7.6
X3.05Y-3.55
X3.8Y-2.05
X3.7Y-7.6
X5.7Y-2.95
X3.7Y-7.4
X6.3Y-4.25
X3.4Y-7.5
X7.15Y-5.75
X3.7Y-7.3
X1.Y-7.7
X7.9Y-7.45
X3.6Y-5.
X6.Y-8.4
X3.6929Y-5.6496
X4.5Y-8.4
X2.8Y-8.15
X3.3071Y-4.2323
X4.5551Y-5.4035
X1.85Y-5.5
X3.4Y-7.6
X2.65Y-3.95
X3.3Y-2.65
X3.55Y-7.3
X5.3Y-2.7
X3.7Y-7.5
X5.9Y-3.95
X4.Y-7.5
X6.7Y-5.5
X3.85Y-7.3
X3.4Y-7.7
X1.5Y-8.
X7.5Y-7.2
X3.7Y-4.7
X6.5Y-8.25
X4.8189Y-5.6535
X5.Y-8.4
X4.7657Y-6.813
X3.05Y-8.4
X2.8543Y-5.6299
X1.35Y-5.75
X2.6Y-8.4
X4.3Y-5.4
X2.25Y-4.25
X2.8Y-2.95
X4.Y-7.6
X4.7Y-2.05
X3.85Y-7.4
X5.45Y-3.55
X3.85Y-7.5
X6.15Y-5.05
X4.Y-7.3
X3.4Y-7.3
X2.Y-8.25
X1.Y-7.2
X7.Y-6.75
X4.4Y-4.5
X7.Y-8.
X4.8307Y-4.5551
X5.45Y-8.4
X3.5Y-8.4
X3.878Y-5.748
X5.1969Y-4.3209
X1.85Y-6.
X4.2Y-5.5
X2.7Y-4.65
X3.3Y-3.15
X3.85Y-7.6
X4.05Y-1.55
X3.55Y-7.4
X5.2Y-3.15
X3.55Y-7.5
X5.85Y-4.65
X4.Y-7.4
X6.65Y-6.
X3.4Y-7.4
X4.Y-7.7
X0.6Y-7.45
X4.4803Y-1.5512
X4.3Y-4.6
X7.5Y-7.7
T3
X2.4678Y-5.585
X2.4678Y-5.635
X2.4678Y-5.685
X2.4678Y-5.735
X4.2638Y-1.1748
X4.2638Y-1.2248
X4.2638Y-1.2748
X4.2638Y-1.3248
X4.2638Y-7.736
X4.2638Y-7.786
X4.2638Y-7.836
X4.2638Y-7.886
X1.7914Y-7.2519
X1.7914Y-7.3019
X1.7914Y-7.3519
X1.7914Y-7.4019
X5.4449Y-4.0864
X5.4449Y-4.1364
X5.4449Y-4.1864
X5.4449Y-4.2364
X4.8189Y-2.5439
X4.8189Y-2.5939
X4.8189Y-2.6439
X4.8189Y-2.6939
X4.2638Y-4.3187
X4.2638Y-4.3687
X4.2638Y-4.4187
X4.2638Y-4.4687
X3.0039Y-7.614
X3.0039Y-7.664
X3.0039Y-7.714
X3.0039Y-7.764
X6.0556Y-5.586
X6.0556Y-5.636
X6.0556Y-5.686
X6.0556Y-5.736
X6.7362Y-7.2504
X6.7362Y-7.3004
X6.7362Y-7.3504
X6.7362Y-7.4004
X3.0787Y-4.085
X3.0787Y-4.135
X3.0787Y-4.185
X3.0787Y-4.235
X3.7047Y-2.5431
X3.7047Y-2.5931
X3.7047Y-2.6431
X3.7047Y-2.6931
X4.874Y-5.8974
X4.874Y-5.9474
X4.874Y-5.9974
X4.874Y-6.0474
X5.5236Y-7.614
X5.5236Y-7.664
X5.5236Y-7.714
X5.5236Y-7.764
X3.6513Y-5.899
X3.6513Y-5.949
X3.6513Y-5.999
X3.6513Y-6.049
T0
M30
