%TF.GenerationSoftware,KiCad,Pcbnew,(2017-08-01 revision 9cbcb3224)-makepkg*%
%TF.CreationDate,2017-08-23T20:39:20-06:00*%
%TF.ProjectId,Christmas_Tree_Disco,4368726973746D61735F547265655F44,V1.0*%
%TF.SameCoordinates,Original*%
%TF.FileFunction,Profile,NP*%
%FSLAX46Y46*%
G04 Gerber Fmt 4.6, Leading zero omitted, Abs format (unit mm)*
G04 Created by KiCad (PCBNEW (2017-08-01 revision 9cbcb3224)-makepkg) date 08/23/17 20:39:20*
%MOMM*%
%LPD*%
G01*
G04 APERTURE LIST*
%ADD10C,0.100000*%
G04 APERTURE END LIST*
D10*
X72396959Y-92152285D02*
G75*
G02X64426299Y-99229931I-33979459J30239785D01*
G01*
X55652073Y-105345225D02*
X64426299Y-99229931D01*
X57467500Y-111125000D02*
G75*
G02X55652073Y-105345225I0J3175000D01*
G01*
X63817500Y-111125000D02*
X57467500Y-111125000D01*
X68580000Y-212725000D02*
G75*
G02X74930000Y-212725000I3175000J0D01*
G01*
X74930000Y-215900000D02*
X74930000Y-212725000D01*
X14597139Y-191657577D02*
G75*
G02X14787361Y-186065359I1595361J2745077D01*
G01*
X43027434Y-208180452D02*
X14597139Y-191657577D01*
X138430000Y-68262500D02*
G75*
G02X120967500Y-49212500I22759647J38391655D01*
G01*
X111146681Y-28824238D02*
X120967500Y-49212500D01*
X141605000Y-215900000D02*
X74930000Y-215900000D01*
X141605000Y-212725000D02*
X141605000Y-215900000D01*
X160882927Y-105345225D02*
G75*
G02X159067500Y-111125000I-1815427J-2604775D01*
G01*
X152108701Y-99229931D02*
X160882927Y-105345225D01*
X150267128Y-116318986D02*
G75*
G02X152717500Y-111125000I2450372J2018986D01*
G01*
X159067500Y-111125000D02*
X152717500Y-111125000D01*
X40924709Y-162374187D02*
G75*
G02X22231906Y-182391280I-35844709J14736687D01*
G01*
X14787361Y-186065359D02*
X22231906Y-182391280D01*
X71755000Y-77787500D02*
G75*
G02X70304287Y-71788309I0J3175000D01*
G01*
X78105000Y-77787500D02*
X71755000Y-77787500D01*
X172005987Y-153607276D02*
G75*
G02X174942500Y-149225000I2936513J1207276D01*
G01*
X181292500Y-149225000D02*
X174942500Y-149225000D01*
X68580000Y-215900000D02*
G75*
G02X43027434Y-208180452I3712847J58440637D01*
G01*
X68580000Y-212725000D02*
X68580000Y-215900000D01*
X95567500Y-49212500D02*
G75*
G02X78105000Y-68262500I-40222147J19341655D01*
G01*
X70304287Y-71788309D02*
X78105000Y-68262500D01*
X146230713Y-71788309D02*
G75*
G02X144780000Y-77787500I-1450713J-2824191D01*
G01*
X138430000Y-68262500D02*
X146230713Y-71788309D01*
X136058217Y-83073252D02*
G75*
G02X138430000Y-77787500I2371783J2110752D01*
G01*
X144780000Y-77787500D02*
X138430000Y-77787500D01*
X105388319Y-28824238D02*
G75*
G02X111146681Y-28824238I2879181J-1338262D01*
G01*
X95567500Y-49212500D02*
X105388319Y-28824238D01*
X194303094Y-182391280D02*
G75*
G02X175610291Y-162374187I17151906J34753780D01*
G01*
X172005987Y-153607276D02*
X175610291Y-162374187D01*
X176177677Y-140153092D02*
G75*
G02X158810109Y-126687298I21131162J45186857D01*
G01*
X150267128Y-116318986D02*
X158810109Y-126687298D01*
X182637459Y-143173942D02*
G75*
G02X181292500Y-149225000I-1344959J-2876058D01*
G01*
X176177677Y-140153092D02*
X182637459Y-143173942D01*
X173507566Y-208180452D02*
G75*
G02X147955000Y-215900000I-29265413J50721089D01*
G01*
X201937861Y-191657577D02*
X173507566Y-208180452D01*
X63817500Y-111125000D02*
G75*
G02X66267872Y-116318986I0J-3175000D01*
G01*
X57724891Y-126687298D02*
X66267872Y-116318986D01*
X78105000Y-77787499D02*
G75*
G02X80476783Y-83073252I0J-3175001D01*
G01*
X72396960Y-92152285D02*
X80476783Y-83073252D01*
X152108700Y-99229931D02*
G75*
G02X144138040Y-92152285I26008800J37317431D01*
G01*
X136058217Y-83073252D02*
X144138040Y-92152285D01*
X141605000Y-212725000D02*
G75*
G02X147955000Y-212725000I3175000J0D01*
G01*
X147955000Y-215900000D02*
X147955000Y-212725000D01*
X201747638Y-186065359D02*
G75*
G02X201937861Y-191657577I-1405138J-2847141D01*
G01*
X194303094Y-182391280D02*
X201747639Y-186065359D01*
X41592500Y-149225000D02*
G75*
G02X44529013Y-153607276I0J-3175000D01*
G01*
X40924709Y-162374187D02*
X44529013Y-153607276D01*
X35242500Y-149225000D02*
G75*
G02X33897541Y-143173942I0J3175000D01*
G01*
X41592500Y-149225000D02*
X35242500Y-149225000D01*
X57724891Y-126687298D02*
G75*
G02X40357323Y-140153092I-38498730J31721063D01*
G01*
X33897541Y-143173942D02*
X40357323Y-140153092D01*
M02*
