%TF.GenerationSoftware,KiCad,Pcbnew,no-vcs-found-9447181~59~ubuntu16.04.1*%
%TF.CreationDate,2017-08-15T14:11:42-06:00*%
%TF.ProjectId,Christmas_Tree_Disco,4368726973746D61735F547265655F44,V1.0*%
%TF.SameCoordinates,Original*%
%TF.FileFunction,Other,Fab,Top*%
%FSLAX46Y46*%
G04 Gerber Fmt 4.6, Leading zero omitted, Abs format (unit mm)*
G04 Created by KiCad (PCBNEW no-vcs-found-9447181~59~ubuntu16.04.1) date Tue Aug 15 14:11:42 2017*
%MOMM*%
%LPD*%
G01*
G04 APERTURE LIST*
%ADD10C,0.300000*%
%ADD11C,0.120000*%
%ADD12C,0.010000*%
%ADD13C,0.150000*%
G04 APERTURE END LIST*
D10*
X36842971Y-217617857D02*
X36842971Y-217475000D01*
X36914400Y-217332142D01*
X36985828Y-217260714D01*
X37128685Y-217189285D01*
X37414400Y-217117857D01*
X37771542Y-217117857D01*
X38057257Y-217189285D01*
X38200114Y-217260714D01*
X38271542Y-217332142D01*
X38342971Y-217475000D01*
X38342971Y-217617857D01*
X38271542Y-217760714D01*
X38200114Y-217832142D01*
X38057257Y-217903571D01*
X37771542Y-217975000D01*
X37414400Y-217975000D01*
X37128685Y-217903571D01*
X36985828Y-217832142D01*
X36914400Y-217760714D01*
X36842971Y-217617857D01*
X38200114Y-216475000D02*
X38271542Y-216403571D01*
X38342971Y-216475000D01*
X38271542Y-216546428D01*
X38200114Y-216475000D01*
X38342971Y-216475000D01*
X36985828Y-215832142D02*
X36914400Y-215760714D01*
X36842971Y-215617857D01*
X36842971Y-215260714D01*
X36914400Y-215117857D01*
X36985828Y-215046428D01*
X37128685Y-214975000D01*
X37271542Y-214975000D01*
X37485828Y-215046428D01*
X38342971Y-215903571D01*
X38342971Y-214975000D01*
X36842971Y-213617857D02*
X36842971Y-214332142D01*
X37557257Y-214403571D01*
X37485828Y-214332142D01*
X37414400Y-214189285D01*
X37414400Y-213832142D01*
X37485828Y-213689285D01*
X37557257Y-213617857D01*
X37700114Y-213546428D01*
X38057257Y-213546428D01*
X38200114Y-213617857D01*
X38271542Y-213689285D01*
X38342971Y-213832142D01*
X38342971Y-214189285D01*
X38271542Y-214332142D01*
X38200114Y-214403571D01*
X36842971Y-212617857D02*
X36842971Y-212475000D01*
X36914400Y-212332142D01*
X36985828Y-212260714D01*
X37128685Y-212189285D01*
X37414400Y-212117857D01*
X37771542Y-212117857D01*
X38057257Y-212189285D01*
X38200114Y-212260714D01*
X38271542Y-212332142D01*
X38342971Y-212475000D01*
X38342971Y-212617857D01*
X38271542Y-212760714D01*
X38200114Y-212832142D01*
X38057257Y-212903571D01*
X37771542Y-212975000D01*
X37414400Y-212975000D01*
X37128685Y-212903571D01*
X36985828Y-212832142D01*
X36914400Y-212760714D01*
X36842971Y-212617857D01*
X36842971Y-211189285D02*
X36842971Y-211046428D01*
X36914400Y-210903571D01*
X36985828Y-210832142D01*
X37128685Y-210760714D01*
X37414400Y-210689285D01*
X37771542Y-210689285D01*
X38057257Y-210760714D01*
X38200114Y-210832142D01*
X38271542Y-210903571D01*
X38342971Y-211046428D01*
X38342971Y-211189285D01*
X38271542Y-211332142D01*
X38200114Y-211403571D01*
X38057257Y-211475000D01*
X37771542Y-211546428D01*
X37414400Y-211546428D01*
X37128685Y-211475000D01*
X36985828Y-211403571D01*
X36914400Y-211332142D01*
X36842971Y-211189285D01*
X38342971Y-208903571D02*
X37342971Y-208903571D01*
X36842971Y-208903571D02*
X36914400Y-208975000D01*
X36985828Y-208903571D01*
X36914400Y-208832142D01*
X36842971Y-208903571D01*
X36985828Y-208903571D01*
X37342971Y-208189285D02*
X38342971Y-208189285D01*
X37485828Y-208189285D02*
X37414400Y-208117857D01*
X37342971Y-207975000D01*
X37342971Y-207760714D01*
X37414400Y-207617857D01*
X37557257Y-207546428D01*
X38342971Y-207546428D01*
X39014400Y-215900000D02*
X39014400Y-209550000D01*
X68580000Y-215900000D02*
X36314400Y-215900000D01*
X68580000Y-209550000D02*
X36314400Y-209550000D01*
X39014400Y-209550000D02*
X39600821Y-210676504D01*
X39014400Y-209550000D02*
X38427979Y-210676504D01*
X39014400Y-215900000D02*
X39600821Y-214773496D01*
X39014400Y-215900000D02*
X38427979Y-214773496D01*
X66862142Y-218739952D02*
X67005000Y-218739952D01*
X67147857Y-218811381D01*
X67219285Y-218882809D01*
X67290714Y-219025666D01*
X67362142Y-219311381D01*
X67362142Y-219668523D01*
X67290714Y-219954238D01*
X67219285Y-220097095D01*
X67147857Y-220168523D01*
X67005000Y-220239952D01*
X66862142Y-220239952D01*
X66719285Y-220168523D01*
X66647857Y-220097095D01*
X66576428Y-219954238D01*
X66505000Y-219668523D01*
X66505000Y-219311381D01*
X66576428Y-219025666D01*
X66647857Y-218882809D01*
X66719285Y-218811381D01*
X66862142Y-218739952D01*
X68005000Y-220097095D02*
X68076428Y-220168523D01*
X68005000Y-220239952D01*
X67933571Y-220168523D01*
X68005000Y-220097095D01*
X68005000Y-220239952D01*
X68647857Y-218882809D02*
X68719285Y-218811381D01*
X68862142Y-218739952D01*
X69219285Y-218739952D01*
X69362142Y-218811381D01*
X69433571Y-218882809D01*
X69505000Y-219025666D01*
X69505000Y-219168523D01*
X69433571Y-219382809D01*
X68576428Y-220239952D01*
X69505000Y-220239952D01*
X70862142Y-218739952D02*
X70147857Y-218739952D01*
X70076428Y-219454238D01*
X70147857Y-219382809D01*
X70290714Y-219311381D01*
X70647857Y-219311381D01*
X70790714Y-219382809D01*
X70862142Y-219454238D01*
X70933571Y-219597095D01*
X70933571Y-219954238D01*
X70862142Y-220097095D01*
X70790714Y-220168523D01*
X70647857Y-220239952D01*
X70290714Y-220239952D01*
X70147857Y-220168523D01*
X70076428Y-220097095D01*
X71862142Y-218739952D02*
X72005000Y-218739952D01*
X72147857Y-218811381D01*
X72219285Y-218882809D01*
X72290714Y-219025666D01*
X72362142Y-219311381D01*
X72362142Y-219668523D01*
X72290714Y-219954238D01*
X72219285Y-220097095D01*
X72147857Y-220168523D01*
X72005000Y-220239952D01*
X71862142Y-220239952D01*
X71719285Y-220168523D01*
X71647857Y-220097095D01*
X71576428Y-219954238D01*
X71505000Y-219668523D01*
X71505000Y-219311381D01*
X71576428Y-219025666D01*
X71647857Y-218882809D01*
X71719285Y-218811381D01*
X71862142Y-218739952D01*
X73290714Y-218739952D02*
X73433571Y-218739952D01*
X73576428Y-218811381D01*
X73647857Y-218882809D01*
X73719285Y-219025666D01*
X73790714Y-219311381D01*
X73790714Y-219668523D01*
X73719285Y-219954238D01*
X73647857Y-220097095D01*
X73576428Y-220168523D01*
X73433571Y-220239952D01*
X73290714Y-220239952D01*
X73147857Y-220168523D01*
X73076428Y-220097095D01*
X73005000Y-219954238D01*
X72933571Y-219668523D01*
X72933571Y-219311381D01*
X73005000Y-219025666D01*
X73076428Y-218882809D01*
X73147857Y-218811381D01*
X73290714Y-218739952D01*
X75576428Y-220239952D02*
X75576428Y-219239952D01*
X75576428Y-218739952D02*
X75505000Y-218811381D01*
X75576428Y-218882809D01*
X75647857Y-218811381D01*
X75576428Y-218739952D01*
X75576428Y-218882809D01*
X76290714Y-219239952D02*
X76290714Y-220239952D01*
X76290714Y-219382809D02*
X76362142Y-219311381D01*
X76505000Y-219239952D01*
X76719285Y-219239952D01*
X76862142Y-219311381D01*
X76933571Y-219454238D01*
X76933571Y-220239952D01*
X68580000Y-218211381D02*
X74930000Y-218211381D01*
X68580000Y-215900000D02*
X68580000Y-220911381D01*
X74930000Y-215900000D02*
X74930000Y-220911381D01*
X74930000Y-218211381D02*
X73803496Y-218797802D01*
X74930000Y-218211381D02*
X73803496Y-217624960D01*
X68580000Y-218211381D02*
X69706504Y-218797802D01*
X68580000Y-218211381D02*
X69706504Y-217624960D01*
X205628571Y-127521428D02*
X205628571Y-128378571D01*
X205628571Y-127950000D02*
X204128571Y-127950000D01*
X204342857Y-128092857D01*
X204485714Y-128235714D01*
X204557142Y-128378571D01*
X204771428Y-126664285D02*
X204700000Y-126807142D01*
X204628571Y-126878571D01*
X204485714Y-126950000D01*
X204414285Y-126950000D01*
X204271428Y-126878571D01*
X204200000Y-126807142D01*
X204128571Y-126664285D01*
X204128571Y-126378571D01*
X204200000Y-126235714D01*
X204271428Y-126164285D01*
X204414285Y-126092857D01*
X204485714Y-126092857D01*
X204628571Y-126164285D01*
X204700000Y-126235714D01*
X204771428Y-126378571D01*
X204771428Y-126664285D01*
X204842857Y-126807142D01*
X204914285Y-126878571D01*
X205057142Y-126950000D01*
X205342857Y-126950000D01*
X205485714Y-126878571D01*
X205557142Y-126807142D01*
X205628571Y-126664285D01*
X205628571Y-126378571D01*
X205557142Y-126235714D01*
X205485714Y-126164285D01*
X205342857Y-126092857D01*
X205057142Y-126092857D01*
X204914285Y-126164285D01*
X204842857Y-126235714D01*
X204771428Y-126378571D01*
X204771428Y-125235714D02*
X204700000Y-125378571D01*
X204628571Y-125450000D01*
X204485714Y-125521428D01*
X204414285Y-125521428D01*
X204271428Y-125450000D01*
X204200000Y-125378571D01*
X204128571Y-125235714D01*
X204128571Y-124950000D01*
X204200000Y-124807142D01*
X204271428Y-124735714D01*
X204414285Y-124664285D01*
X204485714Y-124664285D01*
X204628571Y-124735714D01*
X204700000Y-124807142D01*
X204771428Y-124950000D01*
X204771428Y-125235714D01*
X204842857Y-125378571D01*
X204914285Y-125450000D01*
X205057142Y-125521428D01*
X205342857Y-125521428D01*
X205485714Y-125450000D01*
X205557142Y-125378571D01*
X205628571Y-125235714D01*
X205628571Y-124950000D01*
X205557142Y-124807142D01*
X205485714Y-124735714D01*
X205342857Y-124664285D01*
X205057142Y-124664285D01*
X204914285Y-124735714D01*
X204842857Y-124807142D01*
X204771428Y-124950000D01*
X205485714Y-124021428D02*
X205557142Y-123950000D01*
X205628571Y-124021428D01*
X205557142Y-124092857D01*
X205485714Y-124021428D01*
X205628571Y-124021428D01*
X205628571Y-123235714D02*
X205628571Y-122950000D01*
X205557142Y-122807142D01*
X205485714Y-122735714D01*
X205271428Y-122592857D01*
X204985714Y-122521428D01*
X204414285Y-122521428D01*
X204271428Y-122592857D01*
X204200000Y-122664285D01*
X204128571Y-122807142D01*
X204128571Y-123092857D01*
X204200000Y-123235714D01*
X204271428Y-123307142D01*
X204414285Y-123378571D01*
X204771428Y-123378571D01*
X204914285Y-123307142D01*
X204985714Y-123235714D01*
X205057142Y-123092857D01*
X205057142Y-122807142D01*
X204985714Y-122664285D01*
X204914285Y-122592857D01*
X204771428Y-122521428D01*
X204128571Y-121592857D02*
X204128571Y-121450000D01*
X204200000Y-121307142D01*
X204271428Y-121235714D01*
X204414285Y-121164285D01*
X204700000Y-121092857D01*
X205057142Y-121092857D01*
X205342857Y-121164285D01*
X205485714Y-121235714D01*
X205557142Y-121307142D01*
X205628571Y-121450000D01*
X205628571Y-121592857D01*
X205557142Y-121735714D01*
X205485714Y-121807142D01*
X205342857Y-121878571D01*
X205057142Y-121950000D01*
X204700000Y-121950000D01*
X204414285Y-121878571D01*
X204271428Y-121807142D01*
X204200000Y-121735714D01*
X204128571Y-121592857D01*
X204128571Y-120164285D02*
X204128571Y-120021428D01*
X204200000Y-119878571D01*
X204271428Y-119807142D01*
X204414285Y-119735714D01*
X204700000Y-119664285D01*
X205057142Y-119664285D01*
X205342857Y-119735714D01*
X205485714Y-119807142D01*
X205557142Y-119878571D01*
X205628571Y-120021428D01*
X205628571Y-120164285D01*
X205557142Y-120307142D01*
X205485714Y-120378571D01*
X205342857Y-120450000D01*
X205057142Y-120521428D01*
X204700000Y-120521428D01*
X204414285Y-120450000D01*
X204271428Y-120378571D01*
X204200000Y-120307142D01*
X204128571Y-120164285D01*
X205628571Y-117878571D02*
X204628571Y-117878571D01*
X204771428Y-117878571D02*
X204700000Y-117807142D01*
X204628571Y-117664285D01*
X204628571Y-117450000D01*
X204700000Y-117307142D01*
X204842857Y-117235714D01*
X205628571Y-117235714D01*
X204842857Y-117235714D02*
X204700000Y-117164285D01*
X204628571Y-117021428D01*
X204628571Y-116807142D01*
X204700000Y-116664285D01*
X204842857Y-116592857D01*
X205628571Y-116592857D01*
X205628571Y-115878571D02*
X204628571Y-115878571D01*
X204771428Y-115878571D02*
X204700000Y-115807142D01*
X204628571Y-115664285D01*
X204628571Y-115450000D01*
X204700000Y-115307142D01*
X204842857Y-115235714D01*
X205628571Y-115235714D01*
X204842857Y-115235714D02*
X204700000Y-115164285D01*
X204628571Y-115021428D01*
X204628571Y-114807142D01*
X204700000Y-114664285D01*
X204842857Y-114592857D01*
X205628571Y-114592857D01*
X203600000Y-215900000D02*
X203600000Y-27000000D01*
X108400000Y-215900000D02*
X206300000Y-215900000D01*
X108400000Y-27000000D02*
X206300000Y-27000000D01*
X203600000Y-27000000D02*
X204186421Y-28126504D01*
X203600000Y-27000000D02*
X203013579Y-28126504D01*
X203600000Y-215900000D02*
X204186421Y-214773496D01*
X203600000Y-215900000D02*
X203013579Y-214773496D01*
X102196853Y-223779491D02*
X101339710Y-223779941D01*
X101768282Y-223779716D02*
X101767494Y-222279716D01*
X101624750Y-222494077D01*
X101481967Y-222637009D01*
X101339148Y-222708512D01*
X102911139Y-223779116D02*
X103196853Y-223778966D01*
X103339672Y-223707462D01*
X103411064Y-223635996D01*
X103553808Y-223421636D01*
X103625087Y-223135884D01*
X103624787Y-222564455D01*
X103553283Y-222421636D01*
X103481817Y-222350245D01*
X103338923Y-222278891D01*
X103053208Y-222279041D01*
X102910389Y-222350545D01*
X102838998Y-222422011D01*
X102767644Y-222564905D01*
X102767832Y-222922048D01*
X102839335Y-223064868D01*
X102910801Y-223136259D01*
X103053696Y-223207612D01*
X103339410Y-223207463D01*
X103482230Y-223135959D01*
X103553621Y-223064493D01*
X103624974Y-222921598D01*
X104553208Y-222278254D02*
X104696065Y-222278179D01*
X104838960Y-222349532D01*
X104910426Y-222420923D01*
X104981929Y-222563743D01*
X105053508Y-222849420D01*
X105053695Y-223206563D01*
X104982417Y-223492314D01*
X104911063Y-223635209D01*
X104839672Y-223706675D01*
X104696853Y-223778179D01*
X104553996Y-223778254D01*
X104411101Y-223706900D01*
X104339635Y-223635509D01*
X104268131Y-223492689D01*
X104196553Y-223207013D01*
X104196365Y-222849870D01*
X104267644Y-222564118D01*
X104338997Y-222421223D01*
X104410388Y-222349757D01*
X104553208Y-222278254D01*
X105696777Y-223634797D02*
X105768244Y-223706188D01*
X105696852Y-223777654D01*
X105625386Y-223706263D01*
X105696777Y-223634797D01*
X105696852Y-223777654D01*
X107124636Y-222276904D02*
X106410351Y-222277279D01*
X106339297Y-222991602D01*
X106410688Y-222920136D01*
X106553508Y-222848632D01*
X106910651Y-222848445D01*
X107053545Y-222919799D01*
X107125011Y-222991190D01*
X107196515Y-223134009D01*
X107196702Y-223491152D01*
X107125349Y-223634047D01*
X107053958Y-223705513D01*
X106911138Y-223777016D01*
X106553995Y-223777204D01*
X106411101Y-223705850D01*
X106339635Y-223634459D01*
X108124636Y-222276379D02*
X108267493Y-222276304D01*
X108410388Y-222347658D01*
X108481854Y-222419049D01*
X108553358Y-222561868D01*
X108624936Y-222847545D01*
X108625124Y-223204688D01*
X108553845Y-223490440D01*
X108482491Y-223633334D01*
X108411100Y-223704800D01*
X108268281Y-223776304D01*
X108125424Y-223776379D01*
X107982529Y-223705025D01*
X107911063Y-223633634D01*
X107839559Y-223490815D01*
X107767981Y-223205138D01*
X107767793Y-222847995D01*
X107839072Y-222562243D01*
X107910425Y-222419349D01*
X107981817Y-222347883D01*
X108124636Y-222276379D01*
X109553207Y-222275629D02*
X109696065Y-222275554D01*
X109838959Y-222346908D01*
X109910425Y-222418299D01*
X109981929Y-222561118D01*
X110053507Y-222846795D01*
X110053695Y-223203938D01*
X109982416Y-223489690D01*
X109911063Y-223632584D01*
X109839672Y-223704050D01*
X109696852Y-223775554D01*
X109553995Y-223775629D01*
X109411100Y-223704275D01*
X109339634Y-223632884D01*
X109268131Y-223490065D01*
X109196552Y-223204388D01*
X109196365Y-222847245D01*
X109267643Y-222561493D01*
X109338997Y-222418599D01*
X109410388Y-222347133D01*
X109553207Y-222275629D01*
X111839709Y-223774429D02*
X111839184Y-222774429D01*
X111839259Y-222917286D02*
X111910650Y-222845820D01*
X112053470Y-222774317D01*
X112267755Y-222774204D01*
X112410650Y-222845558D01*
X112482153Y-222988377D01*
X112482566Y-223774092D01*
X112482153Y-222988377D02*
X112553507Y-222845483D01*
X112696327Y-222773979D01*
X112910612Y-222773867D01*
X113053507Y-222845220D01*
X113125010Y-222988040D01*
X113125423Y-223773754D01*
X113839709Y-223773379D02*
X113839184Y-222773379D01*
X113839259Y-222916236D02*
X113910650Y-222844770D01*
X114053469Y-222773267D01*
X114267755Y-222773154D01*
X114410650Y-222844508D01*
X114482153Y-222987328D01*
X114482566Y-223773042D01*
X114482153Y-222987328D02*
X114553507Y-222844433D01*
X114696326Y-222772929D01*
X114910612Y-222772817D01*
X115053507Y-222844170D01*
X115125010Y-222986990D01*
X115125423Y-223772704D01*
X13017217Y-221797733D02*
X203517217Y-221697733D01*
X13000000Y-189000000D02*
X13018634Y-224497733D01*
X203500000Y-188900000D02*
X203518634Y-224397733D01*
X203517217Y-221697733D02*
X202391021Y-222284745D01*
X203517217Y-221697733D02*
X202390406Y-221111904D01*
X13017217Y-221797733D02*
X14144028Y-222383562D01*
X13017217Y-221797733D02*
X14143413Y-221210721D01*
D11*
X107220000Y-177720000D02*
X107220000Y-167720000D01*
X111220000Y-177720000D02*
X107220000Y-177720000D01*
X111220000Y-167720000D02*
X111220000Y-177720000D01*
X107220000Y-167720000D02*
X111220000Y-167720000D01*
X74710420Y-192793362D02*
G75*
G03X77900000Y-192800000I1589580J-2506638D01*
G01*
X74700000Y-192800000D02*
X77900000Y-192800000D01*
X78800000Y-195300000D02*
G75*
G03X78800000Y-195300000I-2500000J0D01*
G01*
X83730000Y-129020000D02*
X83730000Y-195060000D01*
X134530000Y-129020000D02*
X83730000Y-129020000D01*
X134530000Y-195060000D02*
X134530000Y-129020000D01*
X134530000Y-195060000D02*
X83730000Y-195060000D01*
X104420000Y-109885000D02*
X104420000Y-111135000D01*
X102420000Y-109885000D02*
X104420000Y-109885000D01*
X102420000Y-111135000D02*
X102420000Y-109885000D01*
X104420000Y-111135000D02*
X102420000Y-111135000D01*
X49380000Y-186125000D02*
X49380000Y-184875000D01*
X51380000Y-186125000D02*
X49380000Y-186125000D01*
X51380000Y-184875000D02*
X51380000Y-186125000D01*
X49380000Y-184875000D02*
X51380000Y-184875000D01*
X112200000Y-198525000D02*
X112200000Y-197275000D01*
X114200000Y-198525000D02*
X112200000Y-198525000D01*
X114200000Y-197275000D02*
X114200000Y-198525000D01*
X112200000Y-197275000D02*
X114200000Y-197275000D01*
X66500000Y-143725000D02*
X66500000Y-142475000D01*
X68500000Y-143725000D02*
X66500000Y-143725000D01*
X68500000Y-142475000D02*
X68500000Y-143725000D01*
X66500000Y-142475000D02*
X68500000Y-142475000D01*
X116800000Y-118200000D02*
X115200000Y-118200000D01*
X115200000Y-118200000D02*
X115200000Y-121400000D01*
X115200000Y-121400000D02*
X116800000Y-121400000D01*
X116800000Y-121400000D02*
X116800000Y-118200000D01*
X92510420Y-63993362D02*
G75*
G03X95700000Y-64000000I1589580J-2506638D01*
G01*
X92500000Y-64000000D02*
X95700000Y-64000000D01*
X96600000Y-66500000D02*
G75*
G03X96600000Y-66500000I-2500000J0D01*
G01*
X61091515Y-141257362D02*
G75*
G03X64281095Y-141264000I1589580J-2506638D01*
G01*
X61081095Y-141264000D02*
X64281095Y-141264000D01*
X65181095Y-143764000D02*
G75*
G03X65181095Y-143764000I-2500000J0D01*
G01*
X43911515Y-183597862D02*
G75*
G03X47101095Y-183604500I1589580J-2506638D01*
G01*
X43901095Y-183604500D02*
X47101095Y-183604500D01*
X48001095Y-186104500D02*
G75*
G03X48001095Y-186104500I-2500000J0D01*
G01*
X106710420Y-109093362D02*
G75*
G03X109900000Y-109100000I1589580J-2506638D01*
G01*
X106700000Y-109100000D02*
X109900000Y-109100000D01*
X110800000Y-111600000D02*
G75*
G03X110800000Y-111600000I-2500000J0D01*
G01*
X76610420Y-103157362D02*
G75*
G03X79800000Y-103164000I1589580J-2506638D01*
G01*
X76600000Y-103164000D02*
X79800000Y-103164000D01*
X80700000Y-105664000D02*
G75*
G03X80700000Y-105664000I-2500000J0D01*
G01*
X91152420Y-149233362D02*
G75*
G03X94342000Y-149240000I1589580J-2506638D01*
G01*
X91142000Y-149240000D02*
X94342000Y-149240000D01*
X95242000Y-151740000D02*
G75*
G03X95242000Y-151740000I-2500000J0D01*
G01*
X106710420Y-195893362D02*
G75*
G03X109900000Y-195900000I1589580J-2506638D01*
G01*
X106700000Y-195900000D02*
X109900000Y-195900000D01*
X110800000Y-198400000D02*
G75*
G03X110800000Y-198400000I-2500000J0D01*
G01*
X120810420Y-64013862D02*
G75*
G03X124000000Y-64020500I1589580J-2506638D01*
G01*
X120800000Y-64020500D02*
X124000000Y-64020500D01*
X124900000Y-66520500D02*
G75*
G03X124900000Y-66520500I-2500000J0D01*
G01*
X169510420Y-183558362D02*
G75*
G03X172700000Y-183565000I1589580J-2506638D01*
G01*
X169500000Y-183565000D02*
X172700000Y-183565000D01*
X173600000Y-186065000D02*
G75*
G03X173600000Y-186065000I-2500000J0D01*
G01*
X138710420Y-192793362D02*
G75*
G03X141900000Y-192800000I1589580J-2506638D01*
G01*
X138700000Y-192800000D02*
X141900000Y-192800000D01*
X142800000Y-195300000D02*
G75*
G03X142800000Y-195300000I-2500000J0D01*
G01*
X106710420Y-29238862D02*
G75*
G03X109900000Y-29245500I1589580J-2506638D01*
G01*
X106700000Y-29245500D02*
X109900000Y-29245500D01*
X110800000Y-31745500D02*
G75*
G03X110800000Y-31745500I-2500000J0D01*
G01*
X136710420Y-103193362D02*
G75*
G03X139900000Y-103200000I1589580J-2506638D01*
G01*
X136700000Y-103200000D02*
X139900000Y-103200000D01*
X140800000Y-105700000D02*
G75*
G03X140800000Y-105700000I-2500000J0D01*
G01*
X152223515Y-141282862D02*
G75*
G03X155413095Y-141289500I1589580J-2506638D01*
G01*
X152213095Y-141289500D02*
X155413095Y-141289500D01*
X156313095Y-143789500D02*
G75*
G03X156313095Y-143789500I-2500000J0D01*
G01*
X122210420Y-149193362D02*
G75*
G03X125400000Y-149200000I1589580J-2506638D01*
G01*
X122200000Y-149200000D02*
X125400000Y-149200000D01*
X126300000Y-151700000D02*
G75*
G03X126300000Y-151700000I-2500000J0D01*
G01*
X111607576Y-120032608D02*
X111607576Y-134032608D01*
X105507576Y-120032608D02*
X105507576Y-134032608D01*
X105507576Y-134032608D02*
X111607576Y-134032608D01*
X105507576Y-120032608D02*
X111607576Y-120032608D01*
X105244800Y-204597200D02*
X103644800Y-204597200D01*
X103644800Y-204597200D02*
X103644800Y-207797200D01*
X103644800Y-207797200D02*
X105244800Y-207797200D01*
X105244800Y-207797200D02*
X105244800Y-204597200D01*
X85700000Y-207850000D02*
X87300000Y-207850000D01*
X87300000Y-207850000D02*
X87300000Y-204650000D01*
X87300000Y-204650000D02*
X85700000Y-204650000D01*
X85700000Y-204650000D02*
X85700000Y-207850000D01*
X84960000Y-183700000D02*
X84960000Y-158300000D01*
X90040000Y-183700000D02*
X84960000Y-183700000D01*
X90040000Y-158300000D02*
X90040000Y-183700000D01*
X84960000Y-158300000D02*
X90040000Y-158300000D01*
X128210000Y-183700000D02*
X128210000Y-158300000D01*
X133290000Y-183700000D02*
X128210000Y-183700000D01*
X133290000Y-158300000D02*
X133290000Y-183700000D01*
X128210000Y-158300000D02*
X133290000Y-158300000D01*
X93980000Y-206568000D02*
X93980000Y-210886000D01*
X88900000Y-206568000D02*
X99060000Y-197932000D01*
X99060000Y-206568000D02*
X88900000Y-197932000D01*
X91440000Y-211013000D02*
X91440000Y-206568000D01*
X96520000Y-210886000D02*
X96520000Y-206568000D01*
X88900000Y-197170000D02*
X88900000Y-197932000D01*
X99060000Y-197170000D02*
X99060000Y-197932000D01*
X88900000Y-197170000D02*
X90551000Y-196662000D01*
X99060000Y-197170000D02*
X97409000Y-196662000D01*
X97409000Y-196662000D02*
X90551000Y-196662000D01*
X99060000Y-197932000D02*
X88900000Y-197932000D01*
X99060000Y-206568000D02*
X99060000Y-197932000D01*
X88900000Y-206568000D02*
X99060000Y-206568000D01*
X88900000Y-197932000D02*
X88900000Y-206568000D01*
X106300000Y-164875000D02*
X106300000Y-163625000D01*
X108300000Y-164875000D02*
X106300000Y-164875000D01*
X108300000Y-163625000D02*
X108300000Y-164875000D01*
X106300000Y-163625000D02*
X108300000Y-163625000D01*
X110050000Y-164875000D02*
X110050000Y-163625000D01*
X112050000Y-164875000D02*
X110050000Y-164875000D01*
X112050000Y-163625000D02*
X112050000Y-164875000D01*
X110050000Y-163625000D02*
X112050000Y-163625000D01*
X107420000Y-203580000D02*
X111020000Y-203580000D01*
X107420000Y-207900000D02*
X111020000Y-207900000D01*
X111020000Y-207900000D02*
X111020000Y-203580000D01*
X107420000Y-207900000D02*
X107420000Y-203580000D01*
X120340000Y-212050000D02*
X120340000Y-207050000D01*
X113340000Y-212050000D02*
X120340000Y-212050000D01*
X113340000Y-207050000D02*
X113340000Y-212050000D01*
X120340000Y-207050000D02*
X113340000Y-207050000D01*
X126250000Y-208500000D02*
G75*
G02X126250000Y-204000000I0J2250000D01*
G01*
X135250000Y-199500000D02*
G75*
G02X135250000Y-204000000I0J-2250000D01*
G01*
X133900000Y-205750000D02*
G75*
G03X133900000Y-205750000I-3150000J0D01*
G01*
X132000000Y-205750000D02*
G75*
G03X132000000Y-205750000I-1250000J0D01*
G01*
X135250000Y-199500000D02*
X135250000Y-212000000D01*
X126250000Y-199500000D02*
X135250000Y-199500000D01*
X126250000Y-212000000D02*
X126250000Y-199500000D01*
X135250000Y-212000000D02*
X126250000Y-212000000D01*
X97800000Y-66525000D02*
X97800000Y-65275000D01*
X99800000Y-66525000D02*
X97800000Y-66525000D01*
X99800000Y-65275000D02*
X99800000Y-66525000D01*
X97800000Y-65275000D02*
X99800000Y-65275000D01*
X74250000Y-190875000D02*
X74250000Y-192125000D01*
X72250000Y-190875000D02*
X74250000Y-190875000D01*
X72250000Y-192125000D02*
X72250000Y-190875000D01*
X74250000Y-192125000D02*
X72250000Y-192125000D01*
X81900000Y-105725000D02*
X81900000Y-104475000D01*
X83900000Y-105725000D02*
X81900000Y-105725000D01*
X83900000Y-104475000D02*
X83900000Y-105725000D01*
X81900000Y-104475000D02*
X83900000Y-104475000D01*
X96440000Y-148745000D02*
X96440000Y-147495000D01*
X98440000Y-148745000D02*
X96440000Y-148745000D01*
X98440000Y-147495000D02*
X98440000Y-148745000D01*
X96440000Y-147495000D02*
X98440000Y-147495000D01*
X124800000Y-64725000D02*
X124800000Y-63475000D01*
X126800000Y-64725000D02*
X124800000Y-64725000D01*
X126800000Y-63475000D02*
X126800000Y-64725000D01*
X124800000Y-63475000D02*
X126800000Y-63475000D01*
X126850000Y-148525000D02*
X126850000Y-147275000D01*
X128850000Y-148525000D02*
X126850000Y-148525000D01*
X128850000Y-147275000D02*
X128850000Y-148525000D01*
X126850000Y-147275000D02*
X128850000Y-147275000D01*
X144100000Y-195325000D02*
X144100000Y-194075000D01*
X146100000Y-195325000D02*
X144100000Y-195325000D01*
X146100000Y-194075000D02*
X146100000Y-195325000D01*
X144100000Y-194075000D02*
X146100000Y-194075000D01*
X107500000Y-38225000D02*
X107500000Y-36975000D01*
X109500000Y-38225000D02*
X107500000Y-38225000D01*
X109500000Y-36975000D02*
X109500000Y-38225000D01*
X107500000Y-36975000D02*
X109500000Y-36975000D01*
X133800000Y-104475000D02*
X133800000Y-105725000D01*
X131800000Y-104475000D02*
X133800000Y-104475000D01*
X131800000Y-105725000D02*
X131800000Y-104475000D01*
X133800000Y-105725000D02*
X131800000Y-105725000D01*
X149900000Y-142475000D02*
X149900000Y-143725000D01*
X147900000Y-142475000D02*
X149900000Y-142475000D01*
X147900000Y-143725000D02*
X147900000Y-142475000D01*
X149900000Y-143725000D02*
X147900000Y-143725000D01*
X167200000Y-184875000D02*
X167200000Y-186125000D01*
X165200000Y-184875000D02*
X167200000Y-184875000D01*
X165200000Y-186125000D02*
X165200000Y-184875000D01*
X167200000Y-186125000D02*
X165200000Y-186125000D01*
X228900000Y-187300000D02*
X229900000Y-187300000D01*
X229900000Y-187300000D02*
X229900000Y-188300000D01*
X229900000Y-188300000D02*
X228900000Y-188300000D01*
X228900000Y-188300000D02*
X228900000Y-187300000D01*
X228900000Y-187300000D02*
X229900000Y-188300000D01*
X229900000Y-188300000D02*
X229900000Y-187300000D01*
X229900000Y-187300000D02*
X228900000Y-188300000D01*
D12*
X103265785Y-109640452D02*
X103277880Y-109640452D01*
X103289976Y-109646500D01*
X103296023Y-109652547D01*
X103302071Y-109664642D01*
X103308119Y-109688833D01*
X103308119Y-109719071D01*
X103302071Y-109743261D01*
X103296023Y-109755357D01*
X103289976Y-109761404D01*
X103277880Y-109767452D01*
X103265785Y-109767452D01*
X103253690Y-109761404D01*
X103247642Y-109755357D01*
X103241595Y-109743261D01*
X103235547Y-109719071D01*
X103235547Y-109688833D01*
X103241595Y-109664642D01*
X103247642Y-109652547D01*
X103253690Y-109646500D01*
X103265785Y-109640452D01*
X103362547Y-109755357D02*
X103368595Y-109761404D01*
X103362547Y-109767452D01*
X103356500Y-109761404D01*
X103362547Y-109755357D01*
X103362547Y-109767452D01*
X103489547Y-109767452D02*
X103416976Y-109767452D01*
X103453261Y-109767452D02*
X103453261Y-109640452D01*
X103441166Y-109658595D01*
X103429071Y-109670690D01*
X103416976Y-109676738D01*
X103598404Y-109682785D02*
X103598404Y-109767452D01*
X103543976Y-109682785D02*
X103543976Y-109749309D01*
X103550023Y-109761404D01*
X103562119Y-109767452D01*
X103580261Y-109767452D01*
X103592357Y-109761404D01*
X103598404Y-109755357D01*
X50225785Y-186230452D02*
X50237880Y-186230452D01*
X50249976Y-186236500D01*
X50256023Y-186242547D01*
X50262071Y-186254642D01*
X50268119Y-186278833D01*
X50268119Y-186309071D01*
X50262071Y-186333261D01*
X50256023Y-186345357D01*
X50249976Y-186351404D01*
X50237880Y-186357452D01*
X50225785Y-186357452D01*
X50213690Y-186351404D01*
X50207642Y-186345357D01*
X50201595Y-186333261D01*
X50195547Y-186309071D01*
X50195547Y-186278833D01*
X50201595Y-186254642D01*
X50207642Y-186242547D01*
X50213690Y-186236500D01*
X50225785Y-186230452D01*
X50322547Y-186345357D02*
X50328595Y-186351404D01*
X50322547Y-186357452D01*
X50316500Y-186351404D01*
X50322547Y-186345357D01*
X50322547Y-186357452D01*
X50449547Y-186357452D02*
X50376976Y-186357452D01*
X50413261Y-186357452D02*
X50413261Y-186230452D01*
X50401166Y-186248595D01*
X50389071Y-186260690D01*
X50376976Y-186266738D01*
X50558404Y-186272785D02*
X50558404Y-186357452D01*
X50503976Y-186272785D02*
X50503976Y-186339309D01*
X50510023Y-186351404D01*
X50522119Y-186357452D01*
X50540261Y-186357452D01*
X50552357Y-186351404D01*
X50558404Y-186345357D01*
X113045785Y-198630452D02*
X113057880Y-198630452D01*
X113069976Y-198636500D01*
X113076023Y-198642547D01*
X113082071Y-198654642D01*
X113088119Y-198678833D01*
X113088119Y-198709071D01*
X113082071Y-198733261D01*
X113076023Y-198745357D01*
X113069976Y-198751404D01*
X113057880Y-198757452D01*
X113045785Y-198757452D01*
X113033690Y-198751404D01*
X113027642Y-198745357D01*
X113021595Y-198733261D01*
X113015547Y-198709071D01*
X113015547Y-198678833D01*
X113021595Y-198654642D01*
X113027642Y-198642547D01*
X113033690Y-198636500D01*
X113045785Y-198630452D01*
X113142547Y-198745357D02*
X113148595Y-198751404D01*
X113142547Y-198757452D01*
X113136500Y-198751404D01*
X113142547Y-198745357D01*
X113142547Y-198757452D01*
X113269547Y-198757452D02*
X113196976Y-198757452D01*
X113233261Y-198757452D02*
X113233261Y-198630452D01*
X113221166Y-198648595D01*
X113209071Y-198660690D01*
X113196976Y-198666738D01*
X113378404Y-198672785D02*
X113378404Y-198757452D01*
X113323976Y-198672785D02*
X113323976Y-198739309D01*
X113330023Y-198751404D01*
X113342119Y-198757452D01*
X113360261Y-198757452D01*
X113372357Y-198751404D01*
X113378404Y-198745357D01*
X67345785Y-143830452D02*
X67357880Y-143830452D01*
X67369976Y-143836500D01*
X67376023Y-143842547D01*
X67382071Y-143854642D01*
X67388119Y-143878833D01*
X67388119Y-143909071D01*
X67382071Y-143933261D01*
X67376023Y-143945357D01*
X67369976Y-143951404D01*
X67357880Y-143957452D01*
X67345785Y-143957452D01*
X67333690Y-143951404D01*
X67327642Y-143945357D01*
X67321595Y-143933261D01*
X67315547Y-143909071D01*
X67315547Y-143878833D01*
X67321595Y-143854642D01*
X67327642Y-143842547D01*
X67333690Y-143836500D01*
X67345785Y-143830452D01*
X67442547Y-143945357D02*
X67448595Y-143951404D01*
X67442547Y-143957452D01*
X67436500Y-143951404D01*
X67442547Y-143945357D01*
X67442547Y-143957452D01*
X67569547Y-143957452D02*
X67496976Y-143957452D01*
X67533261Y-143957452D02*
X67533261Y-143830452D01*
X67521166Y-143848595D01*
X67509071Y-143860690D01*
X67496976Y-143866738D01*
X67678404Y-143872785D02*
X67678404Y-143957452D01*
X67623976Y-143872785D02*
X67623976Y-143939309D01*
X67630023Y-143951404D01*
X67642119Y-143957452D01*
X67660261Y-143957452D01*
X67672357Y-143951404D01*
X67678404Y-143945357D01*
X115057452Y-119881642D02*
X115057452Y-119954214D01*
X115057452Y-119917928D02*
X114930452Y-119917928D01*
X114948595Y-119930023D01*
X114960690Y-119942119D01*
X114966738Y-119954214D01*
X114930452Y-119803023D02*
X114930452Y-119790928D01*
X114936500Y-119778833D01*
X114942547Y-119772785D01*
X114954642Y-119766738D01*
X114978833Y-119760690D01*
X115009071Y-119760690D01*
X115033261Y-119766738D01*
X115045357Y-119772785D01*
X115051404Y-119778833D01*
X115057452Y-119790928D01*
X115057452Y-119803023D01*
X115051404Y-119815119D01*
X115045357Y-119821166D01*
X115033261Y-119827214D01*
X115009071Y-119833261D01*
X114978833Y-119833261D01*
X114954642Y-119827214D01*
X114942547Y-119821166D01*
X114936500Y-119815119D01*
X114930452Y-119803023D01*
X114972785Y-119651833D02*
X115057452Y-119651833D01*
X114972785Y-119706261D02*
X115039309Y-119706261D01*
X115051404Y-119700214D01*
X115057452Y-119688119D01*
X115057452Y-119669976D01*
X115051404Y-119657880D01*
X115045357Y-119651833D01*
X103502252Y-206278842D02*
X103502252Y-206351414D01*
X103502252Y-206315128D02*
X103375252Y-206315128D01*
X103393395Y-206327223D01*
X103405490Y-206339319D01*
X103411538Y-206351414D01*
X103375252Y-206200223D02*
X103375252Y-206188128D01*
X103381300Y-206176033D01*
X103387347Y-206169985D01*
X103399442Y-206163938D01*
X103423633Y-206157890D01*
X103453871Y-206157890D01*
X103478061Y-206163938D01*
X103490157Y-206169985D01*
X103496204Y-206176033D01*
X103502252Y-206188128D01*
X103502252Y-206200223D01*
X103496204Y-206212319D01*
X103490157Y-206218366D01*
X103478061Y-206224414D01*
X103453871Y-206230461D01*
X103423633Y-206230461D01*
X103399442Y-206224414D01*
X103387347Y-206218366D01*
X103381300Y-206212319D01*
X103375252Y-206200223D01*
X103417585Y-206049033D02*
X103502252Y-206049033D01*
X103417585Y-206103461D02*
X103484109Y-206103461D01*
X103496204Y-206097414D01*
X103502252Y-206085319D01*
X103502252Y-206067176D01*
X103496204Y-206055080D01*
X103490157Y-206049033D01*
X87557452Y-206331642D02*
X87557452Y-206404214D01*
X87557452Y-206367928D02*
X87430452Y-206367928D01*
X87448595Y-206380023D01*
X87460690Y-206392119D01*
X87466738Y-206404214D01*
X87430452Y-206253023D02*
X87430452Y-206240928D01*
X87436500Y-206228833D01*
X87442547Y-206222785D01*
X87454642Y-206216738D01*
X87478833Y-206210690D01*
X87509071Y-206210690D01*
X87533261Y-206216738D01*
X87545357Y-206222785D01*
X87551404Y-206228833D01*
X87557452Y-206240928D01*
X87557452Y-206253023D01*
X87551404Y-206265119D01*
X87545357Y-206271166D01*
X87533261Y-206277214D01*
X87509071Y-206283261D01*
X87478833Y-206283261D01*
X87454642Y-206277214D01*
X87442547Y-206271166D01*
X87436500Y-206265119D01*
X87430452Y-206253023D01*
X87472785Y-206101833D02*
X87557452Y-206101833D01*
X87472785Y-206156261D02*
X87539309Y-206156261D01*
X87551404Y-206150214D01*
X87557452Y-206138119D01*
X87557452Y-206119976D01*
X87551404Y-206107880D01*
X87545357Y-206101833D01*
D13*
X86738095Y-171952380D02*
X86738095Y-170952380D01*
X86738095Y-171428571D02*
X87309523Y-171428571D01*
X87309523Y-171952380D02*
X87309523Y-170952380D01*
X87738095Y-171047619D02*
X87785714Y-171000000D01*
X87880952Y-170952380D01*
X88119047Y-170952380D01*
X88214285Y-171000000D01*
X88261904Y-171047619D01*
X88309523Y-171142857D01*
X88309523Y-171238095D01*
X88261904Y-171380952D01*
X87690476Y-171952380D01*
X88309523Y-171952380D01*
X129988095Y-171952380D02*
X129988095Y-170952380D01*
X129988095Y-171428571D02*
X130559523Y-171428571D01*
X130559523Y-171952380D02*
X130559523Y-170952380D01*
X131464285Y-171285714D02*
X131464285Y-171952380D01*
X131226190Y-170904761D02*
X130988095Y-171619047D01*
X131607142Y-171619047D01*
D12*
X107145785Y-164980452D02*
X107157880Y-164980452D01*
X107169976Y-164986500D01*
X107176023Y-164992547D01*
X107182071Y-165004642D01*
X107188119Y-165028833D01*
X107188119Y-165059071D01*
X107182071Y-165083261D01*
X107176023Y-165095357D01*
X107169976Y-165101404D01*
X107157880Y-165107452D01*
X107145785Y-165107452D01*
X107133690Y-165101404D01*
X107127642Y-165095357D01*
X107121595Y-165083261D01*
X107115547Y-165059071D01*
X107115547Y-165028833D01*
X107121595Y-165004642D01*
X107127642Y-164992547D01*
X107133690Y-164986500D01*
X107145785Y-164980452D01*
X107242547Y-165095357D02*
X107248595Y-165101404D01*
X107242547Y-165107452D01*
X107236500Y-165101404D01*
X107242547Y-165095357D01*
X107242547Y-165107452D01*
X107369547Y-165107452D02*
X107296976Y-165107452D01*
X107333261Y-165107452D02*
X107333261Y-164980452D01*
X107321166Y-164998595D01*
X107309071Y-165010690D01*
X107296976Y-165016738D01*
X107478404Y-165022785D02*
X107478404Y-165107452D01*
X107423976Y-165022785D02*
X107423976Y-165089309D01*
X107430023Y-165101404D01*
X107442119Y-165107452D01*
X107460261Y-165107452D01*
X107472357Y-165101404D01*
X107478404Y-165095357D01*
X110895785Y-164980452D02*
X110907880Y-164980452D01*
X110919976Y-164986500D01*
X110926023Y-164992547D01*
X110932071Y-165004642D01*
X110938119Y-165028833D01*
X110938119Y-165059071D01*
X110932071Y-165083261D01*
X110926023Y-165095357D01*
X110919976Y-165101404D01*
X110907880Y-165107452D01*
X110895785Y-165107452D01*
X110883690Y-165101404D01*
X110877642Y-165095357D01*
X110871595Y-165083261D01*
X110865547Y-165059071D01*
X110865547Y-165028833D01*
X110871595Y-165004642D01*
X110877642Y-164992547D01*
X110883690Y-164986500D01*
X110895785Y-164980452D01*
X110992547Y-165095357D02*
X110998595Y-165101404D01*
X110992547Y-165107452D01*
X110986500Y-165101404D01*
X110992547Y-165095357D01*
X110992547Y-165107452D01*
X111119547Y-165107452D02*
X111046976Y-165107452D01*
X111083261Y-165107452D02*
X111083261Y-164980452D01*
X111071166Y-164998595D01*
X111059071Y-165010690D01*
X111046976Y-165016738D01*
X111228404Y-165022785D02*
X111228404Y-165107452D01*
X111173976Y-165022785D02*
X111173976Y-165089309D01*
X111180023Y-165101404D01*
X111192119Y-165107452D01*
X111210261Y-165107452D01*
X111222357Y-165101404D01*
X111228404Y-165095357D01*
X98645785Y-66630452D02*
X98657880Y-66630452D01*
X98669976Y-66636500D01*
X98676023Y-66642547D01*
X98682071Y-66654642D01*
X98688119Y-66678833D01*
X98688119Y-66709071D01*
X98682071Y-66733261D01*
X98676023Y-66745357D01*
X98669976Y-66751404D01*
X98657880Y-66757452D01*
X98645785Y-66757452D01*
X98633690Y-66751404D01*
X98627642Y-66745357D01*
X98621595Y-66733261D01*
X98615547Y-66709071D01*
X98615547Y-66678833D01*
X98621595Y-66654642D01*
X98627642Y-66642547D01*
X98633690Y-66636500D01*
X98645785Y-66630452D01*
X98742547Y-66745357D02*
X98748595Y-66751404D01*
X98742547Y-66757452D01*
X98736500Y-66751404D01*
X98742547Y-66745357D01*
X98742547Y-66757452D01*
X98869547Y-66757452D02*
X98796976Y-66757452D01*
X98833261Y-66757452D02*
X98833261Y-66630452D01*
X98821166Y-66648595D01*
X98809071Y-66660690D01*
X98796976Y-66666738D01*
X98978404Y-66672785D02*
X98978404Y-66757452D01*
X98923976Y-66672785D02*
X98923976Y-66739309D01*
X98930023Y-66751404D01*
X98942119Y-66757452D01*
X98960261Y-66757452D01*
X98972357Y-66751404D01*
X98978404Y-66745357D01*
X73095785Y-190630452D02*
X73107880Y-190630452D01*
X73119976Y-190636500D01*
X73126023Y-190642547D01*
X73132071Y-190654642D01*
X73138119Y-190678833D01*
X73138119Y-190709071D01*
X73132071Y-190733261D01*
X73126023Y-190745357D01*
X73119976Y-190751404D01*
X73107880Y-190757452D01*
X73095785Y-190757452D01*
X73083690Y-190751404D01*
X73077642Y-190745357D01*
X73071595Y-190733261D01*
X73065547Y-190709071D01*
X73065547Y-190678833D01*
X73071595Y-190654642D01*
X73077642Y-190642547D01*
X73083690Y-190636500D01*
X73095785Y-190630452D01*
X73192547Y-190745357D02*
X73198595Y-190751404D01*
X73192547Y-190757452D01*
X73186500Y-190751404D01*
X73192547Y-190745357D01*
X73192547Y-190757452D01*
X73319547Y-190757452D02*
X73246976Y-190757452D01*
X73283261Y-190757452D02*
X73283261Y-190630452D01*
X73271166Y-190648595D01*
X73259071Y-190660690D01*
X73246976Y-190666738D01*
X73428404Y-190672785D02*
X73428404Y-190757452D01*
X73373976Y-190672785D02*
X73373976Y-190739309D01*
X73380023Y-190751404D01*
X73392119Y-190757452D01*
X73410261Y-190757452D01*
X73422357Y-190751404D01*
X73428404Y-190745357D01*
X82745785Y-105830452D02*
X82757880Y-105830452D01*
X82769976Y-105836500D01*
X82776023Y-105842547D01*
X82782071Y-105854642D01*
X82788119Y-105878833D01*
X82788119Y-105909071D01*
X82782071Y-105933261D01*
X82776023Y-105945357D01*
X82769976Y-105951404D01*
X82757880Y-105957452D01*
X82745785Y-105957452D01*
X82733690Y-105951404D01*
X82727642Y-105945357D01*
X82721595Y-105933261D01*
X82715547Y-105909071D01*
X82715547Y-105878833D01*
X82721595Y-105854642D01*
X82727642Y-105842547D01*
X82733690Y-105836500D01*
X82745785Y-105830452D01*
X82842547Y-105945357D02*
X82848595Y-105951404D01*
X82842547Y-105957452D01*
X82836500Y-105951404D01*
X82842547Y-105945357D01*
X82842547Y-105957452D01*
X82969547Y-105957452D02*
X82896976Y-105957452D01*
X82933261Y-105957452D02*
X82933261Y-105830452D01*
X82921166Y-105848595D01*
X82909071Y-105860690D01*
X82896976Y-105866738D01*
X83078404Y-105872785D02*
X83078404Y-105957452D01*
X83023976Y-105872785D02*
X83023976Y-105939309D01*
X83030023Y-105951404D01*
X83042119Y-105957452D01*
X83060261Y-105957452D01*
X83072357Y-105951404D01*
X83078404Y-105945357D01*
X97285785Y-148850452D02*
X97297880Y-148850452D01*
X97309976Y-148856500D01*
X97316023Y-148862547D01*
X97322071Y-148874642D01*
X97328119Y-148898833D01*
X97328119Y-148929071D01*
X97322071Y-148953261D01*
X97316023Y-148965357D01*
X97309976Y-148971404D01*
X97297880Y-148977452D01*
X97285785Y-148977452D01*
X97273690Y-148971404D01*
X97267642Y-148965357D01*
X97261595Y-148953261D01*
X97255547Y-148929071D01*
X97255547Y-148898833D01*
X97261595Y-148874642D01*
X97267642Y-148862547D01*
X97273690Y-148856500D01*
X97285785Y-148850452D01*
X97382547Y-148965357D02*
X97388595Y-148971404D01*
X97382547Y-148977452D01*
X97376500Y-148971404D01*
X97382547Y-148965357D01*
X97382547Y-148977452D01*
X97509547Y-148977452D02*
X97436976Y-148977452D01*
X97473261Y-148977452D02*
X97473261Y-148850452D01*
X97461166Y-148868595D01*
X97449071Y-148880690D01*
X97436976Y-148886738D01*
X97618404Y-148892785D02*
X97618404Y-148977452D01*
X97563976Y-148892785D02*
X97563976Y-148959309D01*
X97570023Y-148971404D01*
X97582119Y-148977452D01*
X97600261Y-148977452D01*
X97612357Y-148971404D01*
X97618404Y-148965357D01*
X125645785Y-64830452D02*
X125657880Y-64830452D01*
X125669976Y-64836500D01*
X125676023Y-64842547D01*
X125682071Y-64854642D01*
X125688119Y-64878833D01*
X125688119Y-64909071D01*
X125682071Y-64933261D01*
X125676023Y-64945357D01*
X125669976Y-64951404D01*
X125657880Y-64957452D01*
X125645785Y-64957452D01*
X125633690Y-64951404D01*
X125627642Y-64945357D01*
X125621595Y-64933261D01*
X125615547Y-64909071D01*
X125615547Y-64878833D01*
X125621595Y-64854642D01*
X125627642Y-64842547D01*
X125633690Y-64836500D01*
X125645785Y-64830452D01*
X125742547Y-64945357D02*
X125748595Y-64951404D01*
X125742547Y-64957452D01*
X125736500Y-64951404D01*
X125742547Y-64945357D01*
X125742547Y-64957452D01*
X125869547Y-64957452D02*
X125796976Y-64957452D01*
X125833261Y-64957452D02*
X125833261Y-64830452D01*
X125821166Y-64848595D01*
X125809071Y-64860690D01*
X125796976Y-64866738D01*
X125978404Y-64872785D02*
X125978404Y-64957452D01*
X125923976Y-64872785D02*
X125923976Y-64939309D01*
X125930023Y-64951404D01*
X125942119Y-64957452D01*
X125960261Y-64957452D01*
X125972357Y-64951404D01*
X125978404Y-64945357D01*
X127695785Y-148630452D02*
X127707880Y-148630452D01*
X127719976Y-148636500D01*
X127726023Y-148642547D01*
X127732071Y-148654642D01*
X127738119Y-148678833D01*
X127738119Y-148709071D01*
X127732071Y-148733261D01*
X127726023Y-148745357D01*
X127719976Y-148751404D01*
X127707880Y-148757452D01*
X127695785Y-148757452D01*
X127683690Y-148751404D01*
X127677642Y-148745357D01*
X127671595Y-148733261D01*
X127665547Y-148709071D01*
X127665547Y-148678833D01*
X127671595Y-148654642D01*
X127677642Y-148642547D01*
X127683690Y-148636500D01*
X127695785Y-148630452D01*
X127792547Y-148745357D02*
X127798595Y-148751404D01*
X127792547Y-148757452D01*
X127786500Y-148751404D01*
X127792547Y-148745357D01*
X127792547Y-148757452D01*
X127919547Y-148757452D02*
X127846976Y-148757452D01*
X127883261Y-148757452D02*
X127883261Y-148630452D01*
X127871166Y-148648595D01*
X127859071Y-148660690D01*
X127846976Y-148666738D01*
X128028404Y-148672785D02*
X128028404Y-148757452D01*
X127973976Y-148672785D02*
X127973976Y-148739309D01*
X127980023Y-148751404D01*
X127992119Y-148757452D01*
X128010261Y-148757452D01*
X128022357Y-148751404D01*
X128028404Y-148745357D01*
X144945785Y-195430452D02*
X144957880Y-195430452D01*
X144969976Y-195436500D01*
X144976023Y-195442547D01*
X144982071Y-195454642D01*
X144988119Y-195478833D01*
X144988119Y-195509071D01*
X144982071Y-195533261D01*
X144976023Y-195545357D01*
X144969976Y-195551404D01*
X144957880Y-195557452D01*
X144945785Y-195557452D01*
X144933690Y-195551404D01*
X144927642Y-195545357D01*
X144921595Y-195533261D01*
X144915547Y-195509071D01*
X144915547Y-195478833D01*
X144921595Y-195454642D01*
X144927642Y-195442547D01*
X144933690Y-195436500D01*
X144945785Y-195430452D01*
X145042547Y-195545357D02*
X145048595Y-195551404D01*
X145042547Y-195557452D01*
X145036500Y-195551404D01*
X145042547Y-195545357D01*
X145042547Y-195557452D01*
X145169547Y-195557452D02*
X145096976Y-195557452D01*
X145133261Y-195557452D02*
X145133261Y-195430452D01*
X145121166Y-195448595D01*
X145109071Y-195460690D01*
X145096976Y-195466738D01*
X145278404Y-195472785D02*
X145278404Y-195557452D01*
X145223976Y-195472785D02*
X145223976Y-195539309D01*
X145230023Y-195551404D01*
X145242119Y-195557452D01*
X145260261Y-195557452D01*
X145272357Y-195551404D01*
X145278404Y-195545357D01*
X108345785Y-38330452D02*
X108357880Y-38330452D01*
X108369976Y-38336500D01*
X108376023Y-38342547D01*
X108382071Y-38354642D01*
X108388119Y-38378833D01*
X108388119Y-38409071D01*
X108382071Y-38433261D01*
X108376023Y-38445357D01*
X108369976Y-38451404D01*
X108357880Y-38457452D01*
X108345785Y-38457452D01*
X108333690Y-38451404D01*
X108327642Y-38445357D01*
X108321595Y-38433261D01*
X108315547Y-38409071D01*
X108315547Y-38378833D01*
X108321595Y-38354642D01*
X108327642Y-38342547D01*
X108333690Y-38336500D01*
X108345785Y-38330452D01*
X108442547Y-38445357D02*
X108448595Y-38451404D01*
X108442547Y-38457452D01*
X108436500Y-38451404D01*
X108442547Y-38445357D01*
X108442547Y-38457452D01*
X108569547Y-38457452D02*
X108496976Y-38457452D01*
X108533261Y-38457452D02*
X108533261Y-38330452D01*
X108521166Y-38348595D01*
X108509071Y-38360690D01*
X108496976Y-38366738D01*
X108678404Y-38372785D02*
X108678404Y-38457452D01*
X108623976Y-38372785D02*
X108623976Y-38439309D01*
X108630023Y-38451404D01*
X108642119Y-38457452D01*
X108660261Y-38457452D01*
X108672357Y-38451404D01*
X108678404Y-38445357D01*
X132645785Y-104230452D02*
X132657880Y-104230452D01*
X132669976Y-104236500D01*
X132676023Y-104242547D01*
X132682071Y-104254642D01*
X132688119Y-104278833D01*
X132688119Y-104309071D01*
X132682071Y-104333261D01*
X132676023Y-104345357D01*
X132669976Y-104351404D01*
X132657880Y-104357452D01*
X132645785Y-104357452D01*
X132633690Y-104351404D01*
X132627642Y-104345357D01*
X132621595Y-104333261D01*
X132615547Y-104309071D01*
X132615547Y-104278833D01*
X132621595Y-104254642D01*
X132627642Y-104242547D01*
X132633690Y-104236500D01*
X132645785Y-104230452D01*
X132742547Y-104345357D02*
X132748595Y-104351404D01*
X132742547Y-104357452D01*
X132736500Y-104351404D01*
X132742547Y-104345357D01*
X132742547Y-104357452D01*
X132869547Y-104357452D02*
X132796976Y-104357452D01*
X132833261Y-104357452D02*
X132833261Y-104230452D01*
X132821166Y-104248595D01*
X132809071Y-104260690D01*
X132796976Y-104266738D01*
X132978404Y-104272785D02*
X132978404Y-104357452D01*
X132923976Y-104272785D02*
X132923976Y-104339309D01*
X132930023Y-104351404D01*
X132942119Y-104357452D01*
X132960261Y-104357452D01*
X132972357Y-104351404D01*
X132978404Y-104345357D01*
X148745785Y-142230452D02*
X148757880Y-142230452D01*
X148769976Y-142236500D01*
X148776023Y-142242547D01*
X148782071Y-142254642D01*
X148788119Y-142278833D01*
X148788119Y-142309071D01*
X148782071Y-142333261D01*
X148776023Y-142345357D01*
X148769976Y-142351404D01*
X148757880Y-142357452D01*
X148745785Y-142357452D01*
X148733690Y-142351404D01*
X148727642Y-142345357D01*
X148721595Y-142333261D01*
X148715547Y-142309071D01*
X148715547Y-142278833D01*
X148721595Y-142254642D01*
X148727642Y-142242547D01*
X148733690Y-142236500D01*
X148745785Y-142230452D01*
X148842547Y-142345357D02*
X148848595Y-142351404D01*
X148842547Y-142357452D01*
X148836500Y-142351404D01*
X148842547Y-142345357D01*
X148842547Y-142357452D01*
X148969547Y-142357452D02*
X148896976Y-142357452D01*
X148933261Y-142357452D02*
X148933261Y-142230452D01*
X148921166Y-142248595D01*
X148909071Y-142260690D01*
X148896976Y-142266738D01*
X149078404Y-142272785D02*
X149078404Y-142357452D01*
X149023976Y-142272785D02*
X149023976Y-142339309D01*
X149030023Y-142351404D01*
X149042119Y-142357452D01*
X149060261Y-142357452D01*
X149072357Y-142351404D01*
X149078404Y-142345357D01*
X166045785Y-184630452D02*
X166057880Y-184630452D01*
X166069976Y-184636500D01*
X166076023Y-184642547D01*
X166082071Y-184654642D01*
X166088119Y-184678833D01*
X166088119Y-184709071D01*
X166082071Y-184733261D01*
X166076023Y-184745357D01*
X166069976Y-184751404D01*
X166057880Y-184757452D01*
X166045785Y-184757452D01*
X166033690Y-184751404D01*
X166027642Y-184745357D01*
X166021595Y-184733261D01*
X166015547Y-184709071D01*
X166015547Y-184678833D01*
X166021595Y-184654642D01*
X166027642Y-184642547D01*
X166033690Y-184636500D01*
X166045785Y-184630452D01*
X166142547Y-184745357D02*
X166148595Y-184751404D01*
X166142547Y-184757452D01*
X166136500Y-184751404D01*
X166142547Y-184745357D01*
X166142547Y-184757452D01*
X166269547Y-184757452D02*
X166196976Y-184757452D01*
X166233261Y-184757452D02*
X166233261Y-184630452D01*
X166221166Y-184648595D01*
X166209071Y-184660690D01*
X166196976Y-184666738D01*
X166378404Y-184672785D02*
X166378404Y-184757452D01*
X166323976Y-184672785D02*
X166323976Y-184739309D01*
X166330023Y-184751404D01*
X166342119Y-184757452D01*
X166360261Y-184757452D01*
X166372357Y-184751404D01*
X166378404Y-184745357D01*
D13*
X228828571Y-186869285D02*
X228828571Y-186119285D01*
X228828571Y-186476428D02*
X229257142Y-186476428D01*
X229257142Y-186869285D02*
X229257142Y-186119285D01*
X229971428Y-186119285D02*
X229614285Y-186119285D01*
X229578571Y-186476428D01*
X229614285Y-186440714D01*
X229685714Y-186405000D01*
X229864285Y-186405000D01*
X229935714Y-186440714D01*
X229971428Y-186476428D01*
X230007142Y-186547857D01*
X230007142Y-186726428D01*
X229971428Y-186797857D01*
X229935714Y-186833571D01*
X229864285Y-186869285D01*
X229685714Y-186869285D01*
X229614285Y-186833571D01*
X229578571Y-186797857D01*
X223025000Y-189409285D02*
X223025000Y-188659285D01*
X223310714Y-188659285D01*
X223382142Y-188695000D01*
X223417857Y-188730714D01*
X223453571Y-188802142D01*
X223453571Y-188909285D01*
X223417857Y-188980714D01*
X223382142Y-189016428D01*
X223310714Y-189052142D01*
X223025000Y-189052142D01*
X223882142Y-189409285D02*
X223810714Y-189373571D01*
X223775000Y-189337857D01*
X223739285Y-189266428D01*
X223739285Y-189052142D01*
X223775000Y-188980714D01*
X223810714Y-188945000D01*
X223882142Y-188909285D01*
X223989285Y-188909285D01*
X224060714Y-188945000D01*
X224096428Y-188980714D01*
X224132142Y-189052142D01*
X224132142Y-189266428D01*
X224096428Y-189337857D01*
X224060714Y-189373571D01*
X223989285Y-189409285D01*
X223882142Y-189409285D01*
X224382142Y-188909285D02*
X224525000Y-189409285D01*
X224667857Y-189052142D01*
X224810714Y-189409285D01*
X224953571Y-188909285D01*
X225525000Y-189373571D02*
X225453571Y-189409285D01*
X225310714Y-189409285D01*
X225239285Y-189373571D01*
X225203571Y-189302142D01*
X225203571Y-189016428D01*
X225239285Y-188945000D01*
X225310714Y-188909285D01*
X225453571Y-188909285D01*
X225525000Y-188945000D01*
X225560714Y-189016428D01*
X225560714Y-189087857D01*
X225203571Y-189159285D01*
X225882142Y-189409285D02*
X225882142Y-188909285D01*
X225882142Y-189052142D02*
X225917857Y-188980714D01*
X225953571Y-188945000D01*
X226025000Y-188909285D01*
X226096428Y-188909285D01*
X226882142Y-189373571D02*
X226989285Y-189409285D01*
X227167857Y-189409285D01*
X227239285Y-189373571D01*
X227275000Y-189337857D01*
X227310714Y-189266428D01*
X227310714Y-189195000D01*
X227275000Y-189123571D01*
X227239285Y-189087857D01*
X227167857Y-189052142D01*
X227025000Y-189016428D01*
X226953571Y-188980714D01*
X226917857Y-188945000D01*
X226882142Y-188873571D01*
X226882142Y-188802142D01*
X226917857Y-188730714D01*
X226953571Y-188695000D01*
X227025000Y-188659285D01*
X227203571Y-188659285D01*
X227310714Y-188695000D01*
X227953571Y-188909285D02*
X227953571Y-189409285D01*
X227632142Y-188909285D02*
X227632142Y-189302142D01*
X227667857Y-189373571D01*
X227739285Y-189409285D01*
X227846428Y-189409285D01*
X227917857Y-189373571D01*
X227953571Y-189337857D01*
X228310714Y-188909285D02*
X228310714Y-189659285D01*
X228310714Y-188945000D02*
X228382142Y-188909285D01*
X228525000Y-188909285D01*
X228596428Y-188945000D01*
X228632142Y-188980714D01*
X228667857Y-189052142D01*
X228667857Y-189266428D01*
X228632142Y-189337857D01*
X228596428Y-189373571D01*
X228525000Y-189409285D01*
X228382142Y-189409285D01*
X228310714Y-189373571D01*
X228989285Y-188909285D02*
X228989285Y-189659285D01*
X228989285Y-188945000D02*
X229060714Y-188909285D01*
X229203571Y-188909285D01*
X229275000Y-188945000D01*
X229310714Y-188980714D01*
X229346428Y-189052142D01*
X229346428Y-189266428D01*
X229310714Y-189337857D01*
X229275000Y-189373571D01*
X229203571Y-189409285D01*
X229060714Y-189409285D01*
X228989285Y-189373571D01*
X229775000Y-189409285D02*
X229703571Y-189373571D01*
X229667857Y-189302142D01*
X229667857Y-188659285D01*
X229989285Y-188909285D02*
X230167857Y-189409285D01*
X230346428Y-188909285D02*
X230167857Y-189409285D01*
X230096428Y-189587857D01*
X230060714Y-189623571D01*
X229989285Y-189659285D01*
X231596428Y-189409285D02*
X231167857Y-189409285D01*
X231382142Y-189409285D02*
X231382142Y-188659285D01*
X231310714Y-188766428D01*
X231239285Y-188837857D01*
X231167857Y-188873571D01*
X231882142Y-188730714D02*
X231917857Y-188695000D01*
X231989285Y-188659285D01*
X232167857Y-188659285D01*
X232239285Y-188695000D01*
X232275000Y-188730714D01*
X232310714Y-188802142D01*
X232310714Y-188873571D01*
X232275000Y-188980714D01*
X231846428Y-189409285D01*
X232310714Y-189409285D01*
X232525000Y-188659285D02*
X232775000Y-189409285D01*
X233025000Y-188659285D01*
X233810714Y-188730714D02*
X233846428Y-188695000D01*
X233917857Y-188659285D01*
X234096428Y-188659285D01*
X234167857Y-188695000D01*
X234203571Y-188730714D01*
X234239285Y-188802142D01*
X234239285Y-188873571D01*
X234203571Y-188980714D01*
X233775000Y-189409285D01*
X234239285Y-189409285D01*
X234882142Y-188909285D02*
X234882142Y-189409285D01*
X234703571Y-188623571D02*
X234525000Y-189159285D01*
X234989285Y-189159285D01*
X235203571Y-188659285D02*
X235382142Y-189409285D01*
X235525000Y-188873571D01*
X235667857Y-189409285D01*
X235846428Y-188659285D01*
M02*
